999
dxfrw 0.6.3
  0
SECTION
  2
HEADER
  9
$ACADVER
  1
AC1021
  9
$DWGCODEPAGE
  3
ANSI_1252
  9
$INSBASE
 10
0
 20
0
 30
0
  9
$EXTMIN
 10
163.614970584783
 20
86.97025168528013
 30
0
  9
$EXTMAX
 10
309.289912726296
 20
193.4321121890973
 30
0
  9
$LIMMIN
 10
0
 20
0
  9
$LIMMAX
 10
420
 20
297
  9
$ORTHOMODE
 70
    0
  9
$REGENMODE
 70
    1
  9
$FILLMODE
 70
    1
  9
$QTEXTMODE
 70
    0
  9
$MIRRTEXT
 70
    0
  9
$LTSCALE
 40
1
  9
$ATTMODE
 70
    0
  9
$TEXTSIZE
 40
2.5
  9
$TRACEWID
 40
15.68
  9
$TEXTSTYLE
  7
STANDARD
  9
$CLAYER
  8
0
  9
$CELTYPE
  6
BYLAYER
  9
$CECOLOR
 62
  256
  9
$CELTSCALE
 40
1
  9
$DISPSILH
 70
    0
  9
$DIMSCALE
 40
2.5
  9
$DIMASZ
 40
2.5
  9
$DIMEXO
 40
0.625
  9
$DIMDLI
 40
3.75
  9
$DIMRND
 40
0
  9
$DIMDLE
 40
0
  9
$DIMEXE
 40
1.25
  9
$DIMTP
 40
0
  9
$DIMTM
 40
0
  9
$DIMTXT
 40
2.5
  9
$DIMCEN
 40
2.5
  9
$DIMTSZ
 40
0
  9
$DIMTOL
 70
    0
  9
$DIMLIM
 70
    0
  9
$DIMTIH
 70
    0
  9
$DIMTOH
 70
    0
  9
$DIMSE1
 70
    0
  9
$DIMSE2
 70
    0
  9
$DIMTAD
 70
    1
  9
$DIMZIN
 70
    8
  9
$DIMBLK
  1

  9
$DIMASO
 70
    1
  9
$DIMSHO
 70
    1
  9
$DIMPOST
  1

  9
$DIMAPOST
  1

  9
$DIMALT
 70
    0
  9
$DIMALTD
 70
    3
  9
$DIMALTF
 40
0.03937
  9
$DIMLFAC
 40
1
  9
$DIMTOFL
 70
    1
  9
$DIMTVP
 40
0
  9
$DIMTIX
 70
    0
  9
$DIMSOXD
 70
    0
  9
$DIMSAH
 70
    0
  9
$DIMBLK1
  1

  9
$DIMBLK2
  1

  9
$DIMSTYLE
  2
STANDARD
  9
$DIMCLRD
 70
    0
  9
$DIMCLRE
 70
    0
  9
$DIMCLRT
 70
    0
  9
$DIMTFAC
 40
1
  9
$DIMGAP
 40
0.625
  9
$DIMJUST
 70
    0
  9
$DIMSD1
 70
    0
  9
$DIMSD2
 70
    0
  9
$DIMTOLJ
 70
    0
  9
$DIMTZIN
 70
    8
  9
$DIMALTZ
 70
    0
  9
$DIMALTTZ
 70
    0
  9
$DIMUPT
 70
    0
  9
$DIMDEC
 70
    2
  9
$DIMTDEC
 70
    2
  9
$DIMALTU
 70
    2
  9
$DIMALTTD
 70
    3
  9
$DIMTXSTY
  7
STANDARD
  9
$DIMAUNIT
 70
    0
  9
$DIMADEC
 70
    0
  9
$DIMALTRND
 40
0
  9
$DIMAZIN
 70
    0
  9
$DIMDSEP
 70
   44
  9
$DIMATFIT
 70
    3
  9
$DIMFRAC
 70
    0
  9
$DIMLDRBLK
  1
STANDARD
  9
$DIMLUNIT
 70
    2
  9
$DIMLWD
 70
   -2
  9
$DIMLWE
 70
   -2
  9
$DIMTMOVE
 70
    0
  9
$DIMFXL
 40
1
  9
$DIMFXLON
 70
    0
  9
$DIMJOGANG
 40
0.7854
  9
$DIMTFILL
 70
    0
  9
$DIMTFILLCLR
 70
    0
  9
$DIMARCSYM
 70
    0
  9
$DIMLTYPE
  6

  9
$DIMLTEX1
  6

  9
$DIMLTEX2
  6

  9
$LUNITS
 70
    2
  9
$LUPREC
 70
    4
  9
$SKETCHINC
 40
1
  9
$FILLETRAD
 40
0
  9
$AUNITS
 70
    0
  9
$AUPREC
 70
    2
  9
$MENU
  1
.
  9
$ELEVATION
 40
0
  9
$PELEVATION
 40
0
  9
$THICKNESS
 40
0
  9
$LIMCHECK
 70
    0
  9
$CHAMFERA
 40
0
  9
$CHAMFERB
 40
0
  9
$CHAMFERC
 40
0
  9
$CHAMFERD
 40
0
  9
$SKPOLY
 70
    0
  9
$USRTIMER
 70
    1
  9
$ANGBASE
 50
0
  9
$ANGDIR
 70
    0
  9
$PDMODE
 70
   34
  9
$PDSIZE
 40
0
  9
$PLINEWID
 40
0
  9
$SPLFRAME
 70
    0
  9
$SPLINETYPE
 70
    2
  9
$SPLINESEGS
 70
    8
  9
$HANDSEED
  5
20000
  9
$SURFTAB1
 70
    6
  9
$SURFTAB2
 70
    6
  9
$SURFTYPE
 70
    6
  9
$SURFU
 70
    6
  9
$SURFV
 70
    6
  9
$UCSBASE
  2

  9
$UCSNAME
  2

  9
$UCSORG
 10
0
 20
0
 30
0
  9
$UCSXDIR
 10
1
 20
0
 30
0
  9
$UCSYDIR
 10
0
 20
1
 30
0
  9
$UCSORTHOREF
  2

  9
$UCSORTHOVIEW
 70
    0
  9
$UCSORGTOP
 10
0
 20
0
 30
0
  9
$UCSORGBOTTOM
 10
0
 20
0
 30
0
  9
$UCSORGLEFT
 10
0
 20
0
 30
0
  9
$UCSORGRIGHT
 10
0
 20
0
 30
0
  9
$UCSORGFRONT
 10
0
 20
0
 30
0
  9
$UCSORGBACK
 10
0
 20
0
 30
0
  9
$PUCSBASE
  2

  9
$PUCSNAME
  2

  9
$PUCSORG
 10
0
 20
0
 30
0
  9
$PUCSXDIR
 10
1
 20
0
 30
0
  9
$PUCSYDIR
 10
0
 20
1
 30
0
  9
$PUCSORTHOREF
  2

  9
$PUCSORTHOVIEW
 70
    0
  9
$PUCSORGTOP
 10
0
 20
0
 30
0
  9
$PUCSORGBOTTOM
 10
0
 20
0
 30
0
  9
$PUCSORGLEFT
 10
0
 20
0
 30
0
  9
$PUCSORGRIGHT
 10
0
 20
0
 30
0
  9
$PUCSORGFRONT
 10
0
 20
0
 30
0
  9
$PUCSORGBACK
 10
0
 20
0
 30
0
  9
$USERI1
 70
    0
  9
$USERI2
 70
    0
  9
$USERI3
 70
    0
  9
$USERI4
 70
    0
  9
$USERI5
 70
    0
  9
$USERR1
 40
0
  9
$USERR2
 40
0
  9
$USERR3
 40
0
  9
$USERR4
 40
0
  9
$USERR5
 40
0
  9
$WORLDVIEW
 70
    1
  9
$SHADEDGE
 70
    3
  9
$SHADEDIF
 70
   70
  9
$TILEMODE
 70
    1
  9
$MAXACTVP
 70
   64
  9
$PINSBASE
 10
0
 20
0
 30
0
  9
$PLIMCHECK
 70
    0
  9
$PEXTMIN
 10
0
 20
0
 30
0
  9
$PEXTMAX
 10
50
 20
50
 30
50
  9
$GRIDMODE
 70
    0
  9
$SNAPSTYLE
 70
    0
  9
$PLIMMIN
 10
0
 20
0
  9
$PLIMMAX
 10
210
 20
297
  9
$UNITMODE
 70
    0
  9
$VISRETAIN
 70
    1
  9
$PLINEGEN
 70
    0
  9
$PSLTSCALE
 70
    1
  9
$TREEDEPTH
 70
 3020
  9
$CMLSTYLE
  2
STANDARD
  9
$CMLJUST
 70
    0
  9
$CMLSCALE
 40
20
  9
$PROXYGRAPHICS
 70
    1
  9
$MEASUREMENT
 70
    1
  9
$CELWEIGHT
370
   -1
  9
$ENDCAPS
280
    0
  9
$JOINSTYLE
280
    0
  9
$LWDISPLAY
290
    0
  9
$INSUNITS
 70
    4
  9
$HYPERLINKBASE
  1

  9
$STYLESHEET
  1

  9
$XEDIT
290
    1
  9
$CEPSNTYPE
380
    0
  9
$PSTYLEMODE
290
    1
  9
$EXTNAMES
290
    1
  9
$PSVPSCALE
 40
1
  9
$OLESTARTUP
290
    0
  9
$SORTENTS
280
  127
  9
$INDEXCTL
280
    0
  9
$HIDETEXT
280
    1
  9
$XCLIPFRAME
290
    0
  9
$HALOGAP
280
    0
  9
$OBSCOLOR
 70
  257
  9
$OBSLTYPE
280
    0
  9
$INTERSECTIONDISPLAY
280
    0
  9
$INTERSECTIONCOLOR
 70
  257
  9
$DIMASSOC
280
    1
  9
$PROJECTNAME
  1

  9
$CAMERADISPLAY
290
    0
  9
$LENSLENGTH
 40
50
  9
$CAMERAHEIGHT
 40
0
  9
$STEPSPERSEC
 40
2
  9
$STEPSIZE
 40
50
  9
$3DDWFPREC
 40
2
  9
$PSOLWIDTH
 40
5
  9
$PSOLHEIGHT
 40
80
  9
$LOFTANG1
 40
1.570796326794897
  9
$LOFTANG2
 40
1.570796326794897
  9
$LOFTMAG1
 40
0
  9
$LOFTMAG2
 40
0
  9
$LOFTPARAM
 70
    7
  9
$LOFTNORMALS
280
    1
  9
$LATITUDE
 40
1
  9
$LONGITUDE
 40
1
  9
$NORTHDIRECTION
 40
0
  9
$TIMEZONE
 70
-8000
  9
$LIGHTGLYPHDISPLAY
280
    1
  9
$TILEMODELIGHTSYNCH
280
    1
  9
$SOLIDHIST
280
    1
  9
$SHOWHIST
280
    1
  9
$DWFFRAME
280
    2
  9
$DGNFRAME
280
    0
  9
$REALWORLDSCALE
290
    1
  9
$INTERFERECOLOR
 62
    1
  9
$CSHADOW
280
    0
  9
$SHADOWPLANELOCATION
 40
0
  0
ENDSEC
  0
SECTION
  2
CLASSES
  0
ENDSEC
  0
SECTION
  2
TABLES
  0
TABLE
  2
VPORT
  5
8
330
0
100
AcDbSymbolTable
 70
    1
  0
VPORT
  5
31
330
2
100
AcDbSymbolTableRecord
100
AcDbViewportTableRecord
  2
*ACTIVE
 70
    0
 10
0
 20
0
 11
1
 21
1
 12
213.9326452792202
 22
129.1974787662252
 13
0
 23
0
 14
10
 24
10
 15
10
 25
10
 16
0
 26
0
 36
1
 17
0
 27
0
 37
0
 40
201.6345589113054
 41
1.993297587131367
 42
50
 43
0
 44
0
 50
0
 51
0
 71
    0
 72
  100
 73
    1
 74
    3
 75
    0
 76
    0
 77
    0
 78
    0
281
    0
 65
    1
110
0
120
0
130
0
111
1
121
0
131
0
112
0
122
1
132
0
 79
    0
146
0
348
10020
 60
    7
 61
    5
292
1
282
    1
141
0
142
0
 63
  250
421
3358443
  0
ENDTAB
  0
TABLE
  2
LTYPE
  5
5
330
0
100
AcDbSymbolTable
 70
    4
  0
LTYPE
  5
14
330
5
100
AcDbSymbolTableRecord
100
AcDbLinetypeTableRecord
  2
ByBlock
 70
    0
  3

 72
   65
 73
    0
 40
0
  0
LTYPE
  5
15
330
5
100
AcDbSymbolTableRecord
100
AcDbLinetypeTableRecord
  2
ByLayer
 70
    0
  3

 72
   65
 73
    0
 40
0
  0
LTYPE
  5
16
330
5
100
AcDbSymbolTableRecord
100
AcDbLinetypeTableRecord
  2
Continuous
 70
    0
  3
Solid line
 72
   65
 73
    0
 40
0
  0
LTYPE
  5
32
330
5
100
AcDbSymbolTableRecord
100
AcDbLinetypeTableRecord
  2
DOT
 70
    0
  3
Dot . . . . . . . . . . . . . . . . . . . . . .
 72
   65
 73
    2
 40
6.35
 49
0
 74
    0
 49
-6.35
 74
    0
  0
LTYPE
  5
33
330
5
100
AcDbSymbolTableRecord
100
AcDbLinetypeTableRecord
  2
DOTTINY
 70
    0
  3
Dot (.15x) .....................................
 72
   65
 73
    2
 40
0.9525
 49
0
 74
    0
 49
-0.9525
 74
    0
  0
LTYPE
  5
34
330
5
100
AcDbSymbolTableRecord
100
AcDbLinetypeTableRecord
  2
DOT2
 70
    0
  3
Dot (.5x) .....................................
 72
   65
 73
    2
 40
3.175
 49
0
 74
    0
 49
-3.175
 74
    0
  0
LTYPE
  5
35
330
5
100
AcDbSymbolTableRecord
100
AcDbLinetypeTableRecord
  2
DOTX2
 70
    0
  3
Dot (2x) .  .  .  .  .  .  .  .  .  .  .  .  .
 72
   65
 73
    2
 40
12.7
 49
0
 74
    0
 49
-12.7
 74
    0
  0
LTYPE
  5
36
330
5
100
AcDbSymbolTableRecord
100
AcDbLinetypeTableRecord
  2
DASHED
 70
    0
  3
Dashed _ _ _ _ _ _ _ _ _ _ _ _ _ _ _ _ _
 72
   65
 73
    2
 40
19.05
 49
12.7
 74
    0
 49
-6.35
 74
    0
  0
LTYPE
  5
37
330
5
100
AcDbSymbolTableRecord
100
AcDbLinetypeTableRecord
  2
DASHEDTINY
 70
    0
  3
Dashed (.15x) _ _ _ _ _ _ _ _ _ _ _ _ _ _ _ _ _
 72
   65
 73
    2
 40
2.8575
 49
1.905
 74
    0
 49
-0.9525
 74
    0
  0
LTYPE
  5
38
330
5
100
AcDbSymbolTableRecord
100
AcDbLinetypeTableRecord
  2
DASHED2
 70
    0
  3
Dashed (.5x) _ _ _ _ _ _ _ _ _ _ _ _ _ _ _ _ _
 72
   65
 73
    2
 40
9.524999999999999
 49
6.35
 74
    0
 49
-3.175
 74
    0
  0
LTYPE
  5
39
330
5
100
AcDbSymbolTableRecord
100
AcDbLinetypeTableRecord
  2
DASHEDX2
 70
    0
  3
Dashed (2x) ____  ____  ____  ____  ____  ___
 72
   65
 73
    2
 40
38.09999999999999
 49
25.4
 74
    0
 49
-12.7
 74
    0
  0
LTYPE
  5
3A
330
5
100
AcDbSymbolTableRecord
100
AcDbLinetypeTableRecord
  2
DASHDOT
 70
    0
  3
Dash dot __ . __ . __ . __ . __ . __ . __ . __
 72
   65
 73
    4
 40
25.4
 49
12.7
 74
    0
 49
-6.35
 74
    0
 49
0
 74
    0
 49
-6.35
 74
    0
  0
LTYPE
  5
3B
330
5
100
AcDbSymbolTableRecord
100
AcDbLinetypeTableRecord
  2
DASHDOTTINY
 70
    0
  3
Dash dot (.15x) _._._._._._._._._._._._._._._.
 72
   65
 73
    4
 40
3.81
 49
1.905
 74
    0
 49
-0.9525
 74
    0
 49
0
 74
    0
 49
-0.9525
 74
    0
  0
LTYPE
  5
3C
330
5
100
AcDbSymbolTableRecord
100
AcDbLinetypeTableRecord
  2
DASHDOT2
 70
    0
  3
Dash dot (.5x) _._._._._._._._._._._._._._._.
 72
   65
 73
    4
 40
12.7
 49
6.35
 74
    0
 49
-3.175
 74
    0
 49
0
 74
    0
 49
-3.175
 74
    0
  0
LTYPE
  5
3D
330
5
100
AcDbSymbolTableRecord
100
AcDbLinetypeTableRecord
  2
DASHDOTX2
 70
    0
  3
Dash dot (2x) ____  .  ____  .  ____  .  ___
 72
   65
 73
    4
 40
50.8
 49
25.4
 74
    0
 49
-12.7
 74
    0
 49
0
 74
    0
 49
-12.7
 74
    0
  0
LTYPE
  5
3E
330
5
100
AcDbSymbolTableRecord
100
AcDbLinetypeTableRecord
  2
DIVIDE
 70
    0
  3
Divide ____ . . ____ . . ____ . . ____ . . ____
 72
   65
 73
    6
 40
31.75
 49
12.7
 74
    0
 49
-6.35
 74
    0
 49
0
 74
    0
 49
-6.35
 74
    0
 49
0
 74
    0
 49
-6.35
 74
    0
  0
LTYPE
  5
3F
330
5
100
AcDbSymbolTableRecord
100
AcDbLinetypeTableRecord
  2
DIVIDETINY
 70
    0
  3
Divide (.15x) __..__..__..__..__..__..__..__.._
 72
   65
 73
    6
 40
4.7625
 49
1.905
 74
    0
 49
-0.9525
 74
    0
 49
0
 74
    0
 49
-0.9525
 74
    0
 49
0
 74
    0
 49
-0.9525
 74
    0
  0
LTYPE
  5
40
330
5
100
AcDbSymbolTableRecord
100
AcDbLinetypeTableRecord
  2
DIVIDE2
 70
    0
  3
Divide (.5x) __..__..__..__..__..__..__..__.._
 72
   65
 73
    6
 40
15.875
 49
6.35
 74
    0
 49
-3.175
 74
    0
 49
0
 74
    0
 49
-3.175
 74
    0
 49
0
 74
    0
 49
-3.175
 74
    0
  0
LTYPE
  5
41
330
5
100
AcDbSymbolTableRecord
100
AcDbLinetypeTableRecord
  2
DIVIDEX2
 70
    0
  3
Divide (2x) ________  .  .  ________  .  .  _
 72
   65
 73
    6
 40
63.5
 49
25.4
 74
    0
 49
-12.7
 74
    0
 49
0
 74
    0
 49
-12.7
 74
    0
 49
0
 74
    0
 49
-12.7
 74
    0
  0
LTYPE
  5
42
330
5
100
AcDbSymbolTableRecord
100
AcDbLinetypeTableRecord
  2
BORDER
 70
    0
  3
Border __ __ . __ __ . __ __ . __ __ . __ __ .
 72
   65
 73
    6
 40
44.45
 49
12.7
 74
    0
 49
-6.35
 74
    0
 49
12.7
 74
    0
 49
-6.35
 74
    0
 49
0
 74
    0
 49
-6.35
 74
    0
  0
LTYPE
  5
43
330
5
100
AcDbSymbolTableRecord
100
AcDbLinetypeTableRecord
  2
BORDERTINY
 70
    0
  3
Border (.15x) __.__.__.__.__.__.__.__.__.__.__.
 72
   65
 73
    6
 40
6.6675
 49
1.905
 74
    0
 49
-0.9525
 74
    0
 49
1.905
 74
    0
 49
-0.9525
 74
    0
 49
0
 74
    0
 49
-0.9525
 74
    0
  0
LTYPE
  5
44
330
5
100
AcDbSymbolTableRecord
100
AcDbLinetypeTableRecord
  2
BORDER2
 70
    0
  3
Border (.5x) __.__.__.__.__.__.__.__.__.__.__.
 72
   65
 73
    6
 40
22.225
 49
6.35
 74
    0
 49
-3.175
 74
    0
 49
6.35
 74
    0
 49
-3.175
 74
    0
 49
0
 74
    0
 49
-3.175
 74
    0
  0
LTYPE
  5
45
330
5
100
AcDbSymbolTableRecord
100
AcDbLinetypeTableRecord
  2
BORDERX2
 70
    0
  3
Border (2x) ____  ____  .  ____  ____  .  ___
 72
   65
 73
    6
 40
88.89999999999999
 49
25.4
 74
    0
 49
-12.7
 74
    0
 49
25.4
 74
    0
 49
-12.7
 74
    0
 49
0
 74
    0
 49
-12.7
 74
    0
  0
LTYPE
  5
46
330
5
100
AcDbSymbolTableRecord
100
AcDbLinetypeTableRecord
  2
CENTER
 70
    0
  3
Center ____ _ ____ _ ____ _ ____ _ ____ _ ____
 72
   65
 73
    4
 40
50.8
 49
31.75
 74
    0
 49
-6.35
 74
    0
 49
6.35
 74
    0
 49
-6.35
 74
    0
  0
LTYPE
  5
47
330
5
100
AcDbSymbolTableRecord
100
AcDbLinetypeTableRecord
  2
CENTERTINY
 70
    0
  3
Center (.15x) ___ _ ___ _ ___ _ ___ _ ___ _ ___
 72
   65
 73
    4
 40
7.62
 49
4.7625
 74
    0
 49
-0.9525
 74
    0
 49
0.9525
 74
    0
 49
-0.9525
 74
    0
  0
LTYPE
  5
48
330
5
100
AcDbSymbolTableRecord
100
AcDbLinetypeTableRecord
  2
CENTER2
 70
    0
  3
Center (.5x) ___ _ ___ _ ___ _ ___ _ ___ _ ___
 72
   65
 73
    4
 40
28.575
 49
19.05
 74
    0
 49
-3.175
 74
    0
 49
3.175
 74
    0
 49
-3.175
 74
    0
  0
LTYPE
  5
49
330
5
100
AcDbSymbolTableRecord
100
AcDbLinetypeTableRecord
  2
CENTERX2
 70
    0
  3
Center (2x) ________  __  ________  __  _____
 72
   65
 73
    4
 40
101.6
 49
63.5
 74
    0
 49
-12.7
 74
    0
 49
12.7
 74
    0
 49
-12.7
 74
    0
  0
ENDTAB
  0
TABLE
  2
LAYER
  5
2
330
0
100
AcDbSymbolTable
 70
    1
  0
LAYER
  5
10
330
2
100
AcDbSymbolTableRecord
100
AcDbLayerTableRecord
  2
0
 70
    0
 62
    7
  6
CONTINUOUS
370
   -3
390
F
  0
LAYER
  5
4A
330
2
100
AcDbSymbolTableRecord
100
AcDbLayerTableRecord
  2
View001
 70
    0
 62
    7
  6
CONTINUOUS
370
   -3
390
F
  0
ENDTAB
  0
TABLE
  2
STYLE
  5
3
330
0
100
AcDbSymbolTable
 70
    3
  0
STYLE
  5
4B
330
2
100
AcDbSymbolTableRecord
100
AcDbTextStyleTableRecord
  2
Standard
 70
    0
 40
0
 41
1
 50
0
 71
    0
 42
1
  3
txt
  4

  0
ENDTAB
  0
TABLE
  2
VIEW
  5
6
330
0
100
AcDbSymbolTable
 70
    0
  0
ENDTAB
  0
TABLE
  2
UCS
  5
7
330
0
100
AcDbSymbolTable
 70
    0
  0
ENDTAB
  0
TABLE
  2
APPID
  5
9
330
0
100
AcDbSymbolTable
 70
    1
  0
APPID
  5
12
330
9
100
AcDbSymbolTableRecord
100
AcDbRegAppTableRecord
  2
ACAD
 70
    0
  0
APPID
  5
4C
330
9
100
AcDbSymbolTableRecord
100
AcDbRegAppTableRecord
  2
LibreCad
 70
    0
  0
ENDTAB
  0
TABLE
  2
DIMSTYLE
  5
A
330
0
100
AcDbSymbolTable
 70
    1
100
AcDbDimStyleTable
 71
    1
  0
DIMSTYLE
105
4D
330
A
100
AcDbSymbolTableRecord
100
AcDbDimStyleTableRecord
  2
Standard
 70
    0
 40
1
 41
2.5
 42
0.625
 43
0.38
 44
1.25
 45
0
 46
0
 47
0
 48
0
 49
1
140
2.5
141
0.09
142
2.5
143
25.4
144
1
145
0
146
1
147
0.625
148
0
 71
    0
 72
    0
 73
    0
 74
    1
 75
    0
 76
    0
 77
    0
 78
    1
 79
    0
170
    0
171
    2
172
    0
173
    0
174
    0
175
    0
176
    0
177
    0
178
    0
179
    0
271
    2
272
    4
273
    2
274
    2
275
    0
276
    0
277
    2
278
    0
279
    0
280
    0
281
    0
282
    0
283
    1
284
    0
285
    0
286
    0
288
    0
289
    3
340
STANDARD
341

371
   -2
372
   -2
  0
ENDTAB
  0
TABLE
  2
BLOCK_RECORD
  5
1
330
0
100
AcDbSymbolTable
 70
    2
  0
BLOCK_RECORD
  5
1F
330
1
100
AcDbSymbolTableRecord
100
AcDbBlockTableRecord
  2
*Model_Space
 70
    0
280
    1
281
    0
  0
BLOCK_RECORD
  5
1E
330
1
100
AcDbSymbolTableRecord
100
AcDbBlockTableRecord
  2
*Paper_Space
 70
    0
280
    1
281
    0
  0
ENDTAB
  0
ENDSEC
  0
SECTION
  2
BLOCKS
  0
BLOCK
  5
20
330
1F
100
AcDbEntity
  8
0
100
AcDbBlockBegin
  2
*Model_Space
 70
    0
 10
0
 20
0
 30
0
  3
*Model_Space
  1

  0
ENDBLK
  5
21
330
1F
100
AcDbEntity
  8
0
100
AcDbBlockEnd
  0
BLOCK
  5
1C
330
1B
100
AcDbEntity
  8
0
100
AcDbBlockBegin
  2
*Paper_Space
 70
    0
 10
0
 20
0
 30
0
  3
*Paper_Space
  1

  0
ENDBLK
  5
1D
330
1F
100
AcDbEntity
  8
0
100
AcDbBlockEnd
  0
ENDSEC
  0
SECTION
  2
ENTITIES
  0
LINE
  5
4E
100
AcDbEntity
  8
View001
  6
ByLayer
 62
  256
370
   -1
100
AcDbLine
 10
163.8772254917233
 20
186.5316734979532
 11
201.8769437129767
 21
186.3853344896752
  0
LINE
  5
4F
100
AcDbEntity
  8
View001
  6
ByLayer
 62
  256
370
   -1
100
AcDbLine
 10
163.614970584783
 20
118.432178475128
 11
163.8772254917233
 21
186.5316734979532
  0
LINE
  5
50
100
AcDbEntity
  8
View001
  6
ByLayer
 62
  256
370
   -1
100
AcDbLine
 10
201.8769437129767
 20
186.3853344896752
 11
201.8952360890115
 21
191.1352992673318
  0
LINE
  5
51
100
AcDbEntity
  8
View001
  6
ByLayer
 62
  256
370
   -1
100
AcDbLine
 10
222.309535347848
 20
118.2061424727365
 11
163.614970584783
 21
118.432178475128
  0
LINE
  5
52
100
AcDbEntity
  8
View001
  6
ByLayer
 62
  256
370
   -1
100
AcDbLine
 10
201.8952360890115
 20
191.1352992673318
 11
220.8950951996381
 21
191.0621297631928
  0
LINE
  5
53
100
AcDbEntity
  8
View001
  6
ByLayer
 62
  256
370
   -1
100
AcDbLine
 10
232.7266067600507
 20
103.7669189841597
 11
222.309535347848
 21
118.2061424727365
  0
LINE
  5
54
100
AcDbEntity
  8
View001
  6
ByLayer
 62
  256
370
   -1
100
AcDbLine
 10
220.8950951996381
 20
191.0621297631928
 11
220.9042221325228
 21
193.4321121890973
  0
LINE
  5
55
100
AcDbEntity
  8
View001
  6
ByLayer
 62
  256
370
   -1
100
AcDbLine
 10
271.3559496327869
 20
98.61411815057583
 11
232.7266067600507
 21
103.7669189841597
  0
LINE
  5
56
100
AcDbEntity
  8
View001
  6
ByLayer
 62
  256
370
   -1
100
AcDbLine
 10
220.9042221325228
 20
193.4321121890973
 11
250.9041996741346
 21
193.3165806228831
  0
LINE
  5
57
100
AcDbEntity
  8
View001
  6
ByLayer
 62
  256
370
   -1
100
AcDbLine
 10
291.3454570208734
 20
86.97025168528013
 11
271.3559496327869
 21
98.61411815057583
  0
LINE
  5
58
100
AcDbEntity
  8
View001
  6
ByLayer
 62
  256
370
   -1
100
AcDbLine
 10
250.9041996741346
 20
193.3165806228831
 11
250.8950727412499
 21
190.9465981969786
  0
LINE
  5
59
100
AcDbEntity
  8
View001
  6
ByLayer
 62
  256
370
   -1
100
AcDbLine
 10
309.0163126951876
 20
117.3062256994362
 11
291.3454570208734
 21
86.97025168528013
  0
LINE
  5
5A
100
AcDbEntity
  8
View001
  6
ByLayer
 62
  256
370
   -1
100
AcDbLine
 10
250.8950727412499
 20
190.9465981969786
 11
270.8949244366464
 21
190.869577666306
  0
LINE
  5
5B
100
AcDbEntity
  8
View001
  6
ByLayer
 62
  256
370
   -1
100
AcDbLine
 10
309.289912726296
 20
188.3516988769933
 11
309.0163126951876
 21
117.3062256994362
  0
LINE
  5
5C
100
AcDbEntity
  8
View001
  6
ByLayer
 62
  256
370
   -1
100
AcDbLine
 10
270.8949244366464
 20
190.869577666306
 11
270.8857975037617
 21
188.4995952404015
  0
LINE
  5
5D
100
AcDbEntity
  8
View001
  6
ByLayer
 62
  256
370
   -1
100
AcDbLine
 10
270.8857975037617
 20
188.4995952404015
 11
309.289912726296
 21
188.3516988769933
  0
LINE
  5
5E
100
AcDbEntity
  8
View001
  6
ByLayer
 62
  256
370
   -1
100
AcDbLine
 10
167.8617917246681
 20
182.5162990527393
 11
205.8615099459215
 21
182.3699600444614
  0
LINE
  5
5F
100
AcDbEntity
  8
View001
  6
ByLayer
 62
  256
370
   -1
100
AcDbLine
 10
205.8615099459215
 20
182.3699600444614
 11
205.8798023219562
 21
187.119924822118
  0
LINE
  5
60
100
AcDbEntity
  8
View001
  6
ByLayer
 62
  256
370
   -1
100
AcDbLine
 10
205.8798023219562
 20
187.119924822118
 11
224.8796614325829
 21
187.046755317979
  0
LINE
  5
61
100
AcDbEntity
  8
View001
  6
ByLayer
 62
  256
370
   -1
100
AcDbLine
 10
224.8796614325829
 20
187.046755317979
 11
224.8873634856502
 21
189.0467404875187
  0
LINE
  5
62
100
AcDbEntity
  8
View001
  6
ByLayer
 62
  256
370
   -1
100
AcDbLine
 10
224.8873634856502
 20
189.0467404875187
 11
246.8874003491033
 21
188.9620171335735
  0
LINE
  5
63
100
AcDbEntity
  8
View001
  6
ByLayer
 62
  256
370
   -1
100
AcDbLine
 10
246.8874003491033
 20
188.9620171335735
 11
246.8796982960361
 21
186.9620319640338
  0
LINE
  5
64
100
AcDbEntity
  8
View001
  6
ByLayer
 62
  256
370
   -1
100
AcDbLine
 10
246.8796982960361
 20
186.9620319640338
 11
266.8795499914326
 21
186.8850114333612
  0
LINE
  5
65
100
AcDbEntity
  8
View001
  6
ByLayer
 62
  256
370
   -1
100
AcDbLine
 10
266.8795499914326
 20
186.8850114333612
 11
266.8704230585479
 21
184.5150290074567
  0
LINE
  5
66
100
AcDbEntity
  8
View001
  6
ByLayer
 62
  256
370
   -1
100
AcDbLine
 10
266.8704230585479
 20
184.5150290074567
 11
305.2745382810821
 21
184.3671326440485
  0
LINE
  5
67
100
AcDbEntity
  8
View001
  6
ByLayer
 62
  256
370
   -1
100
AcDbLine
 10
305.2745382810821
 20
184.3671326440485
 11
305.0204706565524
 21
118.393621856444
  0
LINE
  5
68
100
AcDbEntity
  8
View001
  6
ByLayer
 62
  256
370
   -1
100
AcDbLine
 10
305.0204706565524
 20
118.393621856444
 11
289.9024102715942
 21
92.43994945566881
  0
LINE
  5
69
100
AcDbEntity
  8
View001
  6
ByLayer
 62
  256
370
   -1
100
AcDbLine
 10
289.9024102715942
 20
92.43994945566881
 11
272.6779203068655
 21
102.4730558213443
  0
LINE
  5
6A
100
AcDbEntity
  8
View001
  6
ByLayer
 62
  256
370
   -1
100
AcDbLine
 10
272.6779203068655
 20
102.4730558213443
 11
234.9627162310288
 21
107.5043353810577
  0
LINE
  5
6B
100
AcDbEntity
  8
View001
  6
ByLayer
 62
  256
370
   -1
100
AcDbLine
 10
234.9627162310288
 20
107.5043353810577
 11
224.3619243491586
 21
122.1982682707668
  0
LINE
  5
6C
100
AcDbEntity
  8
View001
  6
ByLayer
 62
  256
370
   -1
100
AcDbLine
 10
224.3619243491586
 20
122.1982682707668
 11
167.6303450299969
 21
122.4167447080728
  0
LINE
  5
6D
100
AcDbEntity
  8
View001
  6
ByLayer
 62
  256
370
   -1
100
AcDbLine
 10
167.6303450299969
 20
122.4167447080728
 11
167.8617917246681
 21
182.5162990527393
  0
LINE
  5
6E
100
AcDbEntity
  8
View001
  6
ByLayer
 62
  256
370
   -1
100
AcDbLine
 10
297.8968254329748
 20
114.1110234467632
 11
285.7995725231854
 21
121.1576625411537
  0
LINE
  5
6F
100
AcDbEntity
  8
View001
  6
ByLayer
 62
  256
370
   -1
100
AcDbLine
 10
290.8501874938922
 20
102.0140705347493
 11
297.8968254329748
 21
114.1110234467632
  0
LINE
  5
70
100
AcDbEntity
  8
View001
  6
ByLayer
 62
  256
370
   -1
100
AcDbLine
 10
278.7529345841029
 20
109.0607096291398
 11
290.8501874938922
 21
102.0140705347493
  0
LINE
  5
71
100
AcDbEntity
  8
View001
  6
ByLayer
 62
  256
370
   -1
100
AcDbLine
 10
285.7995725231854
 20
121.1576625411537
 11
278.7529345841029
 21
109.0607096291398
  0
CIRCLE
  5
72
100
AcDbEntity
  8
View001
  6
ByLayer
 62
  256
370
   -1
100
AcDbCircle
 10
277.8676835834615
 20
117.7221829810507
 40
1
  0
LINE
  5
73
100
AcDbEntity
  8
View001
  6
ByLayer
 62
  256
370
   -1
100
AcDbLine
 10
274.61997457902
 20
120.4007098564936
 11
261.1111309745941
 21
124.0767600304111
  0
LINE
  5
74
100
AcDbEntity
  8
View001
  6
ByLayer
 62
  256
370
   -1
100
AcDbLine
 10
270.9445240155508
 20
106.8917639421933
 11
274.61997457902
 21
120.4007098564936
  0
LINE
  5
75
100
AcDbEntity
  8
View001
  6
ByLayer
 62
  256
370
   -1
100
AcDbLine
 10
257.4355804118663
 20
110.5678145012134
 11
270.9445240155508
 21
106.8917639421933
  0
LINE
  5
76
100
AcDbEntity
  8
View001
  6
ByLayer
 62
  256
370
   -1
100
AcDbLine
 10
261.1111309745941
 20
124.0767600304111
 11
257.4355804118663
 21
110.5678145012134
  0
LINE
  5
77
100
AcDbEntity
  8
View001
  6
ByLayer
 62
  256
370
   -1
100
AcDbLine
 10
252.1423187470024
 20
125.3113083187345
 11
238.1424225602248
 21
125.3652226902053
  0
LINE
  5
78
100
AcDbEntity
  8
View001
  6
ByLayer
 62
  256
370
   -1
100
AcDbLine
 10
252.0884043755316
 20
111.3114121319569
 11
252.1423187470024
 21
125.3113083187345
  0
LINE
  5
79
100
AcDbEntity
  8
View001
  6
ByLayer
 62
  256
370
   -1
100
AcDbLine
 10
238.088508188754
 20
111.3653265034278
 11
252.0884043755316
 21
111.3114121319569
  0
LINE
  5
7A
100
AcDbEntity
  8
View001
  6
ByLayer
 62
  256
370
   -1
100
AcDbLine
 10
238.1424225602248
 20
125.3652226902053
 11
238.088508188754
 21
111.3653265034278
  0
LINE
  5
7B
100
AcDbEntity
  8
View001
  6
ByLayer
 62
  256
370
   -1
100
AcDbLine
 10
280.7085761309129
 20
142.4614260756532
 11
266.7086799441353
 21
142.515340447124
  0
LINE
  5
7C
100
AcDbEntity
  8
View001
  6
ByLayer
 62
  256
370
   -1
100
AcDbLine
 10
280.6546617594421
 20
128.4615298888756
 11
280.7085761309129
 21
142.4614260756532
  0
LINE
  5
7D
100
AcDbEntity
  8
View001
  6
ByLayer
 62
  256
370
   -1
100
AcDbLine
 10
266.6547655726645
 20
128.5154442603465
 11
280.6546617594421
 21
128.4615298888756
  0
LINE
  5
7E
100
AcDbEntity
  8
View001
  6
ByLayer
 62
  256
370
   -1
100
AcDbLine
 10
266.7086799441353
 20
142.515340447124
 11
266.6547655726645
 21
128.5154442603465
  0
LINE
  5
7F
100
AcDbEntity
  8
View001
  6
ByLayer
 62
  256
370
   -1
100
AcDbLine
 10
261.7178439531709
 20
144.9045780056967
 11
247.7179477663934
 21
144.9584923771675
  0
LINE
  5
80
100
AcDbEntity
  8
View001
  6
ByLayer
 62
  256
370
   -1
100
AcDbLine
 10
261.6639295817001
 20
130.9046818189191
 11
261.7178439531709
 21
144.9045780056967
  0
LINE
  5
81
100
AcDbEntity
  8
View001
  6
ByLayer
 62
  256
370
   -1
100
AcDbLine
 10
247.6640333949225
 20
130.95859619039
 11
261.6639295817001
 21
130.9046818189191
  0
LINE
  5
82
100
AcDbEntity
  8
View001
  6
ByLayer
 62
  256
370
   -1
100
AcDbLine
 10
247.7179477663934
 20
144.9584923771675
 11
247.6640333949225
 21
130.95859619039
  0
CIRCLE
  5
83
100
AcDbEntity
  8
View001
  6
ByLayer
 62
  256
370
   -1
100
AcDbCircle
 10
231.3935509004579
 20
125.6712150430429
 40
1
  0
LINE
  5
84
100
AcDbEntity
  8
View001
  6
ByLayer
 62
  256
370
   -1
100
AcDbLine
 10
242.7271117754289
 20
147.3477299357401
 11
228.7272155886514
 21
147.401644307211
  0
LINE
  5
85
100
AcDbEntity
  8
View001
  6
ByLayer
 62
  256
370
   -1
100
AcDbLine
 10
242.6731974039581
 20
133.3478337489626
 11
242.7271117754289
 21
147.3477299357401
  0
LINE
  5
86
100
AcDbEntity
  8
View001
  6
ByLayer
 62
  256
370
   -1
100
AcDbLine
 10
228.6733012171806
 20
133.4017481204334
 11
242.6731974039581
 21
133.3478337489626
  0
LINE
  5
87
100
AcDbEntity
  8
View001
  6
ByLayer
 62
  256
370
   -1
100
AcDbLine
 10
228.7272155886514
 20
147.401644307211
 11
228.6733012171806
 21
133.4017481204334
  0
LINE
  5
88
100
AcDbEntity
  8
View001
  6
ByLayer
 62
  256
370
   -1
100
AcDbLine
 10
223.7179257334006
 20
145.05091778418
 11
209.718029546623
 21
145.1048321556508
  0
LINE
  5
89
100
AcDbEntity
  8
View001
  6
ByLayer
 62
  256
370
   -1
100
AcDbLine
 10
223.6640113619297
 20
131.0510215974024
 11
223.7179257334006
 21
145.05091778418
  0
LINE
  5
8A
100
AcDbEntity
  8
View001
  6
ByLayer
 62
  256
370
   -1
100
AcDbLine
 10
209.6641151751522
 20
131.1049359688732
 11
223.6640113619297
 21
131.0510215974024
  0
LINE
  5
8B
100
AcDbEntity
  8
View001
  6
ByLayer
 62
  256
370
   -1
100
AcDbLine
 10
209.718029546623
 20
145.1048321556508
 11
209.6641151751522
 21
131.1049359688732
  0
LINE
  5
8C
100
AcDbEntity
  8
View001
  6
ByLayer
 62
  256
370
   -1
100
AcDbLine
 10
204.6997742467391
 20
140.3741225106623
 11
190.6998780599616
 21
140.4280368821331
  0
LINE
  5
8D
100
AcDbEntity
  8
View001
  6
ByLayer
 62
  256
370
   -1
100
AcDbLine
 10
204.6458598752683
 20
126.3742263238847
 11
204.6997742467391
 21
140.3741225106623
  0
LINE
  5
8E
100
AcDbEntity
  8
View001
  6
ByLayer
 62
  256
370
   -1
100
AcDbLine
 10
190.6459636884908
 20
126.4281406953556
 11
204.6458598752683
 21
126.3742263238847
  0
LINE
  5
8F
100
AcDbEntity
  8
View001
  6
ByLayer
 62
  256
370
   -1
100
AcDbLine
 10
190.6998780599616
 20
140.4280368821331
 11
190.6459636884908
 21
126.4281406953556
  0
LINE
  5
90
100
AcDbEntity
  8
View001
  6
ByLayer
 62
  256
370
   -1
100
AcDbLine
 10
185.6999151361125
 20
140.4472920148013
 11
171.7000189493349
 21
140.5012063862721
  0
LINE
  5
91
100
AcDbEntity
  8
View001
  6
ByLayer
 62
  256
370
   -1
100
AcDbLine
 10
185.6460007646416
 20
126.4473958280237
 11
185.6999151361125
 21
140.4472920148013
  0
LINE
  5
92
100
AcDbEntity
  8
View001
  6
ByLayer
 62
  256
370
   -1
100
AcDbLine
 10
171.6461045778641
 20
126.5013101994946
 11
185.6460007646416
 21
126.4473958280237
  0
LINE
  5
93
100
AcDbEntity
  8
View001
  6
ByLayer
 62
  256
370
   -1
100
AcDbLine
 10
171.7000189493349
 20
140.5012063862721
 11
171.6461045778641
 21
126.5013101994946
  0
CIRCLE
  5
94
100
AcDbEntity
  8
View001
  6
ByLayer
 62
  256
370
   -1
100
AcDbCircle
 10
188.2099092670245
 20
143.0376451688687
 40
1
  0
LINE
  5
95
100
AcDbEntity
  8
View001
  6
ByLayer
 62
  256
370
   -1
100
AcDbLine
 10
302.7649292528235
 20
181.876778748458
 11
283.3606731409159
 21
181.9515056077272
  0
LINE
  5
96
100
AcDbEntity
  8
View001
  6
ByLayer
 62
  256
370
   -1
100
AcDbLine
 10
283.3606731409159
 20
181.9515056077272
 11
283.1587330115453
 21
129.5138944475671
  0
LINE
  5
97
100
AcDbEntity
  8
View001
  6
ByLayer
 62
  256
370
   -1
100
AcDbLine
 10
302.520627831583
 20
118.4392491558298
 11
302.7649292528235
 21
181.876778748458
  0
LINE
  5
98
100
AcDbEntity
  8
View001
  6
ByLayer
 62
  256
370
   -1
100
AcDbLine
 10
283.1587330115453
 20
129.5138944475671
 11
302.520627831583
 21
118.4392491558298
  0
LINE
  5
99
100
AcDbEntity
  8
View001
  6
ByLayer
 62
  256
370
   -1
100
AcDbLine
 10
280.7817456350519
 20
161.4612851862799
 11
266.7818494482743
 21
161.5151995577507
  0
LINE
  5
9A
100
AcDbEntity
  8
View001
  6
ByLayer
 62
  256
370
   -1
100
AcDbLine
 10
280.727831263581
 20
147.4613889995023
 11
280.7817456350519
 21
161.4612851862799
  0
LINE
  5
9B
100
AcDbEntity
  8
View001
  6
ByLayer
 62
  256
370
   -1
100
AcDbLine
 10
266.7279350768035
 20
147.5153033709732
 11
280.727831263581
 21
147.4613889995023
  0
LINE
  5
9C
100
AcDbEntity
  8
View001
  6
ByLayer
 62
  256
370
   -1
100
AcDbLine
 10
266.7818494482743
 20
161.5151995577507
 11
266.7279350768035
 21
147.5153033709732
  0
LINE
  5
9D
100
AcDbEntity
  8
View001
  6
ByLayer
 62
  256
370
   -1
100
AcDbLine
 10
261.7910134573099
 20
163.9044371163234
 11
247.7911172705324
 21
163.9583514877942
  0
LINE
  5
9E
100
AcDbEntity
  8
View001
  6
ByLayer
 62
  256
370
   -1
100
AcDbLine
 10
261.7370990858391
 20
149.9045409295458
 11
261.7910134573099
 21
163.9044371163234
  0
LINE
  5
9F
100
AcDbEntity
  8
View001
  6
ByLayer
 62
  256
370
   -1
100
AcDbLine
 10
247.7372028990615
 20
149.9584553010166
 11
261.7370990858391
 21
149.9045409295458
  0
LINE
  5
A0
100
AcDbEntity
  8
View001
  6
ByLayer
 62
  256
370
   -1
100
AcDbLine
 10
247.7911172705324
 20
163.9583514877942
 11
247.7372028990615
 21
149.9584553010166
  0
LINE
  5
A1
100
AcDbEntity
  8
View001
  6
ByLayer
 62
  256
370
   -1
100
AcDbLine
 10
280.8549151391909
 20
180.4611442969066
 11
266.8550189524133
 21
180.5150586683774
  0
LINE
  5
A2
100
AcDbEntity
  8
View001
  6
ByLayer
 62
  256
370
   -1
100
AcDbLine
 10
280.80100076772
 20
166.461248110129
 11
280.8549151391909
 21
180.4611442969066
  0
LINE
  5
A3
100
AcDbEntity
  8
View001
  6
ByLayer
 62
  256
370
   -1
100
AcDbLine
 10
266.8011045809425
 20
166.5151624815998
 11
280.80100076772
 21
166.461248110129
  0
LINE
  5
A4
100
AcDbEntity
  8
View001
  6
ByLayer
 62
  256
370
   -1
100
AcDbLine
 10
266.8550189524133
 20
180.5150586683774
 11
266.8011045809425
 21
166.5151624815998
  0
CIRCLE
  5
A5
100
AcDbEntity
  8
View001
  6
ByLayer
 62
  256
370
   -1
100
AcDbCircle
 10
264.2963093358509
 20
165.2747993169716
 40
1
  0
LINE
  5
A6
100
AcDbEntity
  8
View001
  6
ByLayer
 62
  256
370
   -1
100
AcDbLine
 10
261.8641829614489
 20
182.90429622695
 11
247.8642867746713
 21
182.9582105984209
  0
LINE
  5
A7
100
AcDbEntity
  8
View001
  6
ByLayer
 62
  256
370
   -1
100
AcDbLine
 10
261.8102685899781
 20
168.9044000401725
 11
261.8641829614489
 21
182.90429622695
  0
LINE
  5
A8
100
AcDbEntity
  8
View001
  6
ByLayer
 62
  256
370
   -1
100
AcDbLine
 10
247.8103724032005
 20
168.9583144116433
 11
261.8102685899781
 21
168.9044000401725
  0
LINE
  5
A9
100
AcDbEntity
  8
View001
  6
ByLayer
 62
  256
370
   -1
100
AcDbLine
 10
247.8642867746713
 20
182.9582105984209
 11
247.8103724032005
 21
168.9583144116433
  0
LINE
  5
AA
100
AcDbEntity
  8
View001
  6
ByLayer
 62
  256
370
   -1
100
AcDbLine
 10
242.8002812795679
 20
166.3475890463668
 11
228.8003850927904
 21
166.4015034178377
  0
LINE
  5
AB
100
AcDbEntity
  8
View001
  6
ByLayer
 62
  256
370
   -1
100
AcDbLine
 10
242.7463669080971
 20
152.3476928595893
 11
242.8002812795679
 21
166.3475890463668
  0
LINE
  5
AC
100
AcDbEntity
  8
View001
  6
ByLayer
 62
  256
370
   -1
100
AcDbLine
 10
228.7464707213195
 20
152.4016072310601
 11
242.7463669080971
 21
152.3476928595893
  0
LINE
  5
AD
100
AcDbEntity
  8
View001
  6
ByLayer
 62
  256
370
   -1
100
AcDbLine
 10
228.8003850927904
 20
166.4015034178377
 11
228.7464707213195
 21
152.4016072310601
  0
LINE
  5
AE
100
AcDbEntity
  8
View001
  6
ByLayer
 62
  256
370
   -1
100
AcDbLine
 10
223.7910952375396
 20
164.0507768948067
 11
209.791199050762
 21
164.1046912662775
  0
LINE
  5
AF
100
AcDbEntity
  8
View001
  6
ByLayer
 62
  256
370
   -1
100
AcDbLine
 10
223.7371808660687
 20
150.0508807080291
 11
223.7910952375396
 21
164.0507768948067
  0
LINE
  5
B0
100
AcDbEntity
  8
View001
  6
ByLayer
 62
  256
370
   -1
100
AcDbLine
 10
209.7372846792912
 20
150.1047950794999
 11
223.7371808660687
 21
150.0508807080291
  0
LINE
  5
B1
100
AcDbEntity
  8
View001
  6
ByLayer
 62
  256
370
   -1
100
AcDbLine
 10
209.791199050762
 20
164.1046912662775
 11
209.7372846792912
 21
150.1047950794999
  0
LINE
  5
B2
100
AcDbEntity
  8
View001
  6
ByLayer
 62
  256
370
   -1
100
AcDbLine
 10
204.7729437508781
 20
159.373981621289
 11
190.7730475641006
 21
159.4278959927598
  0
LINE
  5
B3
100
AcDbEntity
  8
View001
  6
ByLayer
 62
  256
370
   -1
100
AcDbLine
 10
204.7190293794073
 20
145.3740854345114
 11
204.7729437508781
 21
159.373981621289
  0
LINE
  5
B4
100
AcDbEntity
  8
View001
  6
ByLayer
 62
  256
370
   -1
100
AcDbLine
 10
190.7191331926297
 20
145.4279998059823
 11
204.7190293794073
 21
145.3740854345114
  0
LINE
  5
B5
100
AcDbEntity
  8
View001
  6
ByLayer
 62
  256
370
   -1
100
AcDbLine
 10
190.7730475641006
 20
159.4278959927598
 11
190.7191331926297
 21
145.4279998059823
  0
LINE
  5
B6
100
AcDbEntity
  8
View001
  6
ByLayer
 62
  256
370
   -1
100
AcDbLine
 10
185.7730846402515
 20
159.447151125428
 11
171.7731884534739
 21
159.5010654968988
  0
LINE
  5
B7
100
AcDbEntity
  8
View001
  6
ByLayer
 62
  256
370
   -1
100
AcDbLine
 10
185.7191702687806
 20
145.4472549386504
 11
185.7730846402515
 21
159.447151125428
  0
LINE
  5
B8
100
AcDbEntity
  8
View001
  6
ByLayer
 62
  256
370
   -1
100
AcDbLine
 10
171.719274082003
 20
145.5011693101212
 11
185.7191702687806
 21
145.4472549386504
  0
LINE
  5
B9
100
AcDbEntity
  8
View001
  6
ByLayer
 62
  256
370
   -1
100
AcDbLine
 10
171.7731884534739
 20
159.5010654968988
 11
171.719274082003
 21
145.5011693101212
  0
CIRCLE
  5
BA
100
AcDbEntity
  8
View001
  6
ByLayer
 62
  256
370
   -1
100
AcDbCircle
 10
188.2823085658567
 20
161.8375057625415
 40
1
  0
LINE
  5
BB
100
AcDbEntity
  8
View001
  6
ByLayer
 62
  256
370
   -1
100
AcDbLine
 10
242.8734507837069
 20
185.3474481569936
 11
228.8735545969294
 21
185.4013625284644
  0
LINE
  5
BC
100
AcDbEntity
  8
View001
  6
ByLayer
 62
  256
370
   -1
100
AcDbLine
 10
242.8195364122361
 20
171.347551970216
 11
242.8734507837069
 21
185.3474481569936
  0
LINE
  5
BD
100
AcDbEntity
  8
View001
  6
ByLayer
 62
  256
370
   -1
100
AcDbLine
 10
228.8196402254585
 20
171.4014663416868
 11
242.8195364122361
 21
171.347551970216
  0
LINE
  5
BE
100
AcDbEntity
  8
View001
  6
ByLayer
 62
  256
370
   -1
100
AcDbLine
 10
228.8735545969294
 20
185.4013625284644
 11
228.8196402254585
 21
171.4014663416868
  0
LINE
  5
BF
100
AcDbEntity
  8
View001
  6
ByLayer
 62
  256
370
   -1
100
AcDbLine
 10
223.8642647416786
 20
183.0506360054333
 11
209.864368554901
 21
183.1045503769042
  0
LINE
  5
C0
100
AcDbEntity
  8
View001
  6
ByLayer
 62
  256
370
   -1
100
AcDbLine
 10
223.8103503702077
 20
169.0507398186558
 11
223.8642647416786
 21
183.0506360054333
  0
LINE
  5
C1
100
AcDbEntity
  8
View001
  6
ByLayer
 62
  256
370
   -1
100
AcDbLine
 10
209.8104541834302
 20
169.1046541901266
 11
223.8103503702077
 21
169.0507398186558
  0
LINE
  5
C2
100
AcDbEntity
  8
View001
  6
ByLayer
 62
  256
370
   -1
100
AcDbLine
 10
209.864368554901
 20
183.1045503769042
 11
209.8104541834302
 21
169.1046541901266
  0
LINE
  5
C3
100
AcDbEntity
  8
View001
  6
ByLayer
 62
  256
370
   -1
100
AcDbLine
 10
204.8461132550171
 20
178.3738407319157
 11
190.8462170682396
 21
178.4277551033865
  0
LINE
  5
C4
100
AcDbEntity
  8
View001
  6
ByLayer
 62
  256
370
   -1
100
AcDbLine
 10
204.7921988835463
 20
164.3739445451381
 11
204.8461132550171
 21
178.3738407319157
  0
LINE
  5
C5
100
AcDbEntity
  8
View001
  6
ByLayer
 62
  256
370
   -1
100
AcDbLine
 10
190.7923026967687
 20
164.427858916609
 11
204.7921988835463
 21
164.3739445451381
  0
LINE
  5
C6
100
AcDbEntity
  8
View001
  6
ByLayer
 62
  256
370
   -1
100
AcDbLine
 10
190.8462170682396
 20
178.4277551033865
 11
190.7923026967687
 21
164.427858916609
  0
LINE
  5
C7
100
AcDbEntity
  8
View001
  6
ByLayer
 62
  256
370
   -1
100
AcDbLine
 10
185.8462541443904
 20
178.4470102360547
 11
171.8463579576129
 21
178.5009246075255
  0
LINE
  5
C8
100
AcDbEntity
  8
View001
  6
ByLayer
 62
  256
370
   -1
100
AcDbLine
 10
185.7923397729196
 20
164.4471140492771
 11
185.8462541443904
 21
178.4470102360547
  0
LINE
  5
C9
100
AcDbEntity
  8
View001
  6
ByLayer
 62
  256
370
   -1
100
AcDbLine
 10
171.792443586142
 20
164.5010284207479
 11
185.7923397729196
 21
164.4471140492771
  0
LINE
  5
CA
100
AcDbEntity
  8
View001
  6
ByLayer
 62
  256
370
   -1
100
AcDbLine
 10
171.8463579576129
 20
178.5009246075255
 11
171.792443586142
 21
164.5010284207479
  0
ENDSEC
  0
SECTION
  2
OBJECTS
  0
DICTIONARY
  5
C
330
0
100
AcDbDictionary
281
    1
  3
ACAD_GROUP
350
D
  0
DICTIONARY
  5
D
330
C
100
AcDbDictionary
281
    1
  0
PLOTSETTINGS
  5
CB
100
AcDbPlotSettings
  6
1x1
 40
0
 41
0
 42
0
 43
0
  0
ENDSEC
  0
EOF
