<?xml version="1.0" encoding="UTF-8" standalone="no"?>
<svg
   xmlns:dc="http://purl.org/dc/elements/1.1/"
   xmlns:cc="http://creativecommons.org/ns#"
   xmlns:rdf="http://www.w3.org/1999/02/22-rdf-syntax-ns#"
   xmlns:svg="http://www.w3.org/2000/svg"
   xmlns="http://www.w3.org/2000/svg"
   width="210mm"
   height="297mm"
   viewBox="0 0 210 297"
   version="1.1"
   id="svg635">
  <defs
     id="defs629" />
  <metadata
     id="metadata632">
    <rdf:RDF>
      <cc:Work
         rdf:about="">
        <dc:format>image/svg+xml</dc:format>
        <dc:type
           rdf:resource="http://purl.org/dc/dcmitype/StillImage" />
        <dc:title></dc:title>
      </cc:Work>
    </rdf:RDF>
  </metadata>
  <g
     id="layer1">
    <path
       id="rect44"
       style="opacity:1;fill:#00ff00;fill-opacity:1;fill-rule:nonzero;stroke:none;stroke-width:1.13207;stroke-miterlimit:4;stroke-dasharray:none;stroke-opacity:1"
       d="M 7.7997327,9.3766349 H 33.199733 V 34.776636 H 7.7997327 Z" />
    <path
       id="rect267-7-8-6-7-4-3-92-4-1"
       style="opacity:1;fill:#000000;stroke-width:0.440412"
       d="M 14.878369,50.683926 H 212.87836 v 30.99999 H 14.878369 Z" />
    <g
       aria-label="1"
       id="text526-14-5-3"
       style="font-size:5.64444px;line-height:1.25;font-family:Arial;-inkscape-font-specification:Arial;letter-spacing:0px;word-spacing:0px;fill:#ffffff;stroke-width:0.264583"
       transform="translate(-321.99852,-411.76641)">
      <path
         d="m 436.62098,479.97876 h -0.49609 v -3.16122 q -0.17915,0.17088 -0.47129,0.34176 -0.28939,0.17087 -0.5209,0.25631 v -0.47956 q 0.41617,-0.19568 0.72761,-0.47404 0.31143,-0.27836 0.44097,-0.54019 h 0.3197 z"
         style="font-size:5.64444px;fill:#ffffff;stroke-width:0.264583"
         id="path5489" />
    </g>
    <path
       id="rect267-7-4-0-7-2"
       style="opacity:1;fill:#000000;stroke-width:0.431056"
       d="m 421.45956,86.975686 h 196 v 29.999994 h -196 z" />
    <g
       aria-label="2"
       id="text530-9-6"
       style="font-size:5.64444px;line-height:1.25;font-family:Arial;-inkscape-font-specification:Arial;letter-spacing:0px;word-spacing:0px;fill:#ffffff;stroke-width:0.264583"
       transform="translate(-321.99852,-411.76641)">
      <path
         d="m 842.79372,515.29371 v 0.4768 h -2.67063 q -0.006,-0.17915 0.0579,-0.34451 0.10198,-0.27285 0.32522,-0.53744 0.226,-0.26458 0.65043,-0.61184 0.65871,-0.5402 0.89022,-0.85439 0.23151,-0.31695 0.23151,-0.59807 0,-0.2949 -0.21222,-0.49609 -0.20946,-0.20395 -0.54846,-0.20395 -0.35829,0 -0.57326,0.21498 -0.21498,0.21497 -0.21773,0.59531 l -0.50988,-0.0524 q 0.0524,-0.57051 0.39412,-0.86816 0.34175,-0.30041 0.91777,-0.30041 0.58154,0 0.92053,0.32246 0.339,0.32246 0.339,0.79926 0,0.24253 -0.0992,0.4768 -0.0992,0.23427 -0.33073,0.49334 -0.22875,0.25907 -0.76343,0.71106 -0.44648,0.37483 -0.57326,0.50988 -0.12678,0.13229 -0.20947,0.26734 z"
         style="font-size:5.64444px;fill:#ffffff;stroke-width:0.264583"
         id="path5485" />
    </g>
    <path
       id="rect267-3-5-22-4"
       style="opacity:1;fill:#000000;stroke-width:0.421643"
       d="m 421.45956,123.26742 h 193.99998 v 29 H 421.45956 Z" />
    <g
       aria-label="3"
       id="text534-9-9-1"
       style="font-size:5.64444px;line-height:1.25;font-family:Arial;-inkscape-font-specification:Arial;letter-spacing:0px;word-spacing:0px;fill:#ffffff;stroke-width:0.264583"
       transform="translate(-321.99852,-411.76641)">
      <path
         d="m 839.13528,550.45983 0.49609,-0.0661 q 0.0854,0.42168 0.28939,0.60909 0.2067,0.18466 0.5016,0.18466 0.35002,0 0.5898,-0.24253 0.24254,-0.24254 0.24254,-0.60083 0,-0.34175 -0.22324,-0.56224 -0.22325,-0.22324 -0.56776,-0.22324 -0.14056,0 -0.35002,0.0551 l 0.0551,-0.43546 q 0.0496,0.006 0.0799,0.006 0.31695,0 0.57051,-0.16537 0.25356,-0.16536 0.25356,-0.50987 0,-0.27285 -0.18466,-0.452 -0.18466,-0.17914 -0.4768,-0.17914 -0.28939,0 -0.48231,0.1819 -0.19293,0.1819 -0.24805,0.5457 l -0.49609,-0.0882 q 0.091,-0.49885 0.41341,-0.77171 0.32246,-0.2756 0.80201,-0.2756 0.33073,0 0.6091,0.14331 0.27836,0.14056 0.42443,0.38585 0.14883,0.24529 0.14883,0.5209 0,0.26183 -0.14056,0.4768 -0.14056,0.21498 -0.41617,0.34176 0.35829,0.0827 0.55673,0.3445 0.19844,0.25908 0.19844,0.65044 0,0.52916 -0.38585,0.89848 -0.38585,0.36656 -0.97565,0.36656 -0.53192,0 -0.8847,-0.31695 -0.35002,-0.31695 -0.39963,-0.82131 z"
         style="font-size:5.64444px;fill:#ffffff;stroke-width:0.264583"
         id="path5481" />
    </g>
    <path
       id="rect267-7-8-6-7-4-3-92-4-1-9"
       style="opacity:1;fill:#000000;stroke-width:0.440412"
       d="M 14.878369,86.975686 H 212.87836 V 117.97567 H 14.878369 Z" />
    <g
       aria-label="1"
       id="text526-14-5-3-1"
       style="font-size:5.64444px;line-height:1.25;font-family:Arial;-inkscape-font-specification:Arial;letter-spacing:0px;word-spacing:0px;fill:#ffffff;stroke-width:0.264583"
       transform="translate(-321.99852,-411.76641)">
      <path
         d="m 436.62098,516.27051 h -0.49609 v -3.16122 q -0.17915,0.17088 -0.47129,0.34175 -0.28939,0.17088 -0.5209,0.25632 v -0.47956 q 0.41617,-0.19568 0.72761,-0.47404 0.31143,-0.27837 0.44097,-0.54019 h 0.3197 z"
         style="font-size:5.64444px;fill:#ffffff;stroke-width:0.264583"
         id="path5477" />
    </g>
    <path
       id="rect267-7-8-6-7-4-3-92-4-1-2"
       style="opacity:1;fill:#000000;stroke-width:0.440412"
       d="M 14.878369,123.26742 H 212.87836 V 154.2674 H 14.878369 Z" />
    <g
       aria-label="1"
       id="text526-14-5-3-9"
       style="font-size:5.64444px;line-height:1.25;font-family:Arial;-inkscape-font-specification:Arial;letter-spacing:0px;word-spacing:0px;fill:#ffffff;stroke-width:0.264583"
       transform="translate(-321.99852,-411.76641)">
      <path
         d="m 436.62098,552.56226 h -0.49609 v -3.16122 q -0.17915,0.17088 -0.47129,0.34175 -0.28939,0.17088 -0.5209,0.25632 v -0.47956 q 0.41617,-0.19568 0.72761,-0.47404 0.31143,-0.27837 0.44097,-0.5402 h 0.3197 z"
         style="font-size:5.64444px;fill:#ffffff;stroke-width:0.264583"
         id="path5473" />
    </g>
    <path
       id="rect267-7-8-6-7-4-3-92-4-1-3"
       style="opacity:1;fill:#000000;stroke-width:0.440412"
       d="M 14.878369,159.55918 H 212.87836 v 30.99998 H 14.878369 Z" />
    <g
       aria-label="1"
       id="text526-14-5-3-98"
       style="font-size:5.64444px;line-height:1.25;font-family:Arial;-inkscape-font-specification:Arial;letter-spacing:0px;word-spacing:0px;fill:#ffffff;stroke-width:0.264583"
       transform="translate(-321.99852,-411.76641)">
      <path
         d="m 436.62098,588.854 h -0.49609 v -3.16121 q -0.17915,0.17087 -0.47129,0.34175 -0.28939,0.17088 -0.5209,0.25631 v -0.47955 q 0.41617,-0.19568 0.72761,-0.47405 0.31143,-0.27836 0.44097,-0.54019 h 0.3197 z"
         style="font-size:5.64444px;fill:#ffffff;stroke-width:0.264583"
         id="path5469" />
    </g>
    <path
       id="rect267-7-8-6-7-4-3-92-4-1-8"
       style="opacity:1;fill:#000000;stroke-width:0.440412"
       d="M 14.878369,195.85091 H 212.87836 v 31.00001 H 14.878369 Z" />
    <g
       aria-label="1"
       id="text526-14-5-3-4"
       style="font-size:5.64444px;line-height:1.25;font-family:Arial;-inkscape-font-specification:Arial;letter-spacing:0px;word-spacing:0px;fill:#ffffff;stroke-width:0.264583"
       transform="translate(-321.99852,-411.76641)">
      <path
         d="m 436.62098,625.14575 h -0.49609 v -3.16122 q -0.17915,0.17088 -0.47129,0.34176 -0.28939,0.17087 -0.5209,0.25631 v -0.47955 q 0.41617,-0.19569 0.72761,-0.47405 0.31143,-0.27836 0.44097,-0.54019 h 0.3197 z"
         style="font-size:5.64444px;fill:#ffffff;stroke-width:0.264583"
         id="path5465" />
    </g>
    <path
       id="rect267-7-8-6-7-4-3-92-4-1-7"
       style="opacity:1;fill:#000000;stroke-width:0.440412"
       d="m 218.16901,50.683926 h 198.00002 v 30.99999 H 218.16901 Z" />
    <g
       aria-label="1"
       id="text526-14-5-3-2"
       style="font-size:5.64444px;line-height:1.25;font-family:Arial;-inkscape-font-specification:Arial;letter-spacing:0px;word-spacing:0px;fill:#ffffff;stroke-width:0.264583"
       transform="translate(-321.99852,-411.76641)">
      <path
         d="m 639.91154,479.97876 h -0.49609 v -3.16122 q -0.17915,0.17088 -0.47129,0.34176 -0.28939,0.17087 -0.5209,0.25631 v -0.47956 q 0.41617,-0.19568 0.7276,-0.47404 0.31144,-0.27836 0.44097,-0.54019 h 0.31971 z"
         style="font-size:5.64444px;fill:#ffffff;stroke-width:0.264583"
         id="path5461" />
    </g>
    <path
       id="rect267-7-8-6-7-4-3-92-4-1-9-5"
       style="opacity:1;fill:#000000;stroke-width:0.440412"
       d="M 218.16901,86.975686 H 416.16903 V 117.97567 H 218.16901 Z" />
    <g
       aria-label="1"
       id="text526-14-5-3-1-0"
       style="font-size:5.64444px;line-height:1.25;font-family:Arial;-inkscape-font-specification:Arial;letter-spacing:0px;word-spacing:0px;fill:#ffffff;stroke-width:0.264583"
       transform="translate(-321.99852,-411.76641)">
      <path
         d="m 639.91154,516.27051 h -0.49609 v -3.16122 q -0.17915,0.17088 -0.47129,0.34175 -0.28939,0.17088 -0.5209,0.25632 v -0.47956 q 0.41617,-0.19568 0.7276,-0.47404 0.31144,-0.27837 0.44097,-0.54019 h 0.31971 z"
         style="font-size:5.64444px;fill:#ffffff;stroke-width:0.264583"
         id="path5457" />
    </g>
    <path
       id="rect267-7-8-6-7-4-3-92-4-1-2-0"
       style="opacity:1;fill:#000000;stroke-width:0.440412"
       d="M 218.16901,123.26742 H 416.16903 V 154.2674 H 218.16901 Z" />
    <g
       aria-label="1"
       id="text526-14-5-3-9-9"
       style="font-size:5.64444px;line-height:1.25;font-family:Arial;-inkscape-font-specification:Arial;letter-spacing:0px;word-spacing:0px;fill:#ffffff;stroke-width:0.264583"
       transform="translate(-321.99852,-411.76641)">
      <path
         d="m 639.91154,552.56226 h -0.49609 v -3.16122 q -0.17915,0.17088 -0.47129,0.34175 -0.28939,0.17088 -0.5209,0.25632 v -0.47956 q 0.41617,-0.19568 0.7276,-0.47404 0.31144,-0.27837 0.44097,-0.5402 h 0.31971 z"
         style="font-size:5.64444px;fill:#ffffff;stroke-width:0.264583"
         id="path5453" />
    </g>
    <path
       id="rect267-7-8-6-7-4-3-92-4-1-3-5"
       style="opacity:1;fill:#000000;stroke-width:0.440412"
       d="m 218.16901,159.55918 h 198.00002 v 30.99998 H 218.16901 Z" />
    <g
       aria-label="1"
       id="text526-14-5-3-98-4"
       style="font-size:5.64444px;line-height:1.25;font-family:Arial;-inkscape-font-specification:Arial;letter-spacing:0px;word-spacing:0px;fill:#ffffff;stroke-width:0.264583"
       transform="translate(-321.99852,-411.76641)">
      <path
         d="m 639.91154,588.854 h -0.49609 v -3.16121 q -0.17915,0.17087 -0.47129,0.34175 -0.28939,0.17088 -0.5209,0.25631 v -0.47955 q 0.41617,-0.19568 0.7276,-0.47405 0.31144,-0.27836 0.44097,-0.54019 h 0.31971 z"
         style="font-size:5.64444px;fill:#ffffff;stroke-width:0.264583"
         id="path5449" />
    </g>
    <path
       id="rect267-7-8-6-7-4-3-92-4-1-8-1"
       style="opacity:1;fill:#000000;stroke-width:0.440412"
       d="m 218.16901,195.85091 h 198.00002 v 31.00001 H 218.16901 Z" />
    <g
       aria-label="1"
       id="text526-14-5-3-4-7"
       style="font-size:5.64444px;line-height:1.25;font-family:Arial;-inkscape-font-specification:Arial;letter-spacing:0px;word-spacing:0px;fill:#ffffff;stroke-width:0.264583"
       transform="translate(-321.99852,-411.76641)">
      <path
         d="m 639.91154,625.14575 h -0.49609 v -3.16122 q -0.17915,0.17088 -0.47129,0.34176 -0.28939,0.17087 -0.5209,0.25631 v -0.47955 q 0.41617,-0.19569 0.7276,-0.47405 0.31144,-0.27836 0.44097,-0.54019 h 0.31971 z"
         style="font-size:5.64444px;fill:#ffffff;stroke-width:0.264583"
         id="path5445" />
    </g>
    <path
       id="rect267-7-4-0-7-2-1"
       style="opacity:1;fill:#000000;stroke-width:0.431056"
       d="m 421.45956,50.683926 h 196 v 29.99999 h -196 z" />
    <g
       aria-label="2"
       id="text530-9-6-5"
       style="font-size:5.64444px;line-height:1.25;font-family:Arial;-inkscape-font-specification:Arial;letter-spacing:0px;word-spacing:0px;fill:#ffffff;stroke-width:0.264583"
       transform="translate(-321.99852,-411.76641)">
      <path
         d="m 842.79372,479.00196 v 0.4768 h -2.67063 q -0.006,-0.17915 0.0579,-0.34451 0.10198,-0.27285 0.32522,-0.53743 0.226,-0.26459 0.65043,-0.61185 0.65871,-0.54019 0.89022,-0.85439 0.23151,-0.31694 0.23151,-0.59806 0,-0.2949 -0.21222,-0.4961 -0.20946,-0.20395 -0.54846,-0.20395 -0.35829,0 -0.57326,0.21498 -0.21498,0.21497 -0.21773,0.59531 l -0.50988,-0.0524 q 0.0524,-0.5705 0.39412,-0.86816 0.34175,-0.30041 0.91777,-0.30041 0.58154,0 0.92053,0.32246 0.339,0.32246 0.339,0.79926 0,0.24254 -0.0992,0.4768 -0.0992,0.23427 -0.33073,0.49334 -0.22875,0.25907 -0.76343,0.71107 -0.44648,0.37482 -0.57326,0.50987 -0.12678,0.13229 -0.20947,0.26734 z"
         style="font-size:5.64444px;fill:#ffffff;stroke-width:0.264583"
         id="path5441" />
    </g>
    <path
       id="rect267-3-5-22-4-7"
       style="opacity:1;fill:#000000;stroke-width:0.421643"
       d="m 421.45956,159.55918 h 193.99998 v 29 H 421.45956 Z" />
    <g
       aria-label="3"
       id="text534-9-9-1-2"
       style="font-size:5.64444px;line-height:1.25;font-family:Arial;-inkscape-font-specification:Arial;letter-spacing:0px;word-spacing:0px;fill:#ffffff;stroke-width:0.264583"
       transform="translate(-321.99852,-411.76641)">
      <path
         d="m 839.13528,586.75158 0.49609,-0.0661 q 0.0854,0.42168 0.28939,0.60909 0.2067,0.18466 0.5016,0.18466 0.35002,0 0.5898,-0.24254 0.24254,-0.24253 0.24254,-0.60082 0,-0.34175 -0.22324,-0.56224 -0.22325,-0.22324 -0.56776,-0.22324 -0.14056,0 -0.35002,0.0551 l 0.0551,-0.43546 q 0.0496,0.006 0.0799,0.006 0.31695,0 0.57051,-0.16536 0.25356,-0.16537 0.25356,-0.50988 0,-0.27285 -0.18466,-0.45199 -0.18466,-0.17915 -0.4768,-0.17915 -0.28939,0 -0.48231,0.1819 -0.19293,0.18191 -0.24805,0.54571 l -0.49609,-0.0882 q 0.091,-0.49885 0.41341,-0.7717 0.32246,-0.27561 0.80201,-0.27561 0.33073,0 0.6091,0.14332 0.27836,0.14056 0.42443,0.38585 0.14883,0.24529 0.14883,0.5209 0,0.26183 -0.14056,0.4768 -0.14056,0.21497 -0.41617,0.34175 0.35829,0.0827 0.55673,0.34451 0.19844,0.25907 0.19844,0.65044 0,0.52916 -0.38585,0.89848 -0.38585,0.36655 -0.97565,0.36655 -0.53192,0 -0.8847,-0.31694 -0.35002,-0.31695 -0.39963,-0.82131 z"
         style="font-size:5.64444px;fill:#ffffff;stroke-width:0.264583"
         id="path5437" />
    </g>
    <path
       id="rect267-3-5-22-4-1"
       style="opacity:1;fill:#000000;stroke-width:0.421643"
       d="m 421.45956,195.85091 h 193.99998 v 29 H 421.45956 Z" />
    <g
       aria-label="3"
       id="text534-9-9-1-6"
       style="font-size:5.64444px;line-height:1.25;font-family:Arial;-inkscape-font-specification:Arial;letter-spacing:0px;word-spacing:0px;fill:#ffffff;stroke-width:0.264583"
       transform="translate(-321.99852,-411.76641)">
      <path
         d="m 839.13528,623.04332 0.49609,-0.0661 q 0.0854,0.42168 0.28939,0.60909 0.2067,0.18466 0.5016,0.18466 0.35002,0 0.5898,-0.24254 0.24254,-0.24253 0.24254,-0.60082 0,-0.34175 -0.22324,-0.56224 -0.22325,-0.22324 -0.56776,-0.22324 -0.14056,0 -0.35002,0.0551 l 0.0551,-0.43546 q 0.0496,0.006 0.0799,0.006 0.31695,0 0.57051,-0.16536 0.25356,-0.16537 0.25356,-0.50988 0,-0.27285 -0.18466,-0.45199 -0.18466,-0.17915 -0.4768,-0.17915 -0.28939,0 -0.48231,0.1819 -0.19293,0.1819 -0.24805,0.54571 l -0.49609,-0.0882 q 0.091,-0.49885 0.41341,-0.7717 0.32246,-0.27561 0.80201,-0.27561 0.33073,0 0.6091,0.14332 0.27836,0.14056 0.42443,0.38585 0.14883,0.24529 0.14883,0.5209 0,0.26182 -0.14056,0.4768 -0.14056,0.21497 -0.41617,0.34175 0.35829,0.0827 0.55673,0.34451 0.19844,0.25907 0.19844,0.65043 0,0.52917 -0.38585,0.89848 -0.38585,0.36656 -0.97565,0.36656 -0.53192,0 -0.8847,-0.31695 -0.35002,-0.31694 -0.39963,-0.82131 z"
         style="font-size:5.64444px;fill:#ffffff;stroke-width:0.264583"
         id="path5433" />
    </g>
  </g>
</svg>
