<?xml version="1.0" encoding="UTF-8" standalone="no"?>
<svg
   xmlns:dc="http://purl.org/dc/elements/1.1/"
   xmlns:cc="http://creativecommons.org/ns#"
   xmlns:rdf="http://www.w3.org/1999/02/22-rdf-syntax-ns#"
   xmlns:svg="http://www.w3.org/2000/svg"
   xmlns="http://www.w3.org/2000/svg"
   width="210mm"
   height="297mm"
   viewBox="0 0 210 297"
   version="1.1"
   id="svg465">
  <defs
     id="defs459" />
  <metadata
     id="metadata462">
    <rdf:RDF>
      <cc:Work
         rdf:about="">
        <dc:format>image/svg+xml</dc:format>
        <dc:type
           rdf:resource="http://purl.org/dc/dcmitype/StillImage" />
        <dc:title></dc:title>
      </cc:Work>
    </rdf:RDF>
  </metadata>
  <g
     id="layer1">
    <path
       id="rect44"
       style="opacity:1;fill:#00ff00;fill-opacity:1;fill-rule:nonzero;stroke:none;stroke-width:1.13207;stroke-miterlimit:4;stroke-dasharray:none;stroke-opacity:1"
       d="M 4.6459279,6.2228299 H 30.045928 V 31.622831 H 4.6459279 Z" />
    <path
       id="rect267-7-8-6-7-4-3-92"
       style="opacity:1;fill:#000000;stroke-width:0.363659"
       d="m 10.82193,46.74233 h 135 v 31 h -135 z" />
    <path
       id="rect267-7-4-0-7"
       style="opacity:1;fill:#000000;stroke-width:0.355084"
       d="m 291.40316,46.74233 h 133.00001 v 30 H 291.40316 Z" />
    <path
       id="rect267-3-5-22"
       style="opacity:1;fill:#000000;stroke-width:0.34648"
       d="m 291.40316,191.90801 h 131.00003 v 29 H 291.40316 Z" />
    <path
       id="rect267-3-5-7-3"
       style="opacity:1;fill:#000000;stroke-width:0.34648"
       d="m 291.40316,155.61641 h 131.00003 v 29 H 291.40316 Z" />
    <path
       id="rect267-3-5-5-3"
       style="opacity:1;fill:#000000;stroke-width:0.34648"
       d="m 291.40316,119.32563 h 131.00003 v 29 H 291.40316 Z" />
    <path
       id="rect267-7-4-0-1-0"
       style="opacity:1;fill:#000000;stroke-width:0.355084"
       d="m 291.40316,83.03394 h 133.00001 v 30.00001 H 291.40316 Z" />
    <g
       aria-label="1"
       id="text526-14"
       style="font-size:5.64444px;line-height:1.25;font-family:Arial;-inkscape-font-specification:Arial;letter-spacing:0px;word-spacing:0px;fill:#ffffff;stroke-width:0.264583"
       transform="translate(-326.05496,-204.08761)">
      <path
         d="m 405.12101,268.35837 h -0.49609 v -3.16122 q -0.17915,0.17088 -0.47129,0.34175 -0.28939,0.17088 -0.5209,0.25632 v -0.47956 q 0.41617,-0.19568 0.72761,-0.47404 0.31143,-0.27837 0.44097,-0.54019 h 0.3197 z"
         style="font-size:5.64444px;fill:#ffffff;stroke-width:0.264583"
         id="path5544" />
    </g>
    <g
       aria-label="2"
       id="text530-9"
       style="font-size:5.64444px;line-height:1.25;font-family:Arial;-inkscape-font-specification:Arial;letter-spacing:0px;word-spacing:0px;fill:#ffffff;stroke-width:0.264583"
       transform="translate(-326.05496,-204.08761)">
      <path
         d="m 685.29366,267.38157 v 0.4768 h -2.67063 q -0.006,-0.17915 0.0579,-0.34451 0.10198,-0.27285 0.32522,-0.53744 0.226,-0.26458 0.65043,-0.61184 0.6587,-0.54019 0.89021,-0.85439 0.23152,-0.31695 0.23152,-0.59807 0,-0.2949 -0.21222,-0.49609 -0.20946,-0.20395 -0.54846,-0.20395 -0.35829,0 -0.57326,0.21498 -0.21498,0.21497 -0.21773,0.59531 l -0.50988,-0.0524 q 0.0524,-0.57051 0.39412,-0.86816 0.34175,-0.30041 0.91777,-0.30041 0.58153,0 0.92053,0.32246 0.339,0.32246 0.339,0.79926 0,0.24253 -0.0992,0.4768 -0.0992,0.23427 -0.33073,0.49334 -0.22875,0.25907 -0.76343,0.71106 -0.44649,0.37483 -0.57326,0.50988 -0.12678,0.13229 -0.20947,0.26734 z"
         style="font-size:5.64444px;fill:#ffffff;stroke-width:0.264583"
         id="path5541" />
    </g>
    <g
       aria-label="3"
       id="text534-2"
       style="font-size:5.64444px;line-height:1.25;font-family:Arial;-inkscape-font-specification:Arial;letter-spacing:0px;word-spacing:0px;fill:#ffffff;stroke-width:0.264583"
       transform="translate(-326.05496,-204.08761)">
      <path
         d="m 681.63497,338.83895 0.49609,-0.0661 q 0.0854,0.42168 0.28939,0.60909 0.20671,0.18466 0.50161,0.18466 0.35002,0 0.5898,-0.24253 0.24253,-0.24254 0.24253,-0.60083 0,-0.34175 -0.22324,-0.56224 -0.22324,-0.22324 -0.56775,-0.22324 -0.14056,0 -0.35002,0.0551 l 0.0551,-0.43546 q 0.0496,0.006 0.0799,0.006 0.31694,0 0.5705,-0.16536 0.25356,-0.16536 0.25356,-0.50987 0,-0.27285 -0.18466,-0.452 -0.18465,-0.17914 -0.4768,-0.17914 -0.28938,0 -0.48231,0.1819 -0.19292,0.1819 -0.24805,0.5457 l -0.49609,-0.0882 q 0.091,-0.49884 0.41341,-0.7717 0.32246,-0.2756 0.80202,-0.2756 0.33073,0 0.60909,0.14331 0.27837,0.14056 0.42444,0.38585 0.14883,0.24529 0.14883,0.5209 0,0.26183 -0.14056,0.4768 -0.14056,0.21498 -0.41617,0.34176 0.35829,0.0827 0.55673,0.3445 0.19843,0.25908 0.19843,0.65044 0,0.52916 -0.38585,0.89848 -0.38585,0.36656 -0.97565,0.36656 -0.53192,0 -0.8847,-0.31695 -0.35002,-0.31695 -0.39963,-0.82131 z"
         style="font-size:5.64444px;fill:#ffffff;stroke-width:0.264583"
         id="path5538" />
    </g>
    <g
       aria-label="2"
       id="text530-2-8"
       style="font-size:5.64444px;line-height:1.25;font-family:Arial;-inkscape-font-specification:Arial;letter-spacing:0px;word-spacing:0px;fill:#ffffff;stroke-width:0.264583"
       transform="translate(-326.05496,-204.08761)">
      <path
         d="m 685.29366,303.67325 v 0.4768 h -2.67063 q -0.006,-0.17914 0.0579,-0.3445 0.10198,-0.27286 0.32522,-0.53744 0.226,-0.26458 0.65043,-0.61185 0.6587,-0.54019 0.89021,-0.85438 0.23152,-0.31695 0.23152,-0.59807 0,-0.2949 -0.21222,-0.49609 -0.20946,-0.20395 -0.54846,-0.20395 -0.35829,0 -0.57326,0.21497 -0.21498,0.21498 -0.21773,0.59531 l -0.50988,-0.0524 q 0.0524,-0.57051 0.39412,-0.86816 0.34175,-0.30042 0.91777,-0.30042 0.58153,0 0.92053,0.32246 0.339,0.32246 0.339,0.79927 0,0.24253 -0.0992,0.4768 -0.0992,0.23426 -0.33073,0.49333 -0.22875,0.25907 -0.76343,0.71107 -0.44649,0.37483 -0.57326,0.50987 -0.12678,0.1323 -0.20947,0.26734 z"
         style="font-size:5.64444px;fill:#ffffff;stroke-width:0.264583"
         id="path5535" />
    </g>
    <g
       aria-label="3"
       id="text534-3-2"
       style="font-size:5.64444px;line-height:1.25;font-family:Arial;-inkscape-font-specification:Arial;letter-spacing:0px;word-spacing:0px;fill:#ffffff;stroke-width:0.264583"
       transform="translate(-326.05496,-204.08761)">
      <path
         d="m 681.63497,375.12999 0.49609,-0.0661 q 0.0854,0.42168 0.28939,0.60909 0.20671,0.18466 0.50161,0.18466 0.35002,0 0.5898,-0.24254 0.24253,-0.24253 0.24253,-0.60082 0,-0.34175 -0.22324,-0.56224 -0.22324,-0.22324 -0.56775,-0.22324 -0.14056,0 -0.35002,0.0551 l 0.0551,-0.43546 q 0.0496,0.006 0.0799,0.006 0.31694,0 0.5705,-0.16536 0.25356,-0.16537 0.25356,-0.50988 0,-0.27285 -0.18466,-0.45199 -0.18465,-0.17915 -0.4768,-0.17915 -0.28938,0 -0.48231,0.1819 -0.19292,0.1819 -0.24805,0.54571 l -0.49609,-0.0882 q 0.091,-0.49885 0.41341,-0.7717 0.32246,-0.27561 0.80202,-0.27561 0.33073,0 0.60909,0.14332 0.27837,0.14056 0.42444,0.38585 0.14883,0.24529 0.14883,0.5209 0,0.26182 -0.14056,0.4768 -0.14056,0.21497 -0.41617,0.34175 0.35829,0.0827 0.55673,0.34451 0.19843,0.25907 0.19843,0.65043 0,0.52917 -0.38585,0.89848 -0.38585,0.36656 -0.97565,0.36656 -0.53192,0 -0.8847,-0.31695 -0.35002,-0.31694 -0.39963,-0.82131 z"
         style="font-size:5.64444px;fill:#ffffff;stroke-width:0.264583"
         id="path5532" />
    </g>
    <g
       aria-label="3"
       id="text534-9-9"
       style="font-size:5.64444px;line-height:1.25;font-family:Arial;-inkscape-font-specification:Arial;letter-spacing:0px;word-spacing:0px;fill:#ffffff;stroke-width:0.264583"
       transform="translate(-326.05496,-204.08761)">
      <path
         d="m 681.63497,411.42162 0.49609,-0.0661 q 0.0854,0.42168 0.28939,0.6091 0.20671,0.18465 0.50161,0.18465 0.35002,0 0.5898,-0.24253 0.24253,-0.24254 0.24253,-0.60083 0,-0.34175 -0.22324,-0.56223 -0.22324,-0.22325 -0.56775,-0.22325 -0.14056,0 -0.35002,0.0551 l 0.0551,-0.43546 q 0.0496,0.006 0.0799,0.006 0.31694,0 0.5705,-0.16537 0.25356,-0.16536 0.25356,-0.50987 0,-0.27285 -0.18466,-0.452 -0.18465,-0.17914 -0.4768,-0.17914 -0.28938,0 -0.48231,0.1819 -0.19292,0.1819 -0.24805,0.5457 l -0.49609,-0.0882 q 0.091,-0.49885 0.41341,-0.7717 0.32246,-0.27561 0.80202,-0.27561 0.33073,0 0.60909,0.14331 0.27837,0.14056 0.42444,0.38586 0.14883,0.24529 0.14883,0.52089 0,0.26183 -0.14056,0.4768 -0.14056,0.21498 -0.41617,0.34176 0.35829,0.0827 0.55673,0.34451 0.19843,0.25907 0.19843,0.65043 0,0.52917 -0.38585,0.89848 -0.38585,0.36656 -0.97565,0.36656 -0.53192,0 -0.8847,-0.31695 -0.35002,-0.31695 -0.39963,-0.82131 z"
         style="font-size:5.64444px;fill:#ffffff;stroke-width:0.264583"
         id="path5529" />
    </g>
    <path
       id="rect267-7-8-6-7-4-3-92-1"
       style="opacity:1;fill:#000000;stroke-width:0.363659"
       d="m 10.82193,83.03394 h 135 v 31 h -135 z" />
    <g
       aria-label="1"
       id="text526-14-1"
       style="font-size:5.64444px;line-height:1.25;font-family:Arial;-inkscape-font-specification:Arial;letter-spacing:0px;word-spacing:0px;fill:#ffffff;stroke-width:0.264583"
       transform="translate(-326.05496,-204.08761)">
      <path
         d="m 405.12101,304.65005 h -0.49609 v -3.16121 q -0.17915,0.17087 -0.47129,0.34175 -0.28939,0.17088 -0.5209,0.25632 v -0.47956 q 0.41617,-0.19568 0.72761,-0.47405 0.31143,-0.27836 0.44097,-0.54019 h 0.3197 z"
         style="font-size:5.64444px;fill:#ffffff;stroke-width:0.264583"
         id="path5525" />
    </g>
    <path
       id="rect267-7-8-6-7-4-3-92-2"
       style="opacity:1;fill:#000000;stroke-width:0.363659"
       d="m 10.82193,119.32563 h 135 v 31.00002 h -135 z" />
    <g
       aria-label="1"
       id="text526-14-15"
       style="font-size:5.64444px;line-height:1.25;font-family:Arial;-inkscape-font-specification:Arial;letter-spacing:0px;word-spacing:0px;fill:#ffffff;stroke-width:0.264583"
       transform="translate(-326.05496,-204.08761)">
      <path
         d="m 405.12101,340.94128 h -0.49609 v -3.16121 q -0.17915,0.17087 -0.47129,0.34175 -0.28939,0.17088 -0.5209,0.25632 v -0.47956 q 0.41617,-0.19568 0.72761,-0.47405 0.31143,-0.27836 0.44097,-0.54019 h 0.3197 z"
         style="font-size:5.64444px;fill:#ffffff;stroke-width:0.264583"
         id="path5521" />
    </g>
    <path
       id="rect267-7-8-6-7-4-3-92-0"
       style="opacity:1;fill:#000000;stroke-width:0.363659"
       d="m 10.82193,155.61641 h 135 v 30.99999 h -135 z" />
    <g
       aria-label="1"
       id="text526-14-3"
       style="font-size:5.64444px;line-height:1.25;font-family:Arial;-inkscape-font-specification:Arial;letter-spacing:0px;word-spacing:0px;fill:#ffffff;stroke-width:0.264583"
       transform="translate(-326.05496,-204.08761)">
      <path
         d="m 405.12101,377.23236 h -0.49609 v -3.16122 q -0.17915,0.17088 -0.47129,0.34176 -0.28939,0.17087 -0.5209,0.25631 v -0.47956 q 0.41617,-0.19568 0.72761,-0.47404 0.31143,-0.27836 0.44097,-0.54019 h 0.3197 z"
         style="font-size:5.64444px;fill:#ffffff;stroke-width:0.264583"
         id="path5517" />
    </g>
    <path
       id="rect267-7-8-6-7-4-3-92-4"
       style="opacity:1;fill:#000000;stroke-width:0.363659"
       d="m 10.82193,191.90801 h 135 V 222.908 h -135 z" />
    <g
       aria-label="1"
       id="text526-14-5"
       style="font-size:5.64444px;line-height:1.25;font-family:Arial;-inkscape-font-specification:Arial;letter-spacing:0px;word-spacing:0px;fill:#ffffff;stroke-width:0.264583"
       transform="translate(-326.05496,-204.08761)">
      <path
         d="m 405.12101,413.52405 h -0.49609 v -3.16122 q -0.17915,0.17088 -0.47129,0.34175 -0.28939,0.17088 -0.5209,0.25632 v -0.47956 q 0.41617,-0.19568 0.72761,-0.47404 0.31143,-0.27837 0.44097,-0.54019 h 0.3197 z"
         style="font-size:5.64444px;fill:#ffffff;stroke-width:0.264583"
         id="path5513" />
    </g>
    <path
       id="rect267-7-8-6-7-4-3-92-9"
       style="opacity:1;fill:#000000;stroke-width:0.363659"
       d="m 151.11261,46.74233 h 135 v 31 h -135 z" />
    <g
       aria-label="1"
       id="text526-14-8"
       style="font-size:5.64444px;line-height:1.25;font-family:Arial;-inkscape-font-specification:Arial;letter-spacing:0px;word-spacing:0px;fill:#ffffff;stroke-width:0.264583"
       transform="translate(-326.05496,-204.08761)">
      <path
         d="m 545.4116,268.35837 h -0.49609 v -3.16122 q -0.17915,0.17088 -0.47129,0.34175 -0.28939,0.17088 -0.5209,0.25632 v -0.47956 q 0.41617,-0.19568 0.7276,-0.47404 0.31144,-0.27837 0.44098,-0.54019 h 0.3197 z"
         style="font-size:5.64444px;fill:#ffffff;stroke-width:0.264583"
         id="path5509" />
    </g>
    <path
       id="rect267-7-8-6-7-4-3-92-1-9"
       style="opacity:1;fill:#000000;stroke-width:0.363659"
       d="m 151.11261,83.03394 h 135 v 31 h -135 z" />
    <g
       aria-label="1"
       id="text526-14-1-0"
       style="font-size:5.64444px;line-height:1.25;font-family:Arial;-inkscape-font-specification:Arial;letter-spacing:0px;word-spacing:0px;fill:#ffffff;stroke-width:0.264583"
       transform="translate(-326.05496,-204.08761)">
      <path
         d="m 545.4116,304.65005 h -0.49609 v -3.16121 q -0.17915,0.17087 -0.47129,0.34175 -0.28939,0.17088 -0.5209,0.25632 v -0.47956 q 0.41617,-0.19568 0.7276,-0.47405 0.31144,-0.27836 0.44098,-0.54019 h 0.3197 z"
         style="font-size:5.64444px;fill:#ffffff;stroke-width:0.264583"
         id="path5505" />
    </g>
    <path
       id="rect267-7-8-6-7-4-3-92-2-3"
       style="opacity:1;fill:#000000;stroke-width:0.363659"
       d="m 151.11261,119.32563 h 135 v 31.00002 h -135 z" />
    <g
       aria-label="1"
       id="text526-14-15-7"
       style="font-size:5.64444px;line-height:1.25;font-family:Arial;-inkscape-font-specification:Arial;letter-spacing:0px;word-spacing:0px;fill:#ffffff;stroke-width:0.264583"
       transform="translate(-326.05496,-204.08761)">
      <path
         d="m 545.4116,340.94128 h -0.49609 v -3.16121 q -0.17915,0.17087 -0.47129,0.34175 -0.28939,0.17088 -0.5209,0.25632 v -0.47956 q 0.41617,-0.19568 0.7276,-0.47405 0.31144,-0.27836 0.44098,-0.54019 h 0.3197 z"
         style="font-size:5.64444px;fill:#ffffff;stroke-width:0.264583"
         id="path5501" />
    </g>
    <path
       id="rect267-7-8-6-7-4-3-92-0-3"
       style="opacity:1;fill:#000000;stroke-width:0.363659"
       d="m 151.11261,155.61641 h 135 v 30.99999 h -135 z" />
    <g
       aria-label="1"
       id="text526-14-3-9"
       style="font-size:5.64444px;line-height:1.25;font-family:Arial;-inkscape-font-specification:Arial;letter-spacing:0px;word-spacing:0px;fill:#ffffff;stroke-width:0.264583"
       transform="translate(-326.05496,-204.08761)">
      <path
         d="m 545.4116,377.23236 h -0.49609 v -3.16122 q -0.17915,0.17088 -0.47129,0.34176 -0.28939,0.17087 -0.5209,0.25631 v -0.47956 q 0.41617,-0.19568 0.7276,-0.47404 0.31144,-0.27836 0.44098,-0.54019 h 0.3197 z"
         style="font-size:5.64444px;fill:#ffffff;stroke-width:0.264583"
         id="path5497" />
    </g>
    <path
       id="rect267-7-8-6-7-4-3-92-4-4"
       style="opacity:1;fill:#000000;stroke-width:0.363659"
       d="m 151.11261,191.90801 h 135 V 222.908 h -135 z" />
    <g
       aria-label="1"
       id="text526-14-5-5"
       style="font-size:5.64444px;line-height:1.25;font-family:Arial;-inkscape-font-specification:Arial;letter-spacing:0px;word-spacing:0px;fill:#ffffff;stroke-width:0.264583"
       transform="translate(-326.05496,-204.08761)">
      <path
         d="m 545.4116,413.52405 h -0.49609 v -3.16122 q -0.17915,0.17088 -0.47129,0.34175 -0.28939,0.17088 -0.5209,0.25632 v -0.47956 q 0.41617,-0.19568 0.7276,-0.47404 0.31144,-0.27837 0.44098,-0.54019 h 0.3197 z"
         style="font-size:5.64444px;fill:#ffffff;stroke-width:0.264583"
         id="path5493" />
    </g>
  </g>
</svg>
