<?xml version="1.0" encoding="UTF-8" standalone="no"?>
<svg
   xmlns:dc="http://purl.org/dc/elements/1.1/"
   xmlns:cc="http://creativecommons.org/ns#"
   xmlns:rdf="http://www.w3.org/1999/02/22-rdf-syntax-ns#"
   xmlns:svg="http://www.w3.org/2000/svg"
   xmlns="http://www.w3.org/2000/svg"
   width="210mm"
   height="297mm"
   viewBox="0 0 210 297"
   version="1.1"
   id="svg352">
  <defs
     id="defs346" />
  <metadata
     id="metadata349">
    <rdf:RDF>
      <cc:Work
         rdf:about="">
        <dc:format>image/svg+xml</dc:format>
        <dc:type
           rdf:resource="http://purl.org/dc/dcmitype/StillImage" />
        <dc:title></dc:title>
      </cc:Work>
    </rdf:RDF>
  </metadata>
  <g
     id="layer1">
    <path
       id="rect267-7-8-6-7-4-3-10"
       style="opacity:1;fill:#000000;stroke-width:0.265578"
       d="m 16.816141,45.708826 h 72 v 31.000002 h -72 z" />
    <path
       id="rect267-7-4-0-8"
       style="opacity:1;fill:#000000;stroke-width:0.257605"
       d="m 171.39964,82.0006 h 70 v 30.00001 h -70 z" />
    <path
       id="rect267-3-5-8"
       style="opacity:1;fill:#000000;stroke-width:0.249631"
       d="m 171.39964,118.29234 h 68 v 29 h -68 z" />
    <path
       id="rect267-3-5-7-4"
       style="opacity:1;fill:#000000;stroke-width:0.249631"
       d="m 171.39964,154.58404 h 68 v 29 h -68 z" />
    <path
       id="rect267-3-5-5-33"
       style="opacity:1;fill:#000000;stroke-width:0.249631"
       d="m 171.39964,190.87579 h 68 v 29 h -68 z" />
    <path
       id="rect267-7-4-0-1-7"
       style="opacity:1;fill:#000000;stroke-width:0.257605"
       d="m 171.39964,45.708826 h 70 v 30.000001 h -70 z" />
    <path
       id="rect267-7-8-6-7-4-3-1-8"
       style="opacity:1;fill:#000000;stroke-width:0.265578"
       d="m 16.816141,154.58404 h 72 v 31 h -72 z" />
    <path
       id="rect267-7-8-6-7-4-3-7-3"
       style="opacity:1;fill:#000000;stroke-width:0.265578"
       d="m 16.816141,118.29234 h 72 v 31 h -72 z" />
    <path
       id="rect267-7-8-6-7-4-3-9-8"
       style="opacity:1;fill:#000000;stroke-width:0.265578"
       d="m 16.816141,82.0006 h 72 v 31 h -72 z" />
    <path
       id="rect267-7-8-6-7-4-3-2-6"
       style="opacity:1;fill:#000000;stroke-width:0.265578"
       d="m 16.816141,190.87579 h 72 v 31 h -72 z" />
    <g
       aria-label="1"
       id="text526-2"
       style="font-size:5.64444px;line-height:1.25;font-family:Arial;-inkscape-font-specification:Arial;letter-spacing:0px;word-spacing:0px;fill:#ffffff;stroke-width:0.264583"
       transform="translate(-320.06075,5.4416872)">
      <path
         d="m 373.62101,57.795586 h -0.49609 v -3.161218 q -0.17915,0.170877 -0.47129,0.341754 -0.28939,0.170876 -0.5209,0.256315 V 54.75288 q 0.41617,-0.195682 0.72761,-0.474045 0.31143,-0.278364 0.44097,-0.540191 h 0.3197 z"
         style="font-size:5.64444px;fill:#ffffff;stroke-width:0.264583"
         id="path5420" />
    </g>
    <g
       aria-label="2"
       id="text530-6"
       style="font-size:5.64444px;line-height:1.25;font-family:Arial;-inkscape-font-specification:Arial;letter-spacing:0px;word-spacing:0px;fill:#ffffff;stroke-width:0.264583"
       transform="translate(-320.06075,5.4416872)">
      <path
         d="m 527.79592,93.110571 v 0.476801 h -2.67064 q -0.006,-0.179145 0.0579,-0.344509 0.10198,-0.272852 0.32522,-0.537435 0.226,-0.264583 0.65043,-0.611848 0.6587,-0.540191 0.89021,-0.854383 0.23151,-0.316949 0.23151,-0.598069 0,-0.2949 -0.21221,-0.496093 -0.20947,-0.203949 -0.54846,-0.203949 -0.35829,0 -0.57327,0.214973 -0.21497,0.214974 -0.21773,0.595312 l -0.50987,-0.05237 q 0.0524,-0.570507 0.39412,-0.868163 0.34175,-0.300413 0.91777,-0.300413 0.58153,0 0.92053,0.322461 0.339,0.322461 0.339,0.799262 0,0.242534 -0.0992,0.476801 -0.0992,0.234266 -0.33073,0.493337 -0.22875,0.259071 -0.76343,0.711067 -0.44649,0.374826 -0.57327,0.509874 -0.12678,0.132291 -0.20946,0.267339 z"
         style="font-size:5.64444px;fill:#ffffff;stroke-width:0.264583"
         id="path5417" />
    </g>
    <g
       aria-label="3"
       id="text534-92"
       style="font-size:5.64444px;line-height:1.25;font-family:Arial;-inkscape-font-specification:Arial;letter-spacing:0px;word-spacing:0px;fill:#ffffff;stroke-width:0.264583"
       transform="translate(-320.06075,5.4416872)">
      <path
         d="m 524.13747,200.86014 0.4961,-0.0661 q 0.0854,0.42168 0.28939,0.60909 0.2067,0.18466 0.5016,0.18466 0.35002,0 0.5898,-0.24254 0.24254,-0.24253 0.24254,-0.60082 0,-0.34176 -0.22325,-0.56224 -0.22324,-0.22324 -0.56775,-0.22324 -0.14056,0 -0.35002,0.0551 l 0.0551,-0.43546 q 0.0496,0.006 0.0799,0.006 0.31695,0 0.57051,-0.16537 0.25355,-0.16536 0.25355,-0.50987 0,-0.27285 -0.18465,-0.45199 -0.18466,-0.17915 -0.4768,-0.17915 -0.28939,0 -0.48232,0.1819 -0.19292,0.1819 -0.24804,0.5457 l -0.4961,-0.0882 q 0.0909,-0.49885 0.41341,-0.7717 0.32247,-0.27561 0.80202,-0.27561 0.33073,0 0.60909,0.14332 0.27837,0.14056 0.42444,0.38585 0.14883,0.24529 0.14883,0.5209 0,0.26182 -0.14056,0.4768 -0.14056,0.21497 -0.41617,0.34175 0.35829,0.0827 0.55673,0.34451 0.19844,0.25907 0.19844,0.65043 0,0.52917 -0.38586,0.89848 -0.38585,0.36656 -0.97565,0.36656 -0.53192,0 -0.8847,-0.31695 -0.35002,-0.31695 -0.39963,-0.82131 z"
         style="font-size:5.64444px;fill:#ffffff;stroke-width:0.264583"
         id="path5414" />
    </g>
    <g
       aria-label="1"
       id="text526-4-0"
       style="font-size:5.64444px;line-height:1.25;font-family:Arial;-inkscape-font-specification:Arial;letter-spacing:0px;word-spacing:0px;fill:#ffffff;stroke-width:0.264583"
       transform="translate(-320.06075,5.4416872)">
      <path
         d="m 373.62101,94.087372 h -0.49609 v -3.161217 q -0.17915,0.170876 -0.47129,0.341753 -0.28939,0.170876 -0.5209,0.256315 v -0.479557 q 0.41617,-0.195681 0.72761,-0.474045 0.31143,-0.278363 0.44097,-0.540191 h 0.3197 z"
         style="font-size:5.64444px;fill:#ffffff;stroke-width:0.264583"
         id="path5411" />
    </g>
    <g
       aria-label="1"
       id="text526-0-8"
       style="font-size:5.64444px;line-height:1.25;font-family:Arial;-inkscape-font-specification:Arial;letter-spacing:0px;word-spacing:0px;fill:#ffffff;stroke-width:0.264583"
       transform="translate(-320.06075,5.4416872)">
      <path
         d="m 373.62101,130.37904 h -0.49609 v -3.16121 q -0.17915,0.17087 -0.47129,0.34175 -0.28939,0.17088 -0.5209,0.25631 v -0.47955 q 0.41617,-0.19568 0.72761,-0.47405 0.31143,-0.27836 0.44097,-0.54019 h 0.3197 z"
         style="font-size:5.64444px;fill:#ffffff;stroke-width:0.264583"
         id="path5408" />
    </g>
    <g
       aria-label="1"
       id="text526-46-9"
       style="font-size:5.64444px;line-height:1.25;font-family:Arial;-inkscape-font-specification:Arial;letter-spacing:0px;word-spacing:0px;fill:#ffffff;stroke-width:0.264583"
       transform="translate(-320.06075,5.4416872)">
      <path
         d="m 373.62101,166.67076 h -0.49609 v -3.16122 q -0.17915,0.17088 -0.47129,0.34176 -0.28939,0.17087 -0.5209,0.25631 v -0.47955 q 0.41617,-0.19569 0.72761,-0.47405 0.31143,-0.27836 0.44097,-0.54019 h 0.3197 z"
         style="font-size:5.64444px;fill:#ffffff;stroke-width:0.264583"
         id="path5405" />
    </g>
    <g
       aria-label="1"
       id="text526-6-1"
       style="font-size:5.64444px;line-height:1.25;font-family:Arial;-inkscape-font-specification:Arial;letter-spacing:0px;word-spacing:0px;fill:#ffffff;stroke-width:0.264583"
       transform="translate(-320.06075,5.4416872)">
      <path
         d="m 373.62101,202.96262 h -0.49609 v -3.16122 q -0.17915,0.17088 -0.47129,0.34175 -0.28939,0.17088 -0.5209,0.25632 v -0.47956 q 0.41617,-0.19568 0.72761,-0.47404 0.31143,-0.27837 0.44097,-0.5402 h 0.3197 z"
         style="font-size:5.64444px;fill:#ffffff;stroke-width:0.264583"
         id="path5402" />
    </g>
    <g
       aria-label="2"
       id="text530-2-5"
       style="font-size:5.64444px;line-height:1.25;font-family:Arial;-inkscape-font-specification:Arial;letter-spacing:0px;word-spacing:0px;fill:#ffffff;stroke-width:0.264583"
       transform="translate(-320.06075,5.4416872)">
      <path
         d="m 527.79592,56.818785 v 0.476801 h -2.67064 q -0.006,-0.179145 0.0579,-0.34451 0.10198,-0.272851 0.32522,-0.537434 0.226,-0.264583 0.65043,-0.611849 0.6587,-0.54019 0.89021,-0.854383 0.23151,-0.316948 0.23151,-0.598068 0,-0.2949 -0.21221,-0.496093 -0.20947,-0.20395 -0.54846,-0.20395 -0.35829,0 -0.57327,0.214974 -0.21497,0.214974 -0.21773,0.595312 l -0.50987,-0.05236 q 0.0524,-0.570508 0.39412,-0.868164 0.34175,-0.300412 0.91777,-0.300412 0.58153,0 0.92053,0.322461 0.339,0.322461 0.339,0.799261 0,0.242535 -0.0992,0.476801 -0.0992,0.234267 -0.33073,0.493338 -0.22875,0.259071 -0.76343,0.711067 -0.44649,0.374826 -0.57327,0.509874 -0.12678,0.132291 -0.20946,0.267339 z"
         style="font-size:5.64444px;fill:#ffffff;stroke-width:0.264583"
         id="path5399" />
    </g>
    <g
       aria-label="3"
       id="text534-3-5"
       style="font-size:5.64444px;line-height:1.25;font-family:Arial;-inkscape-font-specification:Arial;letter-spacing:0px;word-spacing:0px;fill:#ffffff;stroke-width:0.264583"
       transform="translate(-320.06075,5.4416872)">
      <path
         d="m 524.13747,164.56833 0.4961,-0.0661 q 0.0854,0.42168 0.28939,0.60909 0.2067,0.18466 0.5016,0.18466 0.35002,0 0.5898,-0.24254 0.24254,-0.24253 0.24254,-0.60082 0,-0.34176 -0.22325,-0.56224 -0.22324,-0.22324 -0.56775,-0.22324 -0.14056,0 -0.35002,0.0551 l 0.0551,-0.43546 q 0.0496,0.006 0.0799,0.006 0.31695,0 0.57051,-0.16536 0.25355,-0.16537 0.25355,-0.50988 0,-0.27285 -0.18465,-0.45199 -0.18466,-0.17915 -0.4768,-0.17915 -0.28939,0 -0.48232,0.1819 -0.19292,0.1819 -0.24804,0.5457 l -0.4961,-0.0882 q 0.0909,-0.49885 0.41341,-0.7717 0.32247,-0.27561 0.80202,-0.27561 0.33073,0 0.60909,0.14332 0.27837,0.14056 0.42444,0.38585 0.14883,0.24529 0.14883,0.5209 0,0.26182 -0.14056,0.4768 -0.14056,0.21497 -0.41617,0.34175 0.35829,0.0827 0.55673,0.34451 0.19844,0.25907 0.19844,0.65043 0,0.52917 -0.38586,0.89848 -0.38585,0.36656 -0.97565,0.36656 -0.53192,0 -0.8847,-0.31695 -0.35002,-0.31695 -0.39963,-0.82131 z"
         style="font-size:5.64444px;fill:#ffffff;stroke-width:0.264583"
         id="path5396" />
    </g>
    <g
       aria-label="3"
       id="text534-9-0"
       style="font-size:5.64444px;line-height:1.25;font-family:Arial;-inkscape-font-specification:Arial;letter-spacing:0px;word-spacing:0px;fill:#ffffff;stroke-width:0.264583"
       transform="translate(-320.06075,5.4416872)">
      <path
         d="m 524.13747,128.27671 0.4961,-0.0662 q 0.0854,0.42168 0.28939,0.60909 0.2067,0.18466 0.5016,0.18466 0.35002,0 0.5898,-0.24253 0.24254,-0.24254 0.24254,-0.60083 0,-0.34175 -0.22325,-0.56224 -0.22324,-0.22324 -0.56775,-0.22324 -0.14056,0 -0.35002,0.0551 l 0.0551,-0.43546 q 0.0496,0.006 0.0799,0.006 0.31695,0 0.57051,-0.16536 0.25355,-0.16536 0.25355,-0.50987 0,-0.27286 -0.18465,-0.452 -0.18466,-0.17914 -0.4768,-0.17914 -0.28939,0 -0.48232,0.1819 -0.19292,0.1819 -0.24804,0.5457 l -0.4961,-0.0882 q 0.0909,-0.49885 0.41341,-0.7717 0.32247,-0.2756 0.80202,-0.2756 0.33073,0 0.60909,0.14331 0.27837,0.14056 0.42444,0.38585 0.14883,0.24529 0.14883,0.5209 0,0.26183 -0.14056,0.4768 -0.14056,0.21498 -0.41617,0.34175 0.35829,0.0827 0.55673,0.34451 0.19844,0.25907 0.19844,0.65044 0,0.52916 -0.38586,0.89848 -0.38585,0.36656 -0.97565,0.36656 -0.53192,0 -0.8847,-0.31695 -0.35002,-0.31695 -0.39963,-0.82131 z"
         style="font-size:5.64444px;fill:#ffffff;stroke-width:0.264583"
         id="path5393" />
    </g>
    <path
       id="rect267-7-8-6-7-4-3-10-1"
       style="opacity:1;fill:#000000;stroke-width:0.265578"
       d="M 94.107889,45.708826 H 166.10789 V 76.708828 H 94.107889 Z" />
    <path
       id="rect267-7-8-6-7-4-3-1-8-9"
       style="opacity:1;fill:#000000;stroke-width:0.265578"
       d="m 94.107889,154.58404 h 72.000001 v 31 H 94.107889 Z" />
    <path
       id="rect267-7-8-6-7-4-3-7-3-7"
       style="opacity:1;fill:#000000;stroke-width:0.265578"
       d="m 94.107889,118.29234 h 72.000001 v 31 H 94.107889 Z" />
    <path
       id="rect267-7-8-6-7-4-3-9-8-3"
       style="opacity:1;fill:#000000;stroke-width:0.265578"
       d="m 94.107889,82.0006 h 72.000001 v 31 H 94.107889 Z" />
    <path
       id="rect267-7-8-6-7-4-3-2-6-7"
       style="opacity:1;fill:#000000;stroke-width:0.265578"
       d="m 94.107889,190.87579 h 72.000001 v 31 H 94.107889 Z" />
    <g
       aria-label="1"
       id="text526-2-5"
       style="font-size:5.64444px;line-height:1.25;font-family:Arial;-inkscape-font-specification:Arial;letter-spacing:0px;word-spacing:0px;fill:#ffffff;stroke-width:0.264583"
       transform="translate(-320.06075,5.4416872)">
      <path
         d="m 450.91276,57.795586 h -0.49609 v -3.161218 q -0.17915,0.170877 -0.47129,0.341754 -0.28939,0.170876 -0.5209,0.256315 V 54.75288 q 0.41617,-0.195682 0.7276,-0.474045 0.31144,-0.278364 0.44098,-0.540191 h 0.3197 z"
         style="font-size:5.64444px;fill:#ffffff;stroke-width:0.264583"
         id="path5385" />
    </g>
    <g
       aria-label="1"
       id="text526-4-0-5"
       style="font-size:5.64444px;line-height:1.25;font-family:Arial;-inkscape-font-specification:Arial;letter-spacing:0px;word-spacing:0px;fill:#ffffff;stroke-width:0.264583"
       transform="translate(-320.06075,5.4416872)">
      <path
         d="m 450.91276,94.087372 h -0.49609 v -3.161217 q -0.17915,0.170876 -0.47129,0.341753 -0.28939,0.170876 -0.5209,0.256315 v -0.479557 q 0.41617,-0.195681 0.7276,-0.474045 0.31144,-0.278363 0.44098,-0.540191 h 0.3197 z"
         style="font-size:5.64444px;fill:#ffffff;stroke-width:0.264583"
         id="path5382" />
    </g>
    <g
       aria-label="1"
       id="text526-0-8-0"
       style="font-size:5.64444px;line-height:1.25;font-family:Arial;-inkscape-font-specification:Arial;letter-spacing:0px;word-spacing:0px;fill:#ffffff;stroke-width:0.264583"
       transform="translate(-320.06075,5.4416872)">
      <path
         d="m 450.91276,130.37904 h -0.49609 v -3.16121 q -0.17915,0.17087 -0.47129,0.34175 -0.28939,0.17088 -0.5209,0.25631 v -0.47955 q 0.41617,-0.19568 0.7276,-0.47405 0.31144,-0.27836 0.44098,-0.54019 h 0.3197 z"
         style="font-size:5.64444px;fill:#ffffff;stroke-width:0.264583"
         id="path5379" />
    </g>
    <g
       aria-label="1"
       id="text526-46-9-5"
       style="font-size:5.64444px;line-height:1.25;font-family:Arial;-inkscape-font-specification:Arial;letter-spacing:0px;word-spacing:0px;fill:#ffffff;stroke-width:0.264583"
       transform="translate(-320.06075,5.4416872)">
      <path
         d="m 450.91276,166.67076 h -0.49609 v -3.16122 q -0.17915,0.17088 -0.47129,0.34176 -0.28939,0.17087 -0.5209,0.25631 v -0.47955 q 0.41617,-0.19569 0.7276,-0.47405 0.31144,-0.27836 0.44098,-0.54019 h 0.3197 z"
         style="font-size:5.64444px;fill:#ffffff;stroke-width:0.264583"
         id="path5376" />
    </g>
    <g
       aria-label="1"
       id="text526-6-1-9"
       style="font-size:5.64444px;line-height:1.25;font-family:Arial;-inkscape-font-specification:Arial;letter-spacing:0px;word-spacing:0px;fill:#ffffff;stroke-width:0.264583"
       transform="translate(-320.06075,5.4416872)">
      <path
         d="m 450.91276,202.96262 h -0.49609 v -3.16122 q -0.17915,0.17088 -0.47129,0.34175 -0.28939,0.17088 -0.5209,0.25632 v -0.47956 q 0.41617,-0.19568 0.7276,-0.47404 0.31144,-0.27837 0.44098,-0.5402 h 0.3197 z"
         style="font-size:5.64444px;fill:#ffffff;stroke-width:0.264583"
         id="path5373" />
    </g>
    <path
       id="rect44"
       style="opacity:1;fill:#00ff00;fill-opacity:1;fill-rule:nonzero;stroke:none;stroke-width:1.13207;stroke-miterlimit:4;stroke-dasharray:none;stroke-opacity:1"
       d="m 10.904768,11.505787 h 25.4 v 25.400001 h -25.4 z" />
  </g>
</svg>
