<?xml version="1.0" encoding="UTF-8" standalone="no"?>
<svg
   xmlns:dc="http://purl.org/dc/elements/1.1/"
   xmlns:cc="http://creativecommons.org/ns#"
   xmlns:rdf="http://www.w3.org/1999/02/22-rdf-syntax-ns#"
   xmlns:svg="http://www.w3.org/2000/svg"
   xmlns="http://www.w3.org/2000/svg"
   width="210mm"
   height="297mm"
   viewBox="0 0 210 297"
   version="1.1"
   id="svg63">
  <defs
     id="defs57" />
  <metadata
     id="metadata60">
    <rdf:RDF>
      <cc:Work
         rdf:about="">
        <dc:format>image/svg+xml</dc:format>
        <dc:type
           rdf:resource="http://purl.org/dc/dcmitype/StillImage" />
        <dc:title></dc:title>
      </cc:Work>
    </rdf:RDF>
  </metadata>
  <g
     id="layer1">
    <path
       id="rect501-0"
       style="opacity:1;fill:#ff0000;stroke-width:0.372443"
       d="M 8.8101529,248.62833 V 305.8822 H 37.809932 v -57.25387 z m 4.9996941,4.9997 h 19.00039 v 47.25395 h -19.00039 z" />
    <path
       id="rect44"
       style="opacity:1;fill:#00ff00;fill-opacity:1;fill-rule:nonzero;stroke:none;stroke-width:1.13207;stroke-miterlimit:4;stroke-dasharray:none;stroke-opacity:1"
       d="M 6.5182695,6.5182695 H 31.918269 V 31.918269 H 6.5182695 Z" />
    <path
       id="rect107"
       style="opacity:1;fill:#000000;stroke-width:0.232958"
       d="m 45.101597,37.209942 h 28 V 174.71699 h -28 z" />
    <path
       id="rect136"
       style="opacity:1;fill:#000000;stroke-width:0.639785"
       d="m 45.101597,185.82935 h 28 v 57.25349 h -28 z" />
    <path
       id="rect107-7"
       style="opacity:1;fill:#000000;stroke-width:0.232958"
       d="m 143.68492,37.209942 h 28 V 174.71699 h -28 z" />
    <path
       id="rect501"
       style="opacity:1;fill:#000000;stroke-width:0.372443"
       d="m 44.101602,248.3746 h 29 v 57.254 h -29 z" />
    <path
       id="rect501-1"
       style="opacity:1;fill:#000000;stroke-width:0.372442"
       d="m 143.68497,248.37482 h 29 v 57.254 h -29 z" />
    <path
       id="rect136-0"
       style="opacity:1;fill:#000000;stroke-width:0.639786"
       d="m 143.68492,185.82935 h 28 v 57.25349 h -28 z" />
    <path
       id="rect717-1"
       style="opacity:1;fill:#000000;stroke-width:0.330343"
       d="m 78.393272,185.82935 h 59.999998 v 25 H 78.393272 Z" />
    <path
       id="rect717-1-6"
       style="opacity:1;fill:#000000;stroke-width:0.330343"
       d="m 78.393272,218.08286 h 59.999998 v 25 H 78.393272 Z" />
    <path
       id="rect136-8"
       style="opacity:1;fill:#000000;stroke-width:0.639786"
       d="M 11.809932,185.82935 H 39.80993 v 57.25349 H 11.809932 Z" />
    <path
       id="rect136-7"
       style="opacity:1;fill:#000000;stroke-width:0.639786"
       d="m 176.97652,185.82935 h 27.99999 v 57.25349 h -27.99999 z" />
    <path
       id="rect107-7-66"
       style="opacity:1;fill:#000000;stroke-width:0.232958"
       d="m 176.97652,37.209942 h 27.99999 V 174.71699 h -27.99999 z" />
    <path
       id="rect107-7-663"
       style="opacity:1;fill:#000000;stroke-width:0.232958"
       d="M 11.809932,37.209942 H 39.80993 V 174.71699 H 11.809932 Z" />
    <path
       id="rect943"
       style="opacity:1;fill:#000000;stroke-width:0.513138"
       d="m 78.393272,248.3746 h 59.999998 v 57.25351 H 78.393272 Z" />
    <path
       id="rect153-6"
       style="opacity:1;fill:#000000;stroke-width:0.361618"
       d="m 78.393265,37.209942 h 59.999995 v 23.5 H 78.393265 Z" />
    <path
       id="rect153-6-1"
       style="opacity:1;fill:#000000;stroke-width:0.361617"
       d="m 78.393265,66.00161 h 59.999995 v 23.5 H 78.393265 Z" />
    <path
       id="rect153-6-7"
       style="opacity:1;fill:#000000;stroke-width:0.361617"
       d="M 78.393265,94.793289 H 138.39326 V 118.29329 H 78.393265 Z" />
    <path
       id="rect153-6-8"
       style="opacity:1;fill:#000000;stroke-width:0.361617"
       d="m 78.393265,123.5849 h 59.999995 v 23.5 H 78.393265 Z" />
    <path
       id="rect153-6-2"
       style="opacity:1;fill:#000000;stroke-width:0.361617"
       d="m 78.393265,152.37645 h 59.999995 v 23.5 H 78.393265 Z" />
    <path
       id="rect153-6-0"
       style="opacity:1;fill:#000000;stroke-width:0.874737"
       transform="scale(-1)"
       d="m -270.26813,-174.71695 h 60 V -37.2099 h -60 z" />
    <g
       aria-label="TOP TOP"
       id="text664"
       style="font-size:4.23333px;line-height:1.25;font-family:Arial;-inkscape-font-specification:Arial;letter-spacing:0px;word-spacing:0px;fill:#ffffff;stroke-width:0.264583">
      <path
         id="path5705"
         style="fill:#ffffff;stroke-width:0.264583"
         d="M 115.07605,50.476124 V 47.44582 h 1.14308 q 0.30179,0 0.46096,0.02894 0.22324,0.03721 0.37414,0.142627 0.15089,0.103353 0.24184,0.291455 0.093,0.188102 0.093,0.413411 0,0.386539 -0.24598,0.655257 -0.24598,0.26665 -0.88884,0.26665 h -0.77721 v 1.231965 z m 0.40101,-1.589566 h 0.78342 q 0.3886,0 0.5519,-0.144694 0.1633,-0.144694 0.1633,-0.40721 0,-0.190169 -0.0971,-0.324527 -0.0951,-0.136426 -0.25219,-0.179834 -0.10128,-0.02687 -0.37413,-0.02687 h -0.77515 z m -3.81578,0.113688 q 0,-0.754475 0.40514,-1.180289 0.40514,-0.42788 1.04593,-0.42788 0.41961,0 0.75654,0.200504 0.33693,0.200505 0.51263,0.560172 0.17777,0.357601 0.17777,0.812353 0,0.460954 -0.18604,0.824755 -0.18603,0.363802 -0.5271,0.551904 -0.34106,0.186035 -0.73587,0.186035 -0.42788,0 -0.76481,-0.206705 -0.33693,-0.206706 -0.51056,-0.564307 -0.17363,-0.3576 -0.17363,-0.756542 z m 0.41341,0.0062 q 0,0.54777 0.29352,0.86403 0.29559,0.314192 0.74001,0.314192 0.45268,0 0.74414,-0.318327 0.29352,-0.318326 0.29352,-0.903303 0,-0.370003 -0.12609,-0.644921 -0.12403,-0.276986 -0.36587,-0.427881 -0.23978,-0.152962 -0.5395,-0.152962 -0.42582,0 -0.73381,0.293522 -0.30592,0.291455 -0.30592,0.97565 z m -2.02985,1.469678 v -2.672703 h -0.99839 V 47.44582 h 2.40192 v 0.357601 h -1.00252 v 2.672703 z m -4.6178,0 V 47.44582 h 1.14308 q 0.30179,0 0.46095,0.02894 0.22324,0.03721 0.37414,0.142627 0.15089,0.103353 0.24185,0.291455 0.093,0.188102 0.093,0.413411 0,0.386539 -0.24598,0.655257 -0.24598,0.26665 -0.88883,0.26665 h -0.77721 v 1.231965 z m 0.40101,-1.589566 h 0.78341 q 0.38861,0 0.5519,-0.144694 0.1633,-0.144694 0.1633,-0.40721 0,-0.190169 -0.0971,-0.324527 -0.0951,-0.136426 -0.25218,-0.179834 -0.10129,-0.02687 -0.37414,-0.02687 h -0.77514 z m -3.81579,0.113688 q 0,-0.754475 0.40514,-1.180289 0.40515,-0.42788 1.04593,-0.42788 0.41962,0 0.75655,0.200504 0.33693,0.200505 0.51263,0.560172 0.17776,0.357601 0.17776,0.812353 0,0.460954 -0.18603,0.824755 -0.18604,0.363802 -0.5271,0.551904 -0.34106,0.186035 -0.73587,0.186035 -0.42788,0 -0.76481,-0.206705 -0.33693,-0.206706 -0.51057,-0.564307 -0.17363,-0.3576 -0.17363,-0.756542 z m 0.41341,0.0062 q 0,0.54777 0.29352,0.86403 0.29559,0.314192 0.74001,0.314192 0.45269,0 0.74414,-0.318327 0.29352,-0.318326 0.29352,-0.903303 0,-0.370003 -0.12609,-0.644921 -0.12402,-0.276986 -0.36587,-0.427881 -0.23978,-0.152962 -0.5395,-0.152962 -0.42581,0 -0.7338,0.293522 -0.30593,0.291455 -0.30593,0.97565 z m -2.02985,1.469678 V 47.803421 H 99.397436 V 47.44582 h 2.401914 v 0.357601 h -1.00252 v 2.672703 z" />
    </g>
    <g
       aria-label="SHELF"
       id="text664-3"
       style="font-size:4.23333px;line-height:1.25;font-family:Arial;-inkscape-font-specification:Arial;letter-spacing:0px;word-spacing:0px;fill:#ffffff;stroke-width:0.264583">
      <path
         id="path5692"
         style="fill:#ffffff;stroke-width:0.264583"
         d="m 112.97905,79.266762 v -3.030304 h 2.04432 v 0.357601 h -1.64331 v 0.938443 h 1.42213 v 0.357601 h -1.42213 v 1.376659 z m -2.39158,0 v -3.030304 h 0.401 v 2.672703 h 1.49242 v 0.357601 z m -2.7988,0 v -3.030304 h 2.19108 v 0.357601 h -1.79007 v 0.928108 h 1.67638 V 77.8777 h -1.67638 v 1.031461 h 1.86035 v 0.357601 z m -3.05304,0 v -3.030304 h 0.40101 v 1.244368 h 1.5751 v -1.244368 h 0.40101 v 3.030304 h -0.40101 v -1.428336 h -1.5751 v 1.428336 z m -2.97242,-0.973583 0.37827,-0.03307 q 0.0269,0.227376 0.12402,0.374137 0.0992,0.144694 0.30592,0.235644 0.20671,0.08888 0.46509,0.08888 0.22944,0 0.40514,-0.06821 0.1757,-0.06821 0.26045,-0.186035 0.0868,-0.11989 0.0868,-0.260449 0,-0.142627 -0.0827,-0.248047 -0.0827,-0.107487 -0.27285,-0.179834 -0.12196,-0.04754 -0.53951,-0.146761 -0.41754,-0.101285 -0.58497,-0.190169 -0.21704,-0.113688 -0.32453,-0.281119 -0.10542,-0.169499 -0.10542,-0.378272 0,-0.229443 0.13022,-0.42788 0.13023,-0.200504 0.38034,-0.303857 0.25012,-0.103353 0.55604,-0.103353 0.33693,0 0.59325,0.109554 0.25838,0.107487 0.39687,0.318326 0.13849,0.21084 0.14883,0.47749 L 103.7,77.119094 q -0.031,-0.287321 -0.21084,-0.434082 -0.17777,-0.146761 -0.5271,-0.146761 -0.3638,0 -0.53124,0.134359 -0.16536,0.132292 -0.16536,0.320394 0,0.163297 0.11782,0.268717 0.11576,0.10542 0.60358,0.217041 0.48989,0.109554 0.6718,0.192236 0.26458,0.121956 0.39067,0.310058 0.12609,0.186035 0.12609,0.429948 0,0.241845 -0.13849,0.456819 -0.1385,0.212907 -0.39895,0.332796 -0.25838,0.117822 -0.5829,0.117822 -0.41135,0 -0.6904,-0.119889 -0.27699,-0.119889 -0.43615,-0.359668 -0.1571,-0.241845 -0.16536,-0.545702 z" />
    </g>
    <g
       aria-label="SHELF"
       id="text664-1"
       style="font-size:4.23333px;line-height:1.25;font-family:Arial;-inkscape-font-specification:Arial;letter-spacing:0px;word-spacing:0px;fill:#ffffff;stroke-width:0.264583">
      <path
         id="path5681"
         style="fill:#ffffff;stroke-width:0.264583"
         d="m 112.97905,108.05841 v -3.0303 h 2.04432 v 0.3576 h -1.64331 v 0.93844 h 1.42213 v 0.3576 h -1.42213 v 1.37666 z m -2.39158,0 v -3.0303 h 0.401 v 2.6727 h 1.49242 v 0.3576 z m -2.7988,0 v -3.0303 h 2.19108 v 0.3576 h -1.79007 v 0.92811 h 1.67638 v 0.35553 h -1.67638 v 1.03146 h 1.86035 v 0.3576 z m -3.05304,0 v -3.0303 h 0.40101 v 1.24436 h 1.5751 v -1.24436 h 0.40101 v 3.0303 h -0.40101 v -1.42833 h -1.5751 v 1.42833 z m -2.97242,-0.97358 0.37827,-0.0331 q 0.0269,0.22738 0.12402,0.37414 0.0992,0.1447 0.30592,0.23565 0.20671,0.0889 0.46509,0.0889 0.22944,0 0.40514,-0.0682 0.1757,-0.0682 0.26045,-0.18604 0.0868,-0.11989 0.0868,-0.26045 0,-0.14262 -0.0827,-0.24804 -0.0827,-0.10749 -0.27285,-0.17984 -0.12196,-0.0475 -0.53951,-0.14676 -0.41754,-0.10128 -0.58497,-0.19017 -0.21704,-0.11369 -0.32453,-0.28112 -0.10542,-0.1695 -0.10542,-0.37827 0,-0.22944 0.13022,-0.42788 0.13023,-0.2005 0.38034,-0.30386 0.25012,-0.10335 0.55604,-0.10335 0.33693,0 0.59325,0.10955 0.25838,0.10749 0.39687,0.31833 0.13849,0.21084 0.14883,0.47749 l -0.38447,0.0289 q -0.031,-0.28732 -0.21084,-0.43408 -0.17777,-0.14676 -0.5271,-0.14676 -0.3638,0 -0.53124,0.13436 -0.16536,0.13229 -0.16536,0.32039 0,0.1633 0.11782,0.26872 0.11576,0.10542 0.60358,0.21704 0.48989,0.10955 0.6718,0.19223 0.26458,0.12196 0.39067,0.31006 0.12609,0.18604 0.12609,0.42995 0,0.24185 -0.13849,0.45682 -0.1385,0.21291 -0.39895,0.33279 -0.25838,0.11783 -0.5829,0.11783 -0.41135,0 -0.6904,-0.11989 -0.27699,-0.11989 -0.43615,-0.35967 -0.1571,-0.24185 -0.16536,-0.5457 z" />
    </g>
    <g
       aria-label="SHELF"
       id="text664-9"
       style="font-size:4.23333px;line-height:1.25;font-family:Arial;-inkscape-font-specification:Arial;letter-spacing:0px;word-spacing:0px;fill:#ffffff;stroke-width:0.264583">
      <path
         id="path5670"
         style="fill:#ffffff;stroke-width:0.264583"
         d="m 112.97905,136.84999 v -3.0303 h 2.04432 v 0.3576 h -1.64331 v 0.93844 h 1.42213 v 0.3576 h -1.42213 v 1.37666 z m -2.39158,0 v -3.0303 h 0.401 v 2.6727 h 1.49242 v 0.3576 z m -2.7988,0 v -3.0303 h 2.19108 v 0.3576 h -1.79007 v 0.92811 h 1.67638 v 0.35553 h -1.67638 v 1.03146 h 1.86035 v 0.3576 z m -3.05304,0 v -3.0303 h 0.40101 v 1.24436 h 1.5751 v -1.24436 h 0.40101 v 3.0303 h -0.40101 v -1.42833 h -1.5751 v 1.42833 z m -2.97242,-0.97358 0.37827,-0.0331 q 0.0269,0.22738 0.12402,0.37414 0.0992,0.1447 0.30592,0.23565 0.20671,0.0889 0.46509,0.0889 0.22944,0 0.40514,-0.0682 0.1757,-0.0682 0.26045,-0.18604 0.0868,-0.11989 0.0868,-0.26045 0,-0.14262 -0.0827,-0.24804 -0.0827,-0.10749 -0.27285,-0.17984 -0.12196,-0.0475 -0.53951,-0.14676 -0.41754,-0.10128 -0.58497,-0.19017 -0.21704,-0.11369 -0.32453,-0.28112 -0.10542,-0.1695 -0.10542,-0.37827 0,-0.22944 0.13022,-0.42788 0.13023,-0.2005 0.38034,-0.30386 0.25012,-0.10335 0.55604,-0.10335 0.33693,0 0.59325,0.10955 0.25838,0.10749 0.39687,0.31833 0.13849,0.21084 0.14883,0.47749 l -0.38447,0.0289 q -0.031,-0.28732 -0.21084,-0.43408 -0.17777,-0.14676 -0.5271,-0.14676 -0.3638,0 -0.53124,0.13436 -0.16536,0.13229 -0.16536,0.32039 0,0.1633 0.11782,0.26872 0.11576,0.10542 0.60358,0.21704 0.48989,0.10955 0.6718,0.19223 0.26458,0.12196 0.39067,0.31006 0.12609,0.18604 0.12609,0.42995 0,0.24185 -0.13849,0.45682 -0.1385,0.21291 -0.39895,0.3328 -0.25838,0.11782 -0.5829,0.11782 -0.41135,0 -0.6904,-0.11989 -0.27699,-0.11989 -0.43615,-0.35967 -0.1571,-0.24185 -0.16536,-0.5457 z" />
    </g>
    <g
       aria-label="TOP BOTTOM"
       id="text664-39"
       style="font-size:4.23333px;line-height:1.25;font-family:Arial;-inkscape-font-specification:Arial;letter-spacing:0px;word-spacing:0px;fill:#ffffff;stroke-width:0.264583">
      <path
         id="path5659"
         style="fill:#ffffff;stroke-width:0.264583"
         d="m 119.16986,165.64262 v -3.0303 h 0.60358 l 0.71727,2.1456 q 0.0992,0.29973 0.14469,0.44856 0.0517,-0.16537 0.16123,-0.48576 l 0.72554,-2.1084 h 0.5395 v 3.0303 h -0.38654 v -2.53627 l -0.88057,2.53627 h -0.36173 l -0.87643,-2.57968 v 2.57968 z m -3.40237,-1.47587 q 0,-0.75448 0.40514,-1.18029 0.40514,-0.42788 1.04593,-0.42788 0.41961,0 0.75654,0.2005 0.33693,0.20051 0.51263,0.56017 0.17777,0.3576 0.17777,0.81236 0,0.46095 -0.18604,0.82475 -0.18603,0.3638 -0.5271,0.55191 -0.34106,0.18603 -0.73587,0.18603 -0.42788,0 -0.76481,-0.20671 -0.33693,-0.2067 -0.51056,-0.5643 -0.17363,-0.3576 -0.17363,-0.75654 z m 0.41341,0.006 q 0,0.54777 0.29352,0.86403 0.29559,0.31419 0.74,0.31419 0.45269,0 0.74414,-0.31833 0.29353,-0.31832 0.29353,-0.9033 0,-0.37 -0.12609,-0.64492 -0.12403,-0.27699 -0.36587,-0.42788 -0.23978,-0.15296 -0.5395,-0.15296 -0.42582,0 -0.73381,0.29352 -0.30592,0.29145 -0.30592,0.97565 z m -2.02985,1.46987 v -2.6727 h -0.99839 v -0.3576 h 2.40192 v 0.3576 h -1.00252 v 2.6727 z m -2.58589,0 v -2.6727 h -0.99839 v -0.3576 h 2.40192 v 0.3576 h -1.00252 v 2.6727 z m -4.18579,-1.47587 q 0,-0.75448 0.40515,-1.18029 0.40514,-0.42788 1.04593,-0.42788 0.41961,0 0.75654,0.2005 0.33693,0.20051 0.51263,0.56017 0.17777,0.3576 0.17777,0.81236 0,0.46095 -0.18604,0.82475 -0.18603,0.3638 -0.5271,0.55191 -0.34106,0.18603 -0.73587,0.18603 -0.42788,0 -0.76481,-0.20671 -0.33693,-0.2067 -0.51056,-0.5643 -0.17364,-0.3576 -0.17364,-0.75654 z m 0.41341,0.006 q 0,0.54777 0.29353,0.86403 0.29559,0.31419 0.74,0.31419 0.45269,0 0.74414,-0.31833 0.29352,-0.31832 0.29352,-0.9033 0,-0.37 -0.12609,-0.64492 -0.12402,-0.27699 -0.36586,-0.42788 -0.23978,-0.15296 -0.53951,-0.15296 -0.42581,0 -0.7338,0.29352 -0.30593,0.29145 -0.30593,0.97565 z m -3.13158,1.46987 v -3.0303 h 1.13688 q 0.34726,0 0.55603,0.093 0.21084,0.0909 0.32867,0.28318 0.11989,0.19017 0.11989,0.39895 0,0.1943 -0.10542,0.36587 -0.10542,0.17156 -0.31833,0.27698 0.27492,0.0806 0.42168,0.27492 0.14883,0.1943 0.14883,0.45889 0,0.2129 -0.091,0.39687 -0.0889,0.1819 -0.22118,0.28112 -0.13229,0.0992 -0.3328,0.15089 -0.19843,0.0496 -0.48782,0.0496 z m 0.401,-1.75699 h 0.65526 q 0.26665,0 0.38241,-0.0351 0.15296,-0.0455 0.22944,-0.1509 0.0785,-0.10542 0.0785,-0.26458 0,-0.1509 -0.0724,-0.26458 -0.0724,-0.11576 -0.20671,-0.1571 -0.13435,-0.0434 -0.46095,-0.0434 h -0.60565 z m 0,1.39939 h 0.75448 q 0.1943,0 0.27285,-0.0145 0.13849,-0.0248 0.23151,-0.0827 0.093,-0.0579 0.15296,-0.16743 0.06,-0.11162 0.06,-0.25631 0,-0.1695 -0.0868,-0.29353 -0.0868,-0.12609 -0.24184,-0.1757 -0.15297,-0.0517 -0.44235,-0.0517 h -0.70074 z m -4.30774,0.3576 v -3.0303 h 1.14308 q 0.30179,0 0.46096,0.0289 0.22324,0.0372 0.37413,0.14263 0.1509,0.10335 0.24185,0.29145 0.093,0.1881 0.093,0.41341 0,0.38654 -0.24598,0.65526 -0.24598,0.26665 -0.88884,0.26665 h -0.77721 v 1.23196 z m 0.40101,-1.58956 h 0.78341 q 0.38861,0 0.55191,-0.1447 0.16329,-0.14469 0.16329,-0.40721 0,-0.19016 -0.0971,-0.32452 -0.0951,-0.13643 -0.25218,-0.17984 -0.10128,-0.0269 -0.37413,-0.0269 h -0.77515 z m -3.815785,0.11369 q 0,-0.75448 0.405143,-1.18029 0.405143,-0.42788 1.04593,-0.42788 0.419612,0 0.756542,0.2005 0.33693,0.20051 0.51263,0.56017 0.17777,0.3576 0.17777,0.81236 0,0.46095 -0.18604,0.82475 -0.186033,0.3638 -0.527098,0.55191 -0.341064,0.18603 -0.735871,0.18603 -0.427881,0 -0.764811,-0.20671 -0.33693,-0.2067 -0.510563,-0.5643 -0.173632,-0.3576 -0.173632,-0.75654 z m 0.413411,0.006 q 0,0.54777 0.293522,0.86403 0.295589,0.31419 0.740006,0.31419 0.452685,0 0.74414,-0.31833 0.293522,-0.31832 0.293522,-0.9033 0,-0.37 -0.126091,-0.64492 -0.124023,-0.27699 -0.365869,-0.42788 -0.239778,-0.15296 -0.539501,-0.15296 -0.425814,0 -0.733805,0.29352 -0.305924,0.29145 -0.305924,0.97565 z m -2.029849,1.46987 v -2.6727 H 94.72486 v -0.3576 h 2.401918 v 0.3576 h -1.002522 v 2.6727 z" />
    </g>
    <g
       aria-label="SIDE"
       id="text710"
       style="font-size:4.23333px;line-height:1.25;font-family:Arial;-inkscape-font-specification:Arial;letter-spacing:0px;word-spacing:0px;fill:#ffffff;stroke-width:0.264583">
      <path
         id="path5640"
         style="fill:#ffffff;stroke-width:0.264583"
         d="m 28.280062,215.97125 v -3.0303 h 2.191079 v 0.3576 h -1.79007 v 0.92811 h 1.676382 v 0.35553 h -1.676382 v 1.03146 h 1.86035 v 0.3576 z m -3.065443,0 v -3.0303 h 1.043863 q 0.353466,0 0.539501,0.0434 0.260449,0.0599 0.444417,0.21704 0.239779,0.20257 0.357601,0.51883 0.119889,0.31419 0.119889,0.71933 0,0.3452 -0.08061,0.61185 -0.08062,0.26665 -0.206706,0.44235 -0.12609,0.17364 -0.276985,0.27492 -0.148828,0.0992 -0.361735,0.1509 -0.21084,0.0517 -0.485758,0.0517 z m 0.401008,-0.3576 h 0.646989 q 0.299723,0 0.469221,-0.0558 0.171566,-0.0558 0.272852,-0.15709 0.142627,-0.14263 0.221175,-0.38241 0.08061,-0.24185 0.08061,-0.58498 0,-0.47542 -0.157096,-0.72967 -0.15503,-0.25631 -0.378272,-0.34313 -0.16123,-0.062 -0.51883,-0.062 h -0.636654 z m -1.50895,0.3576 v -3.0303 h 0.401009 v 3.0303 z m -3.028237,-0.97358 0.378272,-0.0331 q 0.02687,0.22737 0.124023,0.37413 0.09922,0.1447 0.305924,0.23565 0.206706,0.0889 0.465088,0.0889 0.229443,0 0.405143,-0.0682 0.175699,-0.0682 0.260449,-0.18604 0.08682,-0.11989 0.08682,-0.26045 0,-0.14262 -0.08268,-0.24804 -0.08268,-0.10749 -0.272852,-0.17984 -0.121956,-0.0475 -0.539501,-0.14676 -0.417545,-0.10128 -0.584977,-0.19017 -0.217041,-0.11368 -0.324528,-0.28112 -0.105419,-0.16949 -0.105419,-0.37827 0,-0.22944 0.130224,-0.42788 0.130225,-0.2005 0.380338,-0.30385 0.250114,-0.10336 0.556038,-0.10336 0.33693,0 0.593245,0.10956 0.258382,0.10748 0.396875,0.31832 0.138493,0.21084 0.148828,0.47749 l -0.384473,0.0289 q -0.031,-0.28732 -0.210839,-0.43408 -0.177767,-0.14676 -0.527099,-0.14676 -0.363802,0 -0.531234,0.13436 -0.165364,0.13229 -0.165364,0.32039 0,0.1633 0.117822,0.26872 0.115755,0.10542 0.60358,0.21704 0.489892,0.10955 0.671793,0.19224 0.264583,0.12195 0.390674,0.31005 0.12609,0.18604 0.12609,0.42995 0,0.24185 -0.138492,0.45682 -0.138493,0.21291 -0.398942,0.3328 -0.258382,0.11782 -0.58291,0.11782 -0.411344,0 -0.690396,-0.11989 -0.276986,-0.11989 -0.436149,-0.35967 -0.157096,-0.24184 -0.165365,-0.5457 z" />
    </g>
    <g
       aria-label="DOOR"
       id="text714"
       style="font-size:4.23333px;line-height:1.25;font-family:Arial;-inkscape-font-specification:Arial;letter-spacing:0px;word-spacing:0px;fill:#ffffff;stroke-width:0.264583"
       transform="translate(1.000003,-0.25373)">
      <path
         id="path5631"
         style="fill:#ffffff;stroke-width:0.264583"
         d="m 61.590792,278.64465 v -3.0303 h 1.343586 q 0.405143,0 0.615982,0.0827 0.21084,0.0806 0.33693,0.28732 0.126091,0.20671 0.126091,0.45682 0,0.32246 -0.208773,0.54364 -0.208773,0.22117 -0.644921,0.28112 0.159163,0.0765 0.241845,0.15089 0.1757,0.16123 0.332796,0.40308 l 0.527099,0.82475 h -0.504361 l -0.401009,-0.63045 q -0.1757,-0.27285 -0.289388,-0.41754 -0.113688,-0.1447 -0.204638,-0.20258 -0.08888,-0.0579 -0.181901,-0.0806 -0.06821,-0.0145 -0.223242,-0.0145 H 61.9918 v 1.34565 z m 0.401008,-1.69292 h 0.861962 q 0.274919,0 0.429948,-0.0558 0.155029,-0.0579 0.235644,-0.1819 0.08062,-0.12609 0.08062,-0.27285 0,-0.21497 -0.157097,-0.35346 -0.155029,-0.1385 -0.491959,-0.1385 H 61.9918 Z m -3.821986,0.21705 q 0,-0.75448 0.405143,-1.18029 0.405143,-0.42788 1.04593,-0.42788 0.419612,0 0.756542,0.2005 0.336931,0.20051 0.51263,0.56017 0.177767,0.3576 0.177767,0.81236 0,0.46095 -0.186035,0.82475 -0.186035,0.3638 -0.527099,0.5519 -0.341064,0.18604 -0.735872,0.18604 -0.42788,0 -0.76481,-0.20671 -0.336931,-0.2067 -0.510563,-0.5643 -0.173633,-0.3576 -0.173633,-0.75654 z m 0.413411,0.006 q 0,0.54777 0.293522,0.86403 0.295589,0.31419 0.740006,0.31419 0.452685,0 0.74414,-0.31833 0.293522,-0.31832 0.293522,-0.9033 0,-0.37 -0.12609,-0.64492 -0.124024,-0.27699 -0.365869,-0.42788 -0.239779,-0.15297 -0.539502,-0.15297 -0.425813,0 -0.733805,0.29353 -0.305924,0.29145 -0.305924,0.97565 z m -3.70623,-0.006 q 0,-0.75448 0.405143,-1.18029 0.405142,-0.42788 1.04593,-0.42788 0.419612,0 0.756542,0.2005 0.33693,0.20051 0.51263,0.56017 0.177767,0.3576 0.177767,0.81236 0,0.46095 -0.186035,0.82475 -0.186035,0.3638 -0.5271,0.5519 -0.341064,0.18604 -0.735871,0.18604 -0.427881,0 -0.764811,-0.20671 -0.33693,-0.2067 -0.510563,-0.5643 -0.173632,-0.3576 -0.173632,-0.75654 z m 0.413411,0.006 q 0,0.54777 0.293522,0.86403 0.295589,0.31419 0.740006,0.31419 0.452685,0 0.74414,-0.31833 0.293521,-0.31832 0.293521,-0.9033 0,-0.37 -0.12609,-0.64492 -0.124023,-0.27699 -0.365869,-0.42788 -0.239778,-0.15297 -0.539501,-0.15297 -0.425814,0 -0.733805,0.29353 -0.305924,0.29145 -0.305924,0.97565 z m -3.34863,1.46987 v -3.0303 h 1.043863 q 0.353466,0 0.539501,0.0434 0.260449,0.0599 0.444417,0.21704 0.239779,0.20257 0.357601,0.51883 0.119889,0.31419 0.119889,0.71934 0,0.34519 -0.08061,0.61184 -0.08062,0.26665 -0.206706,0.44235 -0.12609,0.17364 -0.276985,0.27492 -0.148828,0.0992 -0.361735,0.1509 -0.210839,0.0517 -0.485758,0.0517 z m 0.401009,-0.3576 h 0.646988 q 0.299723,0 0.469222,-0.0558 0.171565,-0.0558 0.272851,-0.15709 0.142627,-0.14263 0.221175,-0.38241 0.08062,-0.24184 0.08062,-0.58498 0,-0.47542 -0.157096,-0.72967 -0.155029,-0.25631 -0.378271,-0.34313 -0.161231,-0.062 -0.518831,-0.062 H 52.34279 Z" />
    </g>
    <g
       aria-label="SIDE"
       id="text710-8"
       style="font-size:4.23333px;line-height:1.25;font-family:Arial;-inkscape-font-specification:Arial;letter-spacing:0px;word-spacing:0px;fill:#ffffff;stroke-width:0.264583">
      <path
         id="path5622"
         style="fill:#ffffff;stroke-width:0.264583"
         d="m 61.571734,215.97125 v -3.0303 h 2.191079 v 0.3576 h -1.79007 v 0.92811 h 1.676382 v 0.35553 h -1.676382 v 1.03146 h 1.86035 v 0.3576 z m -3.065444,0 v -3.0303 h 1.043863 q 0.353467,0 0.539502,0.0434 0.260449,0.0599 0.444417,0.21704 0.239778,0.20257 0.3576,0.51883 0.11989,0.31419 0.11989,0.71933 0,0.3452 -0.08061,0.61185 -0.08062,0.26665 -0.206706,0.44235 -0.12609,0.17364 -0.276985,0.27492 -0.148828,0.0992 -0.361735,0.1509 -0.21084,0.0517 -0.485758,0.0517 z m 0.401009,-0.3576 h 0.646989 q 0.299723,0 0.469221,-0.0558 0.171566,-0.0558 0.272851,-0.15709 0.142627,-0.14263 0.221175,-0.38241 0.08062,-0.24185 0.08062,-0.58498 0,-0.47542 -0.157097,-0.72967 -0.155029,-0.25631 -0.378271,-0.34313 -0.16123,-0.062 -0.518831,-0.062 h -0.636653 z m -1.50895,0.3576 v -3.0303 h 0.401008 v 3.0303 z m -3.028237,-0.97358 0.378271,-0.0331 q 0.02687,0.22737 0.124024,0.37413 0.09922,0.1447 0.305924,0.23565 0.206705,0.0889 0.465087,0.0889 0.229444,0 0.405143,-0.0682 0.1757,-0.0682 0.260449,-0.18604 0.08682,-0.11989 0.08682,-0.26045 0,-0.14262 -0.08268,-0.24804 -0.08268,-0.10749 -0.272851,-0.17984 -0.121956,-0.0475 -0.539501,-0.14676 -0.417546,-0.10128 -0.584977,-0.19017 -0.217041,-0.11368 -0.324528,-0.28112 -0.10542,-0.16949 -0.10542,-0.37827 0,-0.22944 0.130225,-0.42788 0.130224,-0.2005 0.380338,-0.30385 0.250114,-0.10336 0.556038,-0.10336 0.33693,0 0.593245,0.10956 0.258382,0.10748 0.396875,0.31832 0.138492,0.21084 0.148828,0.47749 l -0.384473,0.0289 q -0.03101,-0.28732 -0.210839,-0.43408 -0.177767,-0.14676 -0.5271,-0.14676 -0.363801,0 -0.531233,0.13436 -0.165364,0.13229 -0.165364,0.32039 0,0.1633 0.117822,0.26872 0.115755,0.10542 0.60358,0.21704 0.489892,0.10955 0.671793,0.19224 0.264583,0.12195 0.390674,0.31005 0.12609,0.18604 0.12609,0.42995 0,0.24185 -0.138493,0.45682 -0.138492,0.21291 -0.398941,0.3328 -0.258382,0.11782 -0.58291,0.11782 -0.411344,0 -0.690397,-0.11989 -0.276985,-0.11989 -0.436148,-0.35967 -0.157097,-0.24184 -0.165365,-0.5457 z" />
    </g>
    <g
       aria-label="SIDE"
       id="text710-7"
       style="font-size:4.23333px;line-height:1.25;font-family:Arial;-inkscape-font-specification:Arial;letter-spacing:0px;word-spacing:0px;fill:#ffffff;stroke-width:0.264583">
      <path
         id="path5613"
         style="fill:#ffffff;stroke-width:0.264583"
         d="m 160.15504,215.97125 v -3.0303 h 2.19107 v 0.3576 h -1.79007 v 0.92811 h 1.67639 v 0.35553 h -1.67639 v 1.03146 h 1.86035 v 0.3576 z m -3.06545,0 v -3.0303 h 1.04386 q 0.35347,0 0.53951,0.0434 0.26045,0.0599 0.44441,0.21704 0.23978,0.20257 0.3576,0.51883 0.11989,0.31419 0.11989,0.71933 0,0.3452 -0.0806,0.61185 -0.0806,0.26665 -0.20671,0.44235 -0.12609,0.17364 -0.27698,0.27492 -0.14883,0.0992 -0.36174,0.1509 -0.21084,0.0517 -0.48576,0.0517 z m 0.40101,-0.3576 h 0.64699 q 0.29972,0 0.46922,-0.0558 0.17157,-0.0558 0.27285,-0.15709 0.14263,-0.14263 0.22118,-0.38241 0.0806,-0.24185 0.0806,-0.58498 0,-0.47542 -0.15709,-0.72967 -0.15503,-0.25631 -0.37828,-0.34313 -0.16123,-0.062 -0.51883,-0.062 h -0.63665 z m -1.50895,0.3576 v -3.0303 h 0.40101 v 3.0303 z m -3.02824,-0.97358 0.37827,-0.0331 q 0.0269,0.22737 0.12403,0.37413 0.0992,0.1447 0.30592,0.23565 0.20671,0.0889 0.46509,0.0889 0.22944,0 0.40514,-0.0682 0.1757,-0.0682 0.26045,-0.18604 0.0868,-0.11989 0.0868,-0.26045 0,-0.14262 -0.0827,-0.24804 -0.0827,-0.10749 -0.27286,-0.17984 -0.12195,-0.0475 -0.5395,-0.14676 -0.41754,-0.10128 -0.58497,-0.19017 -0.21704,-0.11368 -0.32453,-0.28112 -0.10542,-0.16949 -0.10542,-0.37827 0,-0.22944 0.13022,-0.42788 0.13023,-0.2005 0.38034,-0.30385 0.25012,-0.10336 0.55604,-0.10336 0.33693,0 0.59324,0.10956 0.25839,0.10748 0.39688,0.31832 0.13849,0.21084 0.14883,0.47749 l -0.38448,0.0289 q -0.031,-0.28732 -0.21083,-0.43408 -0.17777,-0.14676 -0.5271,-0.14676 -0.36381,0 -0.53124,0.13436 -0.16536,0.13229 -0.16536,0.32039 0,0.1633 0.11782,0.26872 0.11576,0.10542 0.60358,0.21704 0.48989,0.10955 0.67179,0.19224 0.26459,0.12195 0.39068,0.31005 0.12609,0.18604 0.12609,0.42995 0,0.24185 -0.1385,0.45682 -0.13849,0.21291 -0.39894,0.3328 -0.25838,0.11782 -0.58291,0.11782 -0.41134,0 -0.69039,-0.11989 -0.27699,-0.11989 -0.43615,-0.35967 -0.1571,-0.24184 -0.16537,-0.5457 z" />
    </g>
    <g
       aria-label="SIDE"
       id="text710-6"
       style="font-size:4.23333px;line-height:1.25;font-family:Arial;-inkscape-font-specification:Arial;letter-spacing:0px;word-spacing:0px;fill:#ffffff;stroke-width:0.264583">
      <path
         id="path5604"
         style="fill:#ffffff;stroke-width:0.264583"
         d="m 193.44665,215.97125 v -3.0303 h 2.19107 v 0.3576 h -1.79007 v 0.92811 h 1.67639 v 0.35553 h -1.67639 v 1.03146 h 1.86035 v 0.3576 z m -3.06545,0 v -3.0303 h 1.04387 q 0.35346,0 0.5395,0.0434 0.26045,0.0599 0.44441,0.21704 0.23978,0.20257 0.3576,0.51883 0.11989,0.31419 0.11989,0.71933 0,0.3452 -0.0806,0.61185 -0.0806,0.26665 -0.20671,0.44235 -0.12609,0.17364 -0.27698,0.27492 -0.14883,0.0992 -0.36174,0.1509 -0.21084,0.0517 -0.48575,0.0517 z m 0.40101,-0.3576 h 0.64699 q 0.29972,0 0.46922,-0.0558 0.17157,-0.0558 0.27285,-0.15709 0.14263,-0.14263 0.22118,-0.38241 0.0806,-0.24185 0.0806,-0.58498 0,-0.47542 -0.15709,-0.72967 -0.15503,-0.25631 -0.37827,-0.34313 -0.16123,-0.062 -0.51884,-0.062 h -0.63665 z m -1.50895,0.3576 v -3.0303 h 0.40101 v 3.0303 z m -3.02824,-0.97358 0.37828,-0.0331 q 0.0269,0.22737 0.12402,0.37413 0.0992,0.1447 0.30592,0.23565 0.20671,0.0889 0.46509,0.0889 0.22944,0 0.40514,-0.0682 0.1757,-0.0682 0.26045,-0.18604 0.0868,-0.11989 0.0868,-0.26045 0,-0.14262 -0.0827,-0.24804 -0.0827,-0.10749 -0.27285,-0.17984 -0.12196,-0.0475 -0.53951,-0.14676 -0.41754,-0.10128 -0.58497,-0.19017 -0.21704,-0.11368 -0.32453,-0.28112 -0.10542,-0.16949 -0.10542,-0.37827 0,-0.22944 0.13022,-0.42788 0.13023,-0.2005 0.38034,-0.30385 0.25012,-0.10336 0.55604,-0.10336 0.33693,0 0.59325,0.10956 0.25838,0.10748 0.39687,0.31832 0.13849,0.21084 0.14883,0.47749 l -0.38447,0.0289 q -0.031,-0.28732 -0.21084,-0.43408 -0.17777,-0.14676 -0.5271,-0.14676 -0.36381,0 -0.53124,0.13436 -0.16536,0.13229 -0.16536,0.32039 0,0.1633 0.11782,0.26872 0.11576,0.10542 0.60358,0.21704 0.48989,0.10955 0.67179,0.19224 0.26459,0.12195 0.39068,0.31005 0.12609,0.18604 0.12609,0.42995 0,0.24185 -0.13849,0.45682 -0.1385,0.21291 -0.39895,0.3328 -0.25838,0.11782 -0.58291,0.11782 -0.41134,0 -0.69039,-0.11989 -0.27699,-0.11989 -0.43615,-0.35967 -0.1571,-0.24184 -0.16537,-0.5457 z" />
    </g>
    <g
       aria-label="DOOR"
       id="text714-9"
       style="font-size:4.23333px;line-height:1.25;font-family:Arial;-inkscape-font-specification:Arial;letter-spacing:0px;word-spacing:0px;fill:#ffffff;stroke-width:0.264583">
      <path
         id="path5595"
         style="fill:#ffffff;stroke-width:0.264583"
         d="m 162.17411,278.39111 v -3.0303 h 1.34359 q 0.40514,0 0.61598,0.0827 0.21084,0.0806 0.33693,0.28732 0.12609,0.20671 0.12609,0.45682 0,0.32246 -0.20877,0.54364 -0.20877,0.22117 -0.64492,0.28112 0.15916,0.0765 0.24184,0.15089 0.1757,0.16123 0.3328,0.40308 l 0.5271,0.82475 h -0.50436 l -0.40101,-0.63045 q -0.1757,-0.27285 -0.28939,-0.41754 -0.11369,-0.1447 -0.20464,-0.20258 -0.0889,-0.0579 -0.1819,-0.0806 -0.0682,-0.0145 -0.22324,-0.0145 h -0.46509 v 1.34565 z m 0.40101,-1.69292 h 0.86196 q 0.27492,0 0.42995,-0.0558 0.15503,-0.0579 0.23564,-0.1819 0.0806,-0.12609 0.0806,-0.27285 0,-0.21497 -0.1571,-0.35346 -0.15503,-0.1385 -0.49196,-0.1385 h -0.95911 z m -3.82199,0.21705 q 0,-0.75448 0.40515,-1.18029 0.40514,-0.42788 1.04593,-0.42788 0.41961,0 0.75654,0.2005 0.33693,0.20051 0.51263,0.56017 0.17777,0.3576 0.17777,0.81236 0,0.46095 -0.18604,0.82475 -0.18603,0.3638 -0.5271,0.5519 -0.34106,0.18604 -0.73587,0.18604 -0.42788,0 -0.76481,-0.20671 -0.33693,-0.2067 -0.51056,-0.5643 -0.17364,-0.3576 -0.17364,-0.75654 z m 0.41342,0.006 q 0,0.54777 0.29352,0.86403 0.29559,0.31419 0.74,0.31419 0.45269,0 0.74414,-0.31833 0.29353,-0.31832 0.29353,-0.9033 0,-0.37 -0.12609,-0.64492 -0.12403,-0.27699 -0.36587,-0.42788 -0.23978,-0.15297 -0.53951,-0.15297 -0.42581,0 -0.7338,0.29353 -0.30592,0.29145 -0.30592,0.97565 z m -3.70623,-0.006 q 0,-0.75448 0.40514,-1.18029 0.40514,-0.42788 1.04593,-0.42788 0.41961,0 0.75654,0.2005 0.33693,0.20051 0.51263,0.56017 0.17777,0.3576 0.17777,0.81236 0,0.46095 -0.18604,0.82475 -0.18603,0.3638 -0.5271,0.5519 -0.34106,0.18604 -0.73587,0.18604 -0.42788,0 -0.76481,-0.20671 -0.33693,-0.2067 -0.51056,-0.5643 -0.17363,-0.3576 -0.17363,-0.75654 z m 0.41341,0.006 q 0,0.54777 0.29352,0.86403 0.29559,0.31419 0.74,0.31419 0.45269,0 0.74414,-0.31833 0.29353,-0.31832 0.29353,-0.9033 0,-0.37 -0.12609,-0.64492 -0.12403,-0.27699 -0.36587,-0.42788 -0.23978,-0.15297 -0.5395,-0.15297 -0.42582,0 -0.73381,0.29353 -0.30592,0.29145 -0.30592,0.97565 z m -3.34863,1.46987 v -3.0303 h 1.04386 q 0.35347,0 0.5395,0.0434 0.26045,0.0599 0.44442,0.21704 0.23978,0.20257 0.3576,0.51883 0.11989,0.31419 0.11989,0.71934 0,0.34519 -0.0806,0.61184 -0.0806,0.26665 -0.2067,0.44235 -0.12609,0.17364 -0.27699,0.27492 -0.14883,0.0992 -0.36173,0.1509 -0.21084,0.0517 -0.48576,0.0517 z m 0.40101,-0.3576 h 0.64698 q 0.29973,0 0.46923,-0.0558 0.17156,-0.0558 0.27285,-0.15709 0.14262,-0.14263 0.22117,-0.38241 0.0806,-0.24184 0.0806,-0.58498 0,-0.47542 -0.1571,-0.72967 -0.15503,-0.25631 -0.37827,-0.34313 -0.16123,-0.062 -0.51883,-0.062 h -0.63665 z" />
    </g>
    <g
       aria-label="BASE TOP"
       id="text770"
       style="font-size:4.23333px;line-height:1.25;font-family:Arial;-inkscape-font-specification:Arial;letter-spacing:0px;word-spacing:0px;fill:#ffffff;stroke-width:0.264583">
      <path
         id="path5586"
         style="fill:#ffffff;stroke-width:0.264583"
         d="m 116.34317,199.84554 v -3.03031 h 1.14308 q 0.30179,0 0.46095,0.0289 0.22324,0.0372 0.37414,0.14263 0.15089,0.10335 0.24184,0.29145 0.093,0.1881 0.093,0.41341 0,0.38654 -0.24598,0.65526 -0.24598,0.26665 -0.88883,0.26665 h -0.77722 v 1.23197 z m 0.401,-1.58957 h 0.78342 q 0.38861,0 0.5519,-0.14469 0.1633,-0.1447 0.1633,-0.40721 0,-0.19017 -0.0971,-0.32453 -0.0951,-0.13643 -0.25218,-0.17984 -0.10129,-0.0269 -0.37414,-0.0269 h -0.77515 z m -3.81578,0.11369 q 0,-0.75448 0.40514,-1.18029 0.40515,-0.42788 1.04593,-0.42788 0.41962,0 0.75655,0.2005 0.33693,0.20051 0.51263,0.56017 0.17776,0.35761 0.17776,0.81236 0,0.46095 -0.18603,0.82475 -0.18604,0.3638 -0.5271,0.55191 -0.34106,0.18603 -0.73587,0.18603 -0.42788,0 -0.76481,-0.2067 -0.33693,-0.20671 -0.51057,-0.56431 -0.17363,-0.3576 -0.17363,-0.75654 z m 0.41341,0.006 q 0,0.54777 0.29352,0.86403 0.29559,0.31419 0.74001,0.31419 0.45269,0 0.74414,-0.31833 0.29352,-0.31832 0.29352,-0.9033 0,-0.37 -0.12609,-0.64492 -0.12402,-0.27699 -0.36587,-0.42788 -0.23978,-0.15296 -0.5395,-0.15296 -0.42581,0 -0.7338,0.29352 -0.30593,0.29145 -0.30593,0.97565 z m -2.02985,1.46988 v -2.67271 h -0.99838 v -0.3576 h 2.40191 v 0.3576 h -1.00252 v 2.67271 z m -4.68601,0 v -3.03031 h 2.19108 v 0.3576 h -1.79007 v 0.92811 h 1.67638 v 0.35553 h -1.67638 v 1.03146 h 1.86035 v 0.35761 z m -2.96829,-0.97359 0.37827,-0.0331 q 0.0269,0.22738 0.12402,0.37414 0.0992,0.14469 0.30593,0.23564 0.2067,0.0889 0.46508,0.0889 0.22945,0 0.40515,-0.0682 0.1757,-0.0682 0.26045,-0.18603 0.0868,-0.11989 0.0868,-0.26045 0,-0.14263 -0.0827,-0.24805 -0.0827,-0.10749 -0.27285,-0.17983 -0.12196,-0.0476 -0.5395,-0.14676 -0.41755,-0.10129 -0.58498,-0.19017 -0.21704,-0.11369 -0.32453,-0.28112 -0.10542,-0.1695 -0.10542,-0.37827 0,-0.22945 0.13023,-0.42788 0.13022,-0.20051 0.38033,-0.30386 0.25012,-0.10335 0.55604,-0.10335 0.33693,0 0.59325,0.10955 0.25838,0.10749 0.39687,0.31833 0.1385,0.21084 0.14883,0.47749 l -0.38447,0.0289 q -0.031,-0.28732 -0.21084,-0.43408 -0.17777,-0.14676 -0.5271,-0.14676 -0.3638,0 -0.53123,0.13436 -0.16537,0.13229 -0.16537,0.32039 0,0.1633 0.11782,0.26872 0.11576,0.10542 0.60358,0.21704 0.4899,0.10956 0.6718,0.19224 0.26458,0.12195 0.39067,0.31006 0.12609,0.18603 0.12609,0.42994 0,0.24185 -0.13849,0.45682 -0.13849,0.21291 -0.39894,0.3328 -0.25839,0.11782 -0.58291,0.11782 -0.41135,0 -0.6904,-0.11989 -0.27699,-0.11989 -0.43615,-0.35967 -0.15709,-0.24184 -0.16536,-0.5457 z m -3.01997,0.97359 1.16375,-3.03031 h 0.43202 l 1.24023,3.03031 h -0.45682 l -0.35347,-0.91778 h -1.2671 l -0.3328,0.91778 z m 0.87436,-1.24437 h 1.02733 l -0.31626,-0.83923 q -0.14469,-0.3824 -0.21497,-0.62838 -0.0579,0.29145 -0.1633,0.57877 z m -3.3817,1.24437 v -3.03031 h 1.136881 q 0.347265,0 0.556038,0.093 0.210841,0.0909 0.328661,0.28319 0.11989,0.19017 0.11989,0.39894 0,0.1943 -0.10542,0.36587 -0.10542,0.17156 -0.318327,0.27698 0.274917,0.0806 0.421677,0.27492 0.14883,0.1943 0.14883,0.45889 0,0.2129 -0.091,0.39687 -0.0889,0.1819 -0.22117,0.28112 -0.132296,0.0992 -0.332801,0.1509 -0.198437,0.0496 -0.487825,0.0496 z m 0.401009,-1.757 h 0.655257 q 0.26665,0 0.382405,-0.0351 0.152962,-0.0455 0.229443,-0.1509 0.07855,-0.10542 0.07855,-0.26458 0,-0.1509 -0.07235,-0.26458 -0.07235,-0.11576 -0.206705,-0.1571 -0.134359,-0.0434 -0.460954,-0.0434 h -0.605647 z m 0,1.39939 h 0.754475 q 0.194304,0 0.272852,-0.0145 0.138492,-0.0248 0.23151,-0.0827 0.09302,-0.0579 0.152962,-0.16743 0.05994,-0.11162 0.05994,-0.25631 0,-0.1695 -0.08681,-0.29353 -0.08682,-0.12609 -0.241845,-0.17569 -0.152962,-0.0517 -0.44235,-0.0517 h -0.700732 z" />
    </g>
    <g
       aria-label="BASE BOTTOM"
       id="text774"
       style="font-size:4.23333px;line-height:1.25;font-family:Arial;-inkscape-font-specification:Arial;letter-spacing:0px;word-spacing:0px;fill:#ffffff;stroke-width:0.264583">
      <path
         id="path5571"
         style="fill:#ffffff;stroke-width:0.264583"
         d="m 120.43697,232.09903 v -3.0303 h 0.60358 l 0.71727,2.1456 q 0.0992,0.29972 0.14469,0.44855 0.0517,-0.16536 0.16124,-0.48576 l 0.72553,-2.10839 h 0.5395 v 3.0303 h -0.38654 v -2.53628 l -0.88056,2.53628 h -0.36174 l -0.87643,-2.57969 v 2.57969 z m -3.40237,-1.47588 q 0,-0.75447 0.40514,-1.18029 0.40514,-0.42788 1.04593,-0.42788 0.41961,0 0.75654,0.20051 0.33693,0.2005 0.51263,0.56017 0.17777,0.3576 0.17777,0.81235 0,0.46096 -0.18603,0.82476 -0.18604,0.3638 -0.5271,0.5519 -0.34107,0.18604 -0.73588,0.18604 -0.42788,0 -0.76481,-0.20671 -0.33693,-0.20671 -0.51056,-0.56431 -0.17363,-0.3576 -0.17363,-0.75654 z m 0.41341,0.006 q 0,0.54777 0.29352,0.86403 0.29559,0.31419 0.74001,0.31419 0.45268,0 0.74414,-0.31832 0.29352,-0.31833 0.29352,-0.90331 0,-0.37 -0.12609,-0.64492 -0.12402,-0.27698 -0.36587,-0.42788 -0.23978,-0.15296 -0.5395,-0.15296 -0.42582,0 -0.73381,0.29352 -0.30592,0.29146 -0.30592,0.97565 z m -2.02985,1.46988 v -2.6727 h -0.99839 v -0.3576 h 2.40192 v 0.3576 h -1.00252 v 2.6727 z m -2.58588,0 v -2.6727 h -0.99839 v -0.3576 h 2.40192 v 0.3576 h -1.00253 v 2.6727 z m -4.18579,-1.47588 q 0,-0.75447 0.40514,-1.18029 0.40514,-0.42788 1.04593,-0.42788 0.41961,0 0.75654,0.20051 0.33693,0.2005 0.51263,0.56017 0.17777,0.3576 0.17777,0.81235 0,0.46096 -0.18604,0.82476 -0.18603,0.3638 -0.5271,0.5519 -0.34106,0.18604 -0.73587,0.18604 -0.42788,0 -0.76481,-0.20671 -0.33693,-0.20671 -0.51056,-0.56431 -0.17363,-0.3576 -0.17363,-0.75654 z m 0.41341,0.006 q 0,0.54777 0.29352,0.86403 0.29559,0.31419 0.74001,0.31419 0.45268,0 0.74414,-0.31832 0.29352,-0.31833 0.29352,-0.90331 0,-0.37 -0.12609,-0.64492 -0.12403,-0.27698 -0.36587,-0.42788 -0.23978,-0.15296 -0.5395,-0.15296 -0.42582,0 -0.73381,0.29352 -0.30592,0.29146 -0.30592,0.97565 z m -3.13159,1.46988 v -3.0303 h 1.13688 q 0.34727,0 0.55604,0.093 0.21084,0.0909 0.32866,0.28319 0.11989,0.19017 0.11989,0.39894 0,0.19431 -0.10542,0.36587 -0.10542,0.17157 -0.31833,0.27699 0.27492,0.0806 0.42168,0.27491 0.14883,0.19431 0.14883,0.45889 0,0.21291 -0.0909,0.39688 -0.0889,0.1819 -0.22117,0.28112 -0.1323,0.0992 -0.3328,0.15089 -0.19844,0.0496 -0.48783,0.0496 z m 0.40101,-1.757 h 0.65526 q 0.26665,0 0.3824,-0.0351 0.15296,-0.0455 0.22944,-0.15089 0.0786,-0.10542 0.0786,-0.26459 0,-0.15089 -0.0723,-0.26458 -0.0724,-0.11575 -0.20671,-0.1571 -0.13436,-0.0434 -0.46095,-0.0434 h -0.60565 z m 0,1.3994 h 0.75447 q 0.19431,0 0.27286,-0.0145 0.13849,-0.0248 0.23151,-0.0827 0.093,-0.0579 0.15296,-0.16743 0.0599,-0.11163 0.0599,-0.25632 0,-0.1695 -0.0868,-0.29352 -0.0868,-0.12609 -0.24185,-0.1757 -0.15296,-0.0517 -0.44235,-0.0517 h -0.70073 z m -4.37596,0.3576 v -3.0303 h 2.19108 v 0.3576 h -1.79007 v 0.9281 h 1.67638 v 0.35554 h -1.67638 v 1.03146 h 1.86035 v 0.3576 z m -2.96829,-0.97358 0.378271,-0.0331 q 0.02687,0.22738 0.124024,0.37414 0.09922,0.14469 0.305924,0.23564 0.206705,0.0889 0.465091,0.0889 0.22944,0 0.40514,-0.0682 0.1757,-0.0682 0.26045,-0.18604 0.0868,-0.11989 0.0868,-0.26045 0,-0.14263 -0.0827,-0.24805 -0.0827,-0.10748 -0.27285,-0.17983 -0.12196,-0.0475 -0.5395,-0.14676 -0.417546,-0.10129 -0.584977,-0.19017 -0.217041,-0.11369 -0.324528,-0.28112 -0.10542,-0.1695 -0.10542,-0.37827 0,-0.22944 0.130225,-0.42788 0.130224,-0.2005 0.380338,-0.30386 0.250114,-0.10335 0.556042,-0.10335 0.33693,0 0.59324,0.10955 0.25838,0.10749 0.39688,0.31833 0.13849,0.21084 0.14882,0.47749 l -0.38447,0.0289 q -0.031,-0.28732 -0.21084,-0.43408 -0.17777,-0.14676 -0.5271,-0.14676 -0.3638,0 -0.531231,0.13435 -0.165364,0.1323 -0.165364,0.3204 0,0.1633 0.117822,0.26872 0.115755,0.10542 0.603583,0.21704 0.48989,0.10955 0.67179,0.19223 0.26458,0.12196 0.39067,0.31006 0.12609,0.18604 0.12609,0.42995 0,0.24184 -0.13849,0.45682 -0.13849,0.2129 -0.39894,0.33279 -0.25838,0.11783 -0.58291,0.11783 -0.411344,0 -0.690397,-0.11989 -0.276985,-0.11989 -0.436149,-0.35967 -0.157096,-0.24185 -0.165364,-0.5457 z m -3.019968,0.97358 1.163752,-3.0303 h 0.432015 l 1.240233,3.0303 h -0.456819 l -0.353467,-0.91777 h -1.267105 l -0.332796,0.91777 z m 0.874364,-1.24437 h 1.027327 l -0.31626,-0.83922 q -0.144693,-0.38241 -0.214973,-0.62839 -0.05788,0.29146 -0.163298,0.57878 z m -3.381703,1.24437 v -3.0303 h 1.136881 q 0.347265,0 0.556038,0.093 0.21084,0.0909 0.328662,0.28319 0.119889,0.19017 0.119889,0.39894 0,0.19431 -0.10542,0.36587 -0.10542,0.17157 -0.318326,0.27699 0.274918,0.0806 0.421679,0.27491 0.148828,0.19431 0.148828,0.45889 0,0.21291 -0.09095,0.39688 -0.08888,0.1819 -0.221174,0.28112 -0.132292,0.0992 -0.332796,0.15089 -0.198438,0.0496 -0.487826,0.0496 z m 0.401009,-1.757 h 0.655257 q 0.26665,0 0.382405,-0.0351 0.152962,-0.0455 0.229443,-0.15089 0.07855,-0.10542 0.07855,-0.26459 0,-0.15089 -0.07235,-0.26458 -0.07235,-0.11575 -0.206705,-0.1571 -0.134359,-0.0434 -0.460954,-0.0434 h -0.605647 z m 0,1.3994 h 0.754475 q 0.194304,0 0.272852,-0.0145 0.138493,-0.0248 0.23151,-0.0827 0.09302,-0.0579 0.152962,-0.16743 0.05994,-0.11163 0.05994,-0.25632 0,-0.1695 -0.08682,-0.29352 -0.08682,-0.12609 -0.241845,-0.1757 -0.152962,-0.0517 -0.44235,-0.0517 h -0.700732 z" />
    </g>
    <g
       aria-label="SIDE"
       id="text710-84"
       style="font-size:4.23333px;line-height:1.25;font-family:Arial;-inkscape-font-specification:Arial;letter-spacing:0px;word-spacing:0px;fill:#ffffff;stroke-width:0.264583"
       transform="translate(5e-7,-108.49261)">
      <path
         id="path5640-8"
         style="fill:#ffffff;stroke-width:0.264583"
         d="m 28.280062,215.97125 v -3.0303 h 2.191079 v 0.3576 h -1.79007 v 0.92811 h 1.676382 v 0.35553 h -1.676382 v 1.03146 h 1.86035 v 0.3576 z m -3.065443,0 v -3.0303 h 1.043863 q 0.353466,0 0.539501,0.0434 0.260449,0.0599 0.444417,0.21704 0.239779,0.20257 0.357601,0.51883 0.119889,0.31419 0.119889,0.71933 0,0.3452 -0.08061,0.61185 -0.08062,0.26665 -0.206706,0.44235 -0.12609,0.17364 -0.276985,0.27492 -0.148828,0.0992 -0.361735,0.1509 -0.21084,0.0517 -0.485758,0.0517 z m 0.401008,-0.3576 h 0.646989 q 0.299723,0 0.469221,-0.0558 0.171566,-0.0558 0.272852,-0.15709 0.142627,-0.14263 0.221175,-0.38241 0.08061,-0.24185 0.08061,-0.58498 0,-0.47542 -0.157096,-0.72967 -0.15503,-0.25631 -0.378272,-0.34313 -0.16123,-0.062 -0.51883,-0.062 h -0.636654 z m -1.50895,0.3576 v -3.0303 h 0.401009 v 3.0303 z m -3.028237,-0.97358 0.378272,-0.0331 q 0.02687,0.22737 0.124023,0.37413 0.09922,0.1447 0.305924,0.23565 0.206706,0.0889 0.465088,0.0889 0.229443,0 0.405143,-0.0682 0.175699,-0.0682 0.260449,-0.18604 0.08682,-0.11989 0.08682,-0.26045 0,-0.14262 -0.08268,-0.24804 -0.08268,-0.10749 -0.272852,-0.17984 -0.121956,-0.0475 -0.539501,-0.14676 -0.417545,-0.10128 -0.584977,-0.19017 -0.217041,-0.11368 -0.324528,-0.28112 -0.105419,-0.16949 -0.105419,-0.37827 0,-0.22944 0.130224,-0.42788 0.130225,-0.2005 0.380338,-0.30385 0.250114,-0.10336 0.556038,-0.10336 0.33693,0 0.593245,0.10956 0.258382,0.10748 0.396875,0.31832 0.138493,0.21084 0.148828,0.47749 l -0.384473,0.0289 q -0.031,-0.28732 -0.210839,-0.43408 -0.177767,-0.14676 -0.527099,-0.14676 -0.363802,0 -0.531234,0.13436 -0.165364,0.13229 -0.165364,0.32039 0,0.1633 0.117822,0.26872 0.115755,0.10542 0.60358,0.21704 0.489892,0.10955 0.671793,0.19224 0.264583,0.12195 0.390674,0.31005 0.12609,0.18604 0.12609,0.42995 0,0.24185 -0.138492,0.45682 -0.138493,0.21291 -0.398942,0.3328 -0.258382,0.11782 -0.58291,0.11782 -0.411344,0 -0.690396,-0.11989 -0.276986,-0.11989 -0.436149,-0.35967 -0.157096,-0.24184 -0.165365,-0.5457 z" />
    </g>
    <g
       aria-label="SIDE"
       id="text710-8-9"
       style="font-size:4.23333px;line-height:1.25;font-family:Arial;-inkscape-font-specification:Arial;letter-spacing:0px;word-spacing:0px;fill:#ffffff;stroke-width:0.264583"
       transform="translate(-5.5e-6,-108.49261)">
      <path
         id="path5622-5"
         style="fill:#ffffff;stroke-width:0.264583"
         d="m 61.571734,215.97125 v -3.0303 h 2.191079 v 0.3576 h -1.79007 v 0.92811 h 1.676382 v 0.35553 h -1.676382 v 1.03146 h 1.86035 v 0.3576 z m -3.065444,0 v -3.0303 h 1.043863 q 0.353467,0 0.539502,0.0434 0.260449,0.0599 0.444417,0.21704 0.239778,0.20257 0.3576,0.51883 0.11989,0.31419 0.11989,0.71933 0,0.3452 -0.08061,0.61185 -0.08062,0.26665 -0.206706,0.44235 -0.12609,0.17364 -0.276985,0.27492 -0.148828,0.0992 -0.361735,0.1509 -0.21084,0.0517 -0.485758,0.0517 z m 0.401009,-0.3576 h 0.646989 q 0.299723,0 0.469221,-0.0558 0.171566,-0.0558 0.272851,-0.15709 0.142627,-0.14263 0.221175,-0.38241 0.08062,-0.24185 0.08062,-0.58498 0,-0.47542 -0.157097,-0.72967 -0.155029,-0.25631 -0.378271,-0.34313 -0.16123,-0.062 -0.518831,-0.062 h -0.636653 z m -1.50895,0.3576 v -3.0303 h 0.401008 v 3.0303 z m -3.028237,-0.97358 0.378271,-0.0331 q 0.02687,0.22737 0.124024,0.37413 0.09922,0.1447 0.305924,0.23565 0.206705,0.0889 0.465087,0.0889 0.229444,0 0.405143,-0.0682 0.1757,-0.0682 0.260449,-0.18604 0.08682,-0.11989 0.08682,-0.26045 0,-0.14262 -0.08268,-0.24804 -0.08268,-0.10749 -0.272851,-0.17984 -0.121956,-0.0475 -0.539501,-0.14676 -0.417546,-0.10128 -0.584977,-0.19017 -0.217041,-0.11368 -0.324528,-0.28112 -0.10542,-0.16949 -0.10542,-0.37827 0,-0.22944 0.130225,-0.42788 0.130224,-0.2005 0.380338,-0.30385 0.250114,-0.10336 0.556038,-0.10336 0.33693,0 0.593245,0.10956 0.258382,0.10748 0.396875,0.31832 0.138492,0.21084 0.148828,0.47749 l -0.384473,0.0289 q -0.03101,-0.28732 -0.210839,-0.43408 -0.177767,-0.14676 -0.5271,-0.14676 -0.363801,0 -0.531233,0.13436 -0.165364,0.13229 -0.165364,0.32039 0,0.1633 0.117822,0.26872 0.115755,0.10542 0.60358,0.21704 0.489892,0.10955 0.671793,0.19224 0.264583,0.12195 0.390674,0.31005 0.12609,0.18604 0.12609,0.42995 0,0.24185 -0.138493,0.45682 -0.138492,0.21291 -0.398941,0.3328 -0.258382,0.11782 -0.58291,0.11782 -0.411344,0 -0.690397,-0.11989 -0.276985,-0.11989 -0.436148,-0.35967 -0.157097,-0.24184 -0.165365,-0.5457 z" />
    </g>
    <g
       aria-label="SIDE"
       id="text710-5"
       style="font-size:4.23333px;line-height:1.25;font-family:Arial;-inkscape-font-specification:Arial;letter-spacing:0px;word-spacing:0px;fill:#ffffff;stroke-width:0.264583"
       transform="translate(131.87499,-108.49261)">
      <path
         id="path5640-5"
         style="fill:#ffffff;stroke-width:0.264583"
         d="m 28.280062,215.97125 v -3.0303 h 2.191079 v 0.3576 h -1.79007 v 0.92811 h 1.676382 v 0.35553 h -1.676382 v 1.03146 h 1.86035 v 0.3576 z m -3.065443,0 v -3.0303 h 1.043863 q 0.353466,0 0.539501,0.0434 0.260449,0.0599 0.444417,0.21704 0.239779,0.20257 0.357601,0.51883 0.119889,0.31419 0.119889,0.71933 0,0.3452 -0.08061,0.61185 -0.08062,0.26665 -0.206706,0.44235 -0.12609,0.17364 -0.276985,0.27492 -0.148828,0.0992 -0.361735,0.1509 -0.21084,0.0517 -0.485758,0.0517 z m 0.401008,-0.3576 h 0.646989 q 0.299723,0 0.469221,-0.0558 0.171566,-0.0558 0.272852,-0.15709 0.142627,-0.14263 0.221175,-0.38241 0.08061,-0.24185 0.08061,-0.58498 0,-0.47542 -0.157096,-0.72967 -0.15503,-0.25631 -0.378272,-0.34313 -0.16123,-0.062 -0.51883,-0.062 h -0.636654 z m -1.50895,0.3576 v -3.0303 h 0.401009 v 3.0303 z m -3.028237,-0.97358 0.378272,-0.0331 q 0.02687,0.22737 0.124023,0.37413 0.09922,0.1447 0.305924,0.23565 0.206706,0.0889 0.465088,0.0889 0.229443,0 0.405143,-0.0682 0.175699,-0.0682 0.260449,-0.18604 0.08682,-0.11989 0.08682,-0.26045 0,-0.14262 -0.08268,-0.24804 -0.08268,-0.10749 -0.272852,-0.17984 -0.121956,-0.0475 -0.539501,-0.14676 -0.417545,-0.10128 -0.584977,-0.19017 -0.217041,-0.11368 -0.324528,-0.28112 -0.105419,-0.16949 -0.105419,-0.37827 0,-0.22944 0.130224,-0.42788 0.130225,-0.2005 0.380338,-0.30385 0.250114,-0.10336 0.556038,-0.10336 0.33693,0 0.593245,0.10956 0.258382,0.10748 0.396875,0.31832 0.138493,0.21084 0.148828,0.47749 l -0.384473,0.0289 q -0.031,-0.28732 -0.210839,-0.43408 -0.177767,-0.14676 -0.527099,-0.14676 -0.363802,0 -0.531234,0.13436 -0.165364,0.13229 -0.165364,0.32039 0,0.1633 0.117822,0.26872 0.115755,0.10542 0.60358,0.21704 0.489892,0.10955 0.671793,0.19224 0.264583,0.12195 0.390674,0.31005 0.12609,0.18604 0.12609,0.42995 0,0.24185 -0.138492,0.45682 -0.138493,0.21291 -0.398942,0.3328 -0.258382,0.11782 -0.58291,0.11782 -0.411344,0 -0.690396,-0.11989 -0.276986,-0.11989 -0.436149,-0.35967 -0.157096,-0.24184 -0.165365,-0.5457 z" />
    </g>
    <g
       aria-label="SIDE"
       id="text710-8-93"
       style="font-size:4.23333px;line-height:1.25;font-family:Arial;-inkscape-font-specification:Arial;letter-spacing:0px;word-spacing:0px;fill:#ffffff;stroke-width:0.264583"
       transform="translate(131.87491,-108.49261)">
      <path
         id="path5622-0"
         style="fill:#ffffff;stroke-width:0.264583"
         d="m 61.571734,215.97125 v -3.0303 h 2.191079 v 0.3576 h -1.79007 v 0.92811 h 1.676382 v 0.35553 h -1.676382 v 1.03146 h 1.86035 v 0.3576 z m -3.065444,0 v -3.0303 h 1.043863 q 0.353467,0 0.539502,0.0434 0.260449,0.0599 0.444417,0.21704 0.239778,0.20257 0.3576,0.51883 0.11989,0.31419 0.11989,0.71933 0,0.3452 -0.08061,0.61185 -0.08062,0.26665 -0.206706,0.44235 -0.12609,0.17364 -0.276985,0.27492 -0.148828,0.0992 -0.361735,0.1509 -0.21084,0.0517 -0.485758,0.0517 z m 0.401009,-0.3576 h 0.646989 q 0.299723,0 0.469221,-0.0558 0.171566,-0.0558 0.272851,-0.15709 0.142627,-0.14263 0.221175,-0.38241 0.08062,-0.24185 0.08062,-0.58498 0,-0.47542 -0.157097,-0.72967 -0.155029,-0.25631 -0.378271,-0.34313 -0.16123,-0.062 -0.518831,-0.062 h -0.636653 z m -1.50895,0.3576 v -3.0303 h 0.401008 v 3.0303 z m -3.028237,-0.97358 0.378271,-0.0331 q 0.02687,0.22737 0.124024,0.37413 0.09922,0.1447 0.305924,0.23565 0.206705,0.0889 0.465087,0.0889 0.229444,0 0.405143,-0.0682 0.1757,-0.0682 0.260449,-0.18604 0.08682,-0.11989 0.08682,-0.26045 0,-0.14262 -0.08268,-0.24804 -0.08268,-0.10749 -0.272851,-0.17984 -0.121956,-0.0475 -0.539501,-0.14676 -0.417546,-0.10128 -0.584977,-0.19017 -0.217041,-0.11368 -0.324528,-0.28112 -0.10542,-0.16949 -0.10542,-0.37827 0,-0.22944 0.130225,-0.42788 0.130224,-0.2005 0.380338,-0.30385 0.250114,-0.10336 0.556038,-0.10336 0.33693,0 0.593245,0.10956 0.258382,0.10748 0.396875,0.31832 0.138492,0.21084 0.148828,0.47749 l -0.384473,0.0289 q -0.03101,-0.28732 -0.210839,-0.43408 -0.177767,-0.14676 -0.5271,-0.14676 -0.363801,0 -0.531233,0.13436 -0.165364,0.13229 -0.165364,0.32039 0,0.1633 0.117822,0.26872 0.115755,0.10542 0.60358,0.21704 0.489892,0.10955 0.671793,0.19224 0.264583,0.12195 0.390674,0.31005 0.12609,0.18604 0.12609,0.42995 0,0.24185 -0.138493,0.45682 -0.138492,0.21291 -0.398941,0.3328 -0.258382,0.11782 -0.58291,0.11782 -0.411344,0 -0.690397,-0.11989 -0.276985,-0.11989 -0.436148,-0.35967 -0.157097,-0.24184 -0.165365,-0.5457 z" />
    </g>
    <path
       id="rect107-7-66-9"
       style="opacity:1;fill:#000000;stroke-width:0.237082"
       d="m 275.55983,37.2099 h 29 v 137.507 h -29 z" />
    <g
       aria-label="DOOR"
       id="text714-9-7"
       style="font-size:4.23333px;line-height:1.25;font-family:Arial;-inkscape-font-specification:Arial;letter-spacing:0px;word-spacing:0px;fill:#ffffff;stroke-width:0.264583"
       transform="translate(131.3749,-171.41154)">
      <path
         id="path5595-1"
         style="fill:#ffffff;stroke-width:0.264583"
         d="m 162.17411,278.39111 v -3.0303 h 1.34359 q 0.40514,0 0.61598,0.0827 0.21084,0.0806 0.33693,0.28732 0.12609,0.20671 0.12609,0.45682 0,0.32246 -0.20877,0.54364 -0.20877,0.22117 -0.64492,0.28112 0.15916,0.0765 0.24184,0.15089 0.1757,0.16123 0.3328,0.40308 l 0.5271,0.82475 h -0.50436 l -0.40101,-0.63045 q -0.1757,-0.27285 -0.28939,-0.41754 -0.11369,-0.1447 -0.20464,-0.20258 -0.0889,-0.0579 -0.1819,-0.0806 -0.0682,-0.0145 -0.22324,-0.0145 h -0.46509 v 1.34565 z m 0.40101,-1.69292 h 0.86196 q 0.27492,0 0.42995,-0.0558 0.15503,-0.0579 0.23564,-0.1819 0.0806,-0.12609 0.0806,-0.27285 0,-0.21497 -0.1571,-0.35346 -0.15503,-0.1385 -0.49196,-0.1385 h -0.95911 z m -3.82199,0.21705 q 0,-0.75448 0.40515,-1.18029 0.40514,-0.42788 1.04593,-0.42788 0.41961,0 0.75654,0.2005 0.33693,0.20051 0.51263,0.56017 0.17777,0.3576 0.17777,0.81236 0,0.46095 -0.18604,0.82475 -0.18603,0.3638 -0.5271,0.5519 -0.34106,0.18604 -0.73587,0.18604 -0.42788,0 -0.76481,-0.20671 -0.33693,-0.2067 -0.51056,-0.5643 -0.17364,-0.3576 -0.17364,-0.75654 z m 0.41342,0.006 q 0,0.54777 0.29352,0.86403 0.29559,0.31419 0.74,0.31419 0.45269,0 0.74414,-0.31833 0.29353,-0.31832 0.29353,-0.9033 0,-0.37 -0.12609,-0.64492 -0.12403,-0.27699 -0.36587,-0.42788 -0.23978,-0.15297 -0.53951,-0.15297 -0.42581,0 -0.7338,0.29353 -0.30592,0.29145 -0.30592,0.97565 z m -3.70623,-0.006 q 0,-0.75448 0.40514,-1.18029 0.40514,-0.42788 1.04593,-0.42788 0.41961,0 0.75654,0.2005 0.33693,0.20051 0.51263,0.56017 0.17777,0.3576 0.17777,0.81236 0,0.46095 -0.18604,0.82475 -0.18603,0.3638 -0.5271,0.5519 -0.34106,0.18604 -0.73587,0.18604 -0.42788,0 -0.76481,-0.20671 -0.33693,-0.2067 -0.51056,-0.5643 -0.17363,-0.3576 -0.17363,-0.75654 z m 0.41341,0.006 q 0,0.54777 0.29352,0.86403 0.29559,0.31419 0.74,0.31419 0.45269,0 0.74414,-0.31833 0.29353,-0.31832 0.29353,-0.9033 0,-0.37 -0.12609,-0.64492 -0.12403,-0.27699 -0.36587,-0.42788 -0.23978,-0.15297 -0.5395,-0.15297 -0.42582,0 -0.73381,0.29353 -0.30592,0.29145 -0.30592,0.97565 z m -3.34863,1.46987 v -3.0303 h 1.04386 q 0.35347,0 0.5395,0.0434 0.26045,0.0599 0.44442,0.21704 0.23978,0.20257 0.3576,0.51883 0.11989,0.31419 0.11989,0.71934 0,0.34519 -0.0806,0.61184 -0.0806,0.26665 -0.2067,0.44235 -0.12609,0.17364 -0.27699,0.27492 -0.14883,0.0992 -0.36173,0.1509 -0.21084,0.0517 -0.48576,0.0517 z m 0.40101,-0.3576 h 0.64698 q 0.29973,0 0.46923,-0.0558 0.17156,-0.0558 0.27285,-0.15709 0.14262,-0.14263 0.22117,-0.38241 0.0806,-0.24184 0.0806,-0.58498 0,-0.47542 -0.1571,-0.72967 -0.15503,-0.25631 -0.37827,-0.34313 -0.16123,-0.062 -0.51883,-0.062 h -0.63665 z" />
    </g>
    <path
       id="rect107-7-66-9-3"
       style="opacity:1;fill:#000000;stroke-width:0.237082"
       d="m 309.85153,37.2099 h 29 v 137.507 h -29 z" />
    <g
       aria-label="DOOR"
       id="text714-9-7-7"
       style="font-size:4.23333px;line-height:1.25;font-family:Arial;-inkscape-font-specification:Arial;letter-spacing:0px;word-spacing:0px;fill:#ffffff;stroke-width:0.264583"
       transform="translate(165.6666,-171.41154)">
      <path
         id="path5595-1-7"
         style="fill:#ffffff;stroke-width:0.264583"
         d="m 162.17411,278.39111 v -3.0303 h 1.34359 q 0.40514,0 0.61598,0.0827 0.21084,0.0806 0.33693,0.28732 0.12609,0.20671 0.12609,0.45682 0,0.32246 -0.20877,0.54364 -0.20877,0.22117 -0.64492,0.28112 0.15916,0.0765 0.24184,0.15089 0.1757,0.16123 0.3328,0.40308 l 0.5271,0.82475 h -0.50436 l -0.40101,-0.63045 q -0.1757,-0.27285 -0.28939,-0.41754 -0.11369,-0.1447 -0.20464,-0.20258 -0.0889,-0.0579 -0.1819,-0.0806 -0.0682,-0.0145 -0.22324,-0.0145 h -0.46509 v 1.34565 z m 0.40101,-1.69292 h 0.86196 q 0.27492,0 0.42995,-0.0558 0.15503,-0.0579 0.23564,-0.1819 0.0806,-0.12609 0.0806,-0.27285 0,-0.21497 -0.1571,-0.35346 -0.15503,-0.1385 -0.49196,-0.1385 h -0.95911 z m -3.82199,0.21705 q 0,-0.75448 0.40515,-1.18029 0.40514,-0.42788 1.04593,-0.42788 0.41961,0 0.75654,0.2005 0.33693,0.20051 0.51263,0.56017 0.17777,0.3576 0.17777,0.81236 0,0.46095 -0.18604,0.82475 -0.18603,0.3638 -0.5271,0.5519 -0.34106,0.18604 -0.73587,0.18604 -0.42788,0 -0.76481,-0.20671 -0.33693,-0.2067 -0.51056,-0.5643 -0.17364,-0.3576 -0.17364,-0.75654 z m 0.41342,0.006 q 0,0.54777 0.29352,0.86403 0.29559,0.31419 0.74,0.31419 0.45269,0 0.74414,-0.31833 0.29353,-0.31832 0.29353,-0.9033 0,-0.37 -0.12609,-0.64492 -0.12403,-0.27699 -0.36587,-0.42788 -0.23978,-0.15297 -0.53951,-0.15297 -0.42581,0 -0.7338,0.29353 -0.30592,0.29145 -0.30592,0.97565 z m -3.70623,-0.006 q 0,-0.75448 0.40514,-1.18029 0.40514,-0.42788 1.04593,-0.42788 0.41961,0 0.75654,0.2005 0.33693,0.20051 0.51263,0.56017 0.17777,0.3576 0.17777,0.81236 0,0.46095 -0.18604,0.82475 -0.18603,0.3638 -0.5271,0.5519 -0.34106,0.18604 -0.73587,0.18604 -0.42788,0 -0.76481,-0.20671 -0.33693,-0.2067 -0.51056,-0.5643 -0.17363,-0.3576 -0.17363,-0.75654 z m 0.41341,0.006 q 0,0.54777 0.29352,0.86403 0.29559,0.31419 0.74,0.31419 0.45269,0 0.74414,-0.31833 0.29353,-0.31832 0.29353,-0.9033 0,-0.37 -0.12609,-0.64492 -0.12403,-0.27699 -0.36587,-0.42788 -0.23978,-0.15297 -0.5395,-0.15297 -0.42582,0 -0.73381,0.29353 -0.30592,0.29145 -0.30592,0.97565 z m -3.34863,1.46987 v -3.0303 h 1.04386 q 0.35347,0 0.5395,0.0434 0.26045,0.0599 0.44442,0.21704 0.23978,0.20257 0.3576,0.51883 0.11989,0.31419 0.11989,0.71934 0,0.34519 -0.0806,0.61184 -0.0806,0.26665 -0.2067,0.44235 -0.12609,0.17364 -0.27699,0.27492 -0.14883,0.0992 -0.36173,0.1509 -0.21084,0.0517 -0.48576,0.0517 z m 0.40101,-0.3576 h 0.64698 q 0.29973,0 0.46923,-0.0558 0.17156,-0.0558 0.27285,-0.15709 0.14262,-0.14263 0.22117,-0.38241 0.0806,-0.24184 0.0806,-0.58498 0,-0.47542 -0.1571,-0.72967 -0.15503,-0.25631 -0.37827,-0.34313 -0.16123,-0.062 -0.51883,-0.062 h -0.63665 z" />
    </g>
    <g
       aria-label="BACK"
       id="text379"
       style="font-size:4.23333px;line-height:1.25;font-family:Arial;-inkscape-font-specification:Arial;letter-spacing:0px;word-spacing:0px;fill:#ffffff;stroke-width:0.264583"
       transform="translate(4.938895,-6.357405)">
      <path
         id="path387"
         style="font-size:4.23333px;fill:#ffffff;stroke-width:0.264583"
         d="m 238.42879,113.83598 v -3.0303 h 0.40101 v 1.50275 l 1.50482,-1.50275 h 0.54363 l -1.27124,1.22783 1.32705,1.80247 h -0.52916 l -1.07901,-1.53375 -0.49609,0.48369 v 1.05006 z m -0.8785,-1.06246 0.40101,0.10128 q -0.12609,0.49403 -0.45475,0.75448 -0.3266,0.25838 -0.79996,0.25838 -0.48989,0 -0.79788,-0.19844 -0.30592,-0.2005 -0.46715,-0.57877 -0.15917,-0.37828 -0.15917,-0.81236 0,-0.47335 0.17984,-0.82475 0.1819,-0.35347 0.51469,-0.53537 0.33487,-0.18397 0.73588,-0.18397 0.45475,0 0.76481,0.23151 0.31006,0.23151 0.43201,0.65112 l -0.39481,0.093 q -0.10542,-0.33073 -0.30592,-0.48162 -0.2005,-0.1509 -0.50436,-0.1509 -0.34933,0 -0.58498,0.16743 -0.23358,0.16744 -0.32866,0.45062 -0.0951,0.28112 -0.0951,0.58085 0,0.38654 0.11162,0.67592 0.11369,0.28732 0.3514,0.42995 0.23772,0.14263 0.5147,0.14263 0.33693,0 0.57051,-0.19431 0.23358,-0.1943 0.31626,-0.5767 z m -5.31854,1.06246 1.16375,-3.0303 h 0.43202 l 1.24023,3.0303 h -0.45682 l -0.35346,-0.91777 h -1.26711 l -0.33279,0.91777 z m 0.87437,-1.24437 h 1.02732 l -0.31626,-0.83922 q -0.14469,-0.38241 -0.21497,-0.62839 -0.0579,0.29146 -0.1633,0.57878 z m -3.38171,1.24437 v -3.0303 h 1.13688 q 0.34727,0 0.55604,0.093 0.21084,0.0909 0.32866,0.28318 0.11989,0.19017 0.11989,0.39894 0,0.19431 -0.10542,0.36587 -0.10542,0.17157 -0.31832,0.27699 0.27491,0.0806 0.42168,0.27492 0.14882,0.1943 0.14882,0.45888 0,0.21291 -0.0909,0.39688 -0.0889,0.1819 -0.22117,0.28112 -0.13229,0.0992 -0.3328,0.15089 -0.19844,0.0496 -0.48782,0.0496 z m 0.40101,-1.757 h 0.65526 q 0.26665,0 0.3824,-0.0351 0.15297,-0.0455 0.22945,-0.15089 0.0785,-0.10542 0.0785,-0.26458 0,-0.1509 -0.0723,-0.26459 -0.0724,-0.11575 -0.20671,-0.15709 -0.13436,-0.0434 -0.46095,-0.0434 h -0.60565 z m 0,1.3994 h 0.75448 q 0.1943,0 0.27285,-0.0145 0.13849,-0.0248 0.23151,-0.0827 0.093,-0.0579 0.15296,-0.16743 0.0599,-0.11162 0.0599,-0.25632 0,-0.16949 -0.0868,-0.29352 -0.0868,-0.12609 -0.24185,-0.1757 -0.15296,-0.0517 -0.44235,-0.0517 h -0.70073 z" />
    </g>
    <g
       aria-label="BACK"
       id="text379-8"
       style="font-size:4.23333px;line-height:1.25;font-family:Arial;-inkscape-font-specification:Arial;letter-spacing:0px;word-spacing:0px;fill:#ffffff;stroke-width:0.264583"
       transform="translate(-126.93596,164.68053)">
      <path
         id="path387-1"
         style="font-size:4.23333px;fill:#ffffff;stroke-width:0.264583"
         d="m 238.42879,113.83598 v -3.0303 h 0.40101 v 1.50275 l 1.50482,-1.50275 h 0.54363 l -1.27124,1.22783 1.32705,1.80247 h -0.52916 l -1.07901,-1.53375 -0.49609,0.48369 v 1.05006 z m -0.8785,-1.06246 0.40101,0.10128 q -0.12609,0.49403 -0.45475,0.75448 -0.3266,0.25838 -0.79996,0.25838 -0.48989,0 -0.79788,-0.19844 -0.30592,-0.2005 -0.46715,-0.57877 -0.15917,-0.37828 -0.15917,-0.81236 0,-0.47335 0.17984,-0.82475 0.1819,-0.35347 0.51469,-0.53537 0.33487,-0.18397 0.73588,-0.18397 0.45475,0 0.76481,0.23151 0.31006,0.23151 0.43201,0.65112 l -0.39481,0.093 q -0.10542,-0.33073 -0.30592,-0.48162 -0.2005,-0.1509 -0.50436,-0.1509 -0.34933,0 -0.58498,0.16743 -0.23358,0.16744 -0.32866,0.45062 -0.0951,0.28112 -0.0951,0.58085 0,0.38654 0.11162,0.67592 0.11369,0.28732 0.3514,0.42995 0.23772,0.14263 0.5147,0.14263 0.33693,0 0.57051,-0.19431 0.23358,-0.1943 0.31626,-0.5767 z m -5.31854,1.06246 1.16375,-3.0303 h 0.43202 l 1.24023,3.0303 h -0.45682 l -0.35346,-0.91777 h -1.26711 l -0.33279,0.91777 z m 0.87437,-1.24437 h 1.02732 l -0.31626,-0.83922 q -0.14469,-0.38241 -0.21497,-0.62839 -0.0579,0.29146 -0.1633,0.57878 z m -3.38171,1.24437 v -3.0303 h 1.13688 q 0.34727,0 0.55604,0.093 0.21084,0.0909 0.32866,0.28318 0.11989,0.19017 0.11989,0.39894 0,0.19431 -0.10542,0.36587 -0.10542,0.17157 -0.31832,0.27699 0.27491,0.0806 0.42168,0.27492 0.14882,0.1943 0.14882,0.45888 0,0.21291 -0.0909,0.39688 -0.0889,0.1819 -0.22117,0.28112 -0.13229,0.0992 -0.3328,0.15089 -0.19844,0.0496 -0.48782,0.0496 z m 0.40101,-1.757 h 0.65526 q 0.26665,0 0.3824,-0.0351 0.15297,-0.0455 0.22945,-0.15089 0.0785,-0.10542 0.0785,-0.26458 0,-0.1509 -0.0723,-0.26459 -0.0724,-0.11575 -0.20671,-0.15709 -0.13436,-0.0434 -0.46095,-0.0434 h -0.60565 z m 0,1.3994 h 0.75448 q 0.1943,0 0.27285,-0.0145 0.13849,-0.0248 0.23151,-0.0827 0.093,-0.0579 0.15296,-0.16743 0.0599,-0.11162 0.0599,-0.25632 0,-0.16949 -0.0868,-0.29352 -0.0868,-0.12609 -0.24185,-0.1757 -0.15296,-0.0517 -0.44235,-0.0517 h -0.70073 z" />
    </g>
    <path
       id="rect107-7-66-9-3-9"
       style="opacity:1;fill:#ff0000;stroke-width:0.237082"
       d="m 344.14323,37.2099 v 137.50685 h 29.00032 V 37.2099 Z m 5.00023,5.000212 h 18.99986 V 169.71706 h -18.99986 z" />
    <path
       id="path446"
       style="fill:none;stroke:#000000;stroke-width:0.264583px;stroke-linecap:butt;stroke-linejoin:miter;stroke-opacity:1"
       d="m 368.14331,169.71706 c 5.00023,4.99969 5.00023,4.99969 5.00023,4.99969 m -24.00009,-4.99969 c -5.00023,4.99969 -5.00023,4.99969 -5.00023,4.99969 M 373.14354,37.209899 c -5.00023,5.000212 -5.00023,5.000212 -5.00023,5.000212 m -24.00009,-5.000212 c 5.00023,5.000212 5.00023,5.000212 5.00023,5.000212" />
    <path
       id="rect107-7-66-9-3-9-6"
       style="opacity:1;fill:#ff0000;stroke-width:0.237082"
       d="M 378.43526,37.209901 V 174.71675 h 29.00032 V 37.209901 Z m 5.00023,5.000212 h 18.99986 V 169.71706 h -18.99986 z" />
    <path
       id="path446-4"
       style="fill:none;stroke:#000000;stroke-width:0.264583px;stroke-linecap:butt;stroke-linejoin:miter;stroke-opacity:1"
       d="m 402.43534,169.71706 c 5.00023,4.99969 5.00023,4.99969 5.00023,4.99969 m -24.00009,-4.99969 c -5.00023,4.99969 -5.00023,4.99969 -5.00023,4.99969 M 407.43557,37.2099 c -5.00023,5.000212 -5.00023,5.000212 -5.00023,5.000212 M 378.43525,37.2099 c 5.00023,5.000212 5.00023,5.000212 5.00023,5.000212" />
    <path
       id="path495"
       style="fill:none;stroke:#000000;stroke-width:0.264583px;stroke-linecap:butt;stroke-linejoin:miter;stroke-opacity:1"
       d="m 32.810235,300.88197 c 4.999697,5.00022 4.999697,5.00022 4.999697,5.00022 m -28.9997791,0 c 4.9996941,-5.00022 4.9996941,-5.00022 4.9996941,-5.00022 m 24.000085,-52.25364 c -4.999697,4.9997 -4.999697,4.9997 -4.999697,4.9997 m -24.0000821,-4.9997 c 4.9996941,4.9997 4.9996941,4.9997 4.9996941,4.9997" />
    <path
       id="rect501-0-6"
       style="opacity:1;fill:#ff0000;stroke-width:0.372443"
       d="m 177.97667,248.37482 v 57.25387 h 28.99978 v -57.25387 z m 4.9997,4.9997 h 19.00039 v 47.25395 h -19.00039 z" />
    <path
       id="path495-3"
       style="fill:none;stroke:#000000;stroke-width:0.264583px;stroke-linecap:butt;stroke-linejoin:miter;stroke-opacity:1"
       d="m 201.97676,300.62846 c 4.99969,5.00022 4.99969,5.00022 4.99969,5.00022 m -28.99978,0 c 4.9997,-5.00022 4.9997,-5.00022 4.9997,-5.00022 m 24.00008,-52.25364 c -4.99969,4.9997 -4.99969,4.9997 -4.99969,4.9997 m -24.00009,-4.9997 c 4.9997,4.9997 4.9997,4.9997 4.9997,4.9997" />
    <path
       id="rect153-6-8-5-9"
       style="opacity:1;fill:#000000;stroke-width:0.258408"
       d="m 210.26821,185.82935 v 11.99979 h 1.68 a 52.75064,52.75064 0 0 1 28.32023,-8.24704 52.75064,52.75064 0 0 1 28.32024,8.24704 h 1.67949 v -11.99979 z" />
  </g>
</svg>
