999
FreeCAD v0.19 24267 +148 (Git)
  0
SECTION
  2
HEADER
  9
$ACADVER
  1
AC1014
  9
$ACADMAINTVER
 70
     9
  9
$DWGCODEPAGE
  3
ANSI_1252
  9
$TEXTSTYLE
  7
STANDARD
  9
$DIMSTYLE
  2
STANDARD
  9
$DIMTXSTY
  7
STANDARD
  9
$CMLSTYLE
  2
STANDARD
  9
$PEXTMAX
 10
50
 20
50
 30
50
  9
$PEXTMIN
 10
0
 20
0
 30
0
  9
$HANDSEED
  5
FFFF
  0
ENDSEC
  0
SECTION
  2
CLASSES
  0
CLASS
  1
ACDBDICTIONARYWDFLT
  2
AcDbDictionaryWithDefault
  3
ObjectDBX Classes
 90
        0
280
     0
281
     0
  0
CLASS
  1
XRECORD
  2
AcDbXrecord
  3
ObjectDBX Classes
 90
        0
280
     0
281
     0
  0
CLASS
  1
LWPOLYLINE
  2
AcDbPolyline
  3
ObjectDBX Classes
 90
        0
280
     0
281
     1
  0
ENDSEC
  0
SECTION
  2
TABLES
  0
TABLE
  2
VPORT
  5
20
330
0
100
AcDbSymbolTable
 70
     1
  0
VPORT
  5
21
330
20
100
AcDbSymbolTableRecord
100
AcDbViewportTableRecord
  2
*ACTIVE
 70
     0
  0
ENDTAB
  0
TABLE
  2
LTYPE
  5
22
330
0
100
AcDbSymbolTable
 70
     1
  0
LTYPE
  5
23
330
21
100
AcDbSymbolTableRecord
100
AcDbLinetypeTableRecord
  2
BYBLOCK
 70
     0
  3

 72
    65
 73
     0
 40
0.0
  0
LTYPE
  5
24
330
21
100
AcDbSymbolTableRecord
100
AcDbLinetypeTableRecord
  2
BYLAYER
 70
     0
  3

 72
    65
 73
     0
 40
0.0
  0
LTYPE
  5
25
330
21
100
AcDbSymbolTableRecord
100
AcDbLinetypeTableRecord
  2
CONTINUOUS
 70
     0
  3
Solid line
 72
    65
 73
     0
 40
0.0
  0
ENDTAB
  0
TABLE
  2
LAYER
  5
A85
330
0
100
AcDbSymbolTable
 70
2
  0
LAYER
  5
A86
330
A85
100
AcDbSymbolTableRecord
100
AcDbLayerTableRecord
  2
0
 70
   0
 62
   7
  6
CONTINUOUS
  0
LAYER
  5
A87
330
A85
100
AcDbSymbolTableRecord
100
AcDbLayerTableRecord
  2
View001
 70
    0
 62
    7
  6
CONTINUOUS
  0
ENDTAB
  0
TABLE
  2
STYLE
  5
70
330
0
100
AcDbSymbolTable
 70
     2
  0
STYLE
  5
71
330
70
100
AcDbSymbolTableRecord
100
AcDbTextStyleTableRecord
  2
STANDARD
 70
     0
 40
0.0
 41
1.0
 50
0.0
 71
     0
 42
2.5
  3
arial.ttf
  4

  0
STYLE
  5
72
330
70
100
AcDbSymbolTableRecord
100
AcDbTextStyleTableRecord
  2
ANNOTATIVE
 70
     0
 40
0.0
 41
1.0
 50
0.0
 71
     0
 42
2.5
  3
arial.ttf
  4

  0
ENDTAB
  0
TABLE
  2
VIEW
  5
73
330
0
100
AcDbSymbolTable
 70
     0
  0
ENDTAB
  0
TABLE
  2
UCS
  5
74
330
0
100
AcDbSymbolTable
 70
     0
  0
ENDTAB
  0
TABLE
  2
APPID
  5
75
330
0
100
AcDbSymbolTable
 70
     2
  0
APPID
  5
76
330
75
100
AcDbSymbolTableRecord
100
AcDbRegAppTableRecord
  2
ACAD
 70
     0
  0
APPID
  5
77
330
75
100
AcDbSymbolTableRecord
100
AcDbRegAppTableRecord
  2
ACADANNOTATIVE
 70
     0
  0
ENDTAB
  0
TABLE
  2
DIMSTYLE
  5
78
330
0
100
AcDbSymbolTable
 70
     2
  0
DIMSTYLE
105
79
330
78
100
AcDbSymbolTableRecord
100
AcDbDimStyleTableRecord
  2
STANDARD
 70
     0
  3

  4

  5

  6

  7

 40
0.0
 41
2.5
 42
0.625
 43
3.75
 44
1.25
 45
0.0
 46
0.0
 47
0.0
 48
0.0
140
2.5
141
2.5
142
0.0
143
0.03937007874016
144
1.0
145
0.0
146
1.0
147
0.625
 71
     0
 72
     0
 73
     0
 74
     0
 75
     0
 76
     0
 77
     1
 78
     8
170
     0
171
     3
172
     1
173
     0
174
     0
175
     0
176
     0
177
     0
178
     0
270
     2
271
     2
272
     2
273
     2
274
     3
340
71
275
     0
280
     0
281
     0
282
     0
283
     0
284
     8
285
     0
286
     0
287
     3
288
     0
  0
ENDTAB
  0
TABLE
  2
BLOCK_RECORD
  5
A01
330
0
100
AcDbSymbolTable
  70
5
  0
BLOCK_RECORD
  5
A02
330
A01
100
AcDbSymbolTableRecord
100
AcDbBlockTableRecord
  2
*MODEL_SPACE
  0
BLOCK_RECORD
  5
A03
330
A01
100
AcDbSymbolTableRecord
100
AcDbBlockTableRecord
  2
*PAPER_SPACE
  0
ENDTAB
  0
ENDSEC
  0
SECTION
  2
BLOCKS
  0
BLOCK
  5
A04
330
A02
100
AcDbEntity
  8
0
100
AcDbBlockBegin
  2
*MODEL_SPACE
 70
   0
 10
0
 20
0
 30
0
  3
*MODEL_SPACE
  1
 
  0
ENDBLK
  5
A05
330
A02
100
AcDbEntity
  8
0
100
AcDbBlockEnd
  0
BLOCK
  5
A06
330
A03
100
AcDbEntity
 67
1
  8
0
100
AcDbBlockBegin
  2
*PAPER_SPACE
 70
   0
 10
0
 20
0
 30
0
  3
*PAPER_SPACE
  1
 
  0
ENDBLK
  5
A07
330
A03
100
AcDbEntity
 67
    1
  8
0
100
AcDbBlockEnd
  0
ENDSEC
  0
SECTION
  2
ENTITIES
  0
LINE
  5
A08
330
A02
100
AcDbEntity
  8
View001
100
AcDbLine
 10
164.227
 20
186.531
 30
0
 11
126.227
 21
186.531
 31
0
  0
LINE
  5
A09
330
A02
100
AcDbEntity
  8
View001
100
AcDbLine
 10
164.227
 20
118.431
 30
0
 11
164.227
 21
186.531
 31
0
  0
LINE
  5
A0A
330
A02
100
AcDbEntity
  8
View001
100
AcDbLine
 10
126.227
 20
186.531
 30
0
 11
126.227
 21
191.281
 31
0
  0
LINE
  5
A0B
330
A02
100
AcDbEntity
  8
View001
100
AcDbLine
 10
105.532
 20
118.431
 30
0
 11
164.227
 21
118.431
 31
0
  0
LINE
  5
A0C
330
A02
100
AcDbEntity
  8
View001
100
AcDbLine
 10
126.227
 20
191.281
 30
0
 11
107.227
 21
191.281
 31
0
  0
LINE
  5
A0D
330
A02
100
AcDbEntity
  8
View001
100
AcDbLine
 10
95.0594
 20
104.032
 30
0
 11
105.532
 21
118.431
 31
0
  0
LINE
  5
A0E
330
A02
100
AcDbEntity
  8
View001
100
AcDbLine
 10
107.227
 20
191.281
 30
0
 11
107.227
 21
193.651
 31
0
  0
LINE
  5
A0F
330
A02
100
AcDbEntity
  8
View001
100
AcDbLine
 10
56.4105
 20
99.028
 30
0
 11
95.0594
 21
104.032
 31
0
  0
LINE
  5
A10
330
A02
100
AcDbEntity
  8
View001
100
AcDbLine
 10
107.227
 20
193.651
 30
0
 11
77.2268
 21
193.651
 31
0
  0
LINE
  5
A11
330
A02
100
AcDbEntity
  8
View001
100
AcDbLine
 10
36.3763
 20
87.4612
 30
0
 11
56.4105
 21
99.028
 31
0
  0
LINE
  5
A12
330
A02
100
AcDbEntity
  8
View001
100
AcDbLine
 10
77.2268
 20
193.651
 30
0
 11
77.2268
 21
191.281
 31
0
  0
LINE
  5
A13
330
A02
100
AcDbEntity
  8
View001
100
AcDbLine
 10
18.8224
 20
117.865
 30
0
 11
36.3763
 21
87.4612
 31
0
  0
LINE
  5
A14
330
A02
100
AcDbEntity
  8
View001
100
AcDbLine
 10
77.2268
 20
191.281
 30
0
 11
57.2268
 21
191.281
 31
0
  0
LINE
  5
A15
330
A02
100
AcDbEntity
  8
View001
100
AcDbLine
 10
18.8224
 20
188.911
 30
0
 11
18.8224
 21
117.865
 31
0
  0
LINE
  5
A16
330
A02
100
AcDbEntity
  8
View001
100
AcDbLine
 10
57.2268
 20
191.281
 30
0
 11
57.2268
 21
188.911
 31
0
  0
LINE
  5
A17
330
A02
100
AcDbEntity
  8
View001
100
AcDbLine
 10
57.2268
 20
188.911
 30
0
 11
18.8224
 21
188.911
 31
0
  0
LINE
  5
A18
330
A02
100
AcDbEntity
  8
View001
100
AcDbLine
 10
160.227
 20
182.531
 30
0
 11
122.227
 21
182.531
 31
0
  0
LINE
  5
A19
330
A02
100
AcDbEntity
  8
View001
100
AcDbLine
 10
122.227
 20
182.531
 30
0
 11
122.227
 21
187.281
 31
0
  0
LINE
  5
A1A
330
A02
100
AcDbEntity
  8
View001
100
AcDbLine
 10
122.227
 20
187.281
 30
0
 11
103.227
 21
187.281
 31
0
  0
LINE
  5
A1B
330
A02
100
AcDbEntity
  8
View001
100
AcDbLine
 10
103.227
 20
187.281
 30
0
 11
103.227
 21
189.281
 31
0
  0
LINE
  5
A1C
330
A02
100
AcDbEntity
  8
View001
100
AcDbLine
 10
103.227
 20
189.281
 30
0
 11
81.2268
 21
189.281
 31
0
  0
LINE
  5
A1D
330
A02
100
AcDbEntity
  8
View001
100
AcDbLine
 10
81.2268
 20
189.281
 30
0
 11
81.2268
 21
187.281
 31
0
  0
LINE
  5
A1E
330
A02
100
AcDbEntity
  8
View001
100
AcDbLine
 10
81.2268
 20
187.281
 30
0
 11
61.2268
 21
187.281
 31
0
  0
LINE
  5
A1F
330
A02
100
AcDbEntity
  8
View001
100
AcDbLine
 10
61.2268
 20
187.281
 30
0
 11
61.2268
 21
184.911
 31
0
  0
LINE
  5
A20
330
A02
100
AcDbEntity
  8
View001
100
AcDbLine
 10
61.2268
 20
184.911
 30
0
 11
22.8224
 21
184.911
 31
0
  0
LINE
  5
A21
330
A02
100
AcDbEntity
  8
View001
100
AcDbLine
 10
22.8224
 20
184.911
 30
0
 11
22.8224
 21
118.937
 31
0
  0
LINE
  5
A22
330
A02
100
AcDbEntity
  8
View001
100
AcDbLine
 10
22.8224
 20
118.937
 30
0
 11
37.8404
 21
92.9253
 31
0
  0
LINE
  5
A23
330
A02
100
AcDbEntity
  8
View001
100
AcDbLine
 10
37.8404
 20
92.9253
 30
0
 11
55.1034
 21
102.892
 31
0
  0
LINE
  5
A24
330
A02
100
AcDbEntity
  8
View001
100
AcDbLine
 10
55.1034
 20
102.892
 30
0
 11
92.8377
 21
107.778
 31
0
  0
LINE
  5
A25
330
A02
100
AcDbEntity
  8
View001
100
AcDbLine
 10
92.8377
 20
107.778
 30
0
 11
103.495
 21
122.431
 31
0
  0
LINE
  5
A26
330
A02
100
AcDbEntity
  8
View001
100
AcDbLine
 10
103.495
 20
122.431
 30
0
 11
160.227
 21
122.431
 31
0
  0
LINE
  5
A27
330
A02
100
AcDbEntity
  8
View001
100
AcDbLine
 10
160.227
 20
122.431
 30
0
 11
160.227
 21
182.531
 31
0
  0
LINE
  5
A28
330
A02
100
AcDbEntity
  8
View001
100
AcDbLine
 10
29.9295
 20
114.627
 30
0
 11
42.0538
 21
121.627
 31
0
  0
LINE
  5
A29
330
A02
100
AcDbEntity
  8
View001
100
AcDbLine
 10
36.9295
 20
102.503
 30
0
 11
29.9295
 21
114.627
 31
0
  0
LINE
  5
A2A
330
A02
100
AcDbEntity
  8
View001
100
AcDbLine
 10
49.0538
 20
109.503
 30
0
 11
36.9295
 21
102.503
 31
0
  0
LINE
  5
A2B
330
A02
100
AcDbEntity
  8
View001
100
AcDbLine
 10
42.0538
 20
121.627
 30
0
 11
49.0538
 21
109.503
 31
0
  0
CIRCLE
  5
A2C
330
A02
100
AcDbEntity
  8
View001
100
AcDbCircle
 10
49.9724
 20
118.161
 40
1
  0
LINE
  5
A2D
330
A02
100
AcDbEntity
  8
View001
100
AcDbLine
 10
53.2304
 20
120.827
 30
0
 11
66.7533
 21
124.451
 31
0
  0
LINE
  5
A2E
330
A02
100
AcDbEntity
  8
View001
100
AcDbLine
 10
56.8538
 20
107.304
 30
0
 11
53.2304
 21
120.827
 31
0
  0
LINE
  5
A2F
330
A02
100
AcDbEntity
  8
View001
100
AcDbLine
 10
70.3768
 20
110.928
 30
0
 11
56.8538
 21
107.304
 31
0
  0
LINE
  5
A30
330
A02
100
AcDbEntity
  8
View001
100
AcDbLine
 10
66.7533
 20
124.451
 30
0
 11
70.3768
 21
110.928
 31
0
  0
LINE
  5
A31
330
A02
100
AcDbEntity
  8
View001
100
AcDbLine
 10
75.7268
 20
125.651
 30
0
 11
89.7268
 21
125.651
 31
0
  0
LINE
  5
A32
330
A02
100
AcDbEntity
  8
View001
100
AcDbLine
 10
75.7268
 20
111.651
 30
0
 11
75.7268
 21
125.651
 31
0
  0
LINE
  5
A33
330
A02
100
AcDbEntity
  8
View001
100
AcDbLine
 10
89.7268
 20
111.651
 30
0
 11
75.7268
 21
111.651
 31
0
  0
LINE
  5
A34
330
A02
100
AcDbEntity
  8
View001
100
AcDbLine
 10
89.7268
 20
125.651
 30
0
 11
89.7268
 21
111.651
 31
0
  0
LINE
  5
A35
330
A02
100
AcDbEntity
  8
View001
100
AcDbLine
 10
47.2268
 20
142.911
 30
0
 11
61.2268
 21
142.911
 31
0
  0
LINE
  5
A36
330
A02
100
AcDbEntity
  8
View001
100
AcDbLine
 10
47.2268
 20
128.911
 30
0
 11
47.2268
 21
142.911
 31
0
  0
LINE
  5
A37
330
A02
100
AcDbEntity
  8
View001
100
AcDbLine
 10
61.2268
 20
128.911
 30
0
 11
47.2268
 21
128.911
 31
0
  0
LINE
  5
A38
330
A02
100
AcDbEntity
  8
View001
100
AcDbLine
 10
61.2268
 20
142.911
 30
0
 11
61.2268
 21
128.911
 31
0
  0
LINE
  5
A39
330
A02
100
AcDbEntity
  8
View001
100
AcDbLine
 10
66.2268
 20
145.281
 30
0
 11
80.2268
 21
145.281
 31
0
  0
LINE
  5
A3A
330
A02
100
AcDbEntity
  8
View001
100
AcDbLine
 10
66.2268
 20
131.281
 30
0
 11
66.2268
 21
145.281
 31
0
  0
LINE
  5
A3B
330
A02
100
AcDbEntity
  8
View001
100
AcDbLine
 10
80.2268
 20
131.281
 30
0
 11
66.2268
 21
131.281
 31
0
  0
LINE
  5
A3C
330
A02
100
AcDbEntity
  8
View001
100
AcDbLine
 10
80.2268
 20
145.281
 30
0
 11
80.2268
 21
131.281
 31
0
  0
CIRCLE
  5
A3D
330
A02
100
AcDbEntity
  8
View001
100
AcDbCircle
 10
96.4768
 20
125.931
 40
1
  0
LINE
  5
A3E
330
A02
100
AcDbEntity
  8
View001
100
AcDbLine
 10
85.2268
 20
147.651
 30
0
 11
99.2268
 21
147.651
 31
0
  0
LINE
  5
A3F
330
A02
100
AcDbEntity
  8
View001
100
AcDbLine
 10
85.2268
 20
133.651
 30
0
 11
85.2268
 21
147.651
 31
0
  0
LINE
  5
A40
330
A02
100
AcDbEntity
  8
View001
100
AcDbLine
 10
99.2268
 20
133.651
 30
0
 11
85.2268
 21
133.651
 31
0
  0
LINE
  5
A41
330
A02
100
AcDbEntity
  8
View001
100
AcDbLine
 10
99.2268
 20
147.651
 30
0
 11
99.2268
 21
133.651
 31
0
  0
LINE
  5
A42
330
A02
100
AcDbEntity
  8
View001
100
AcDbLine
 10
104.227
 20
145.281
 30
0
 11
118.227
 21
145.281
 31
0
  0
LINE
  5
A43
330
A02
100
AcDbEntity
  8
View001
100
AcDbLine
 10
104.227
 20
131.281
 30
0
 11
104.227
 21
145.281
 31
0
  0
LINE
  5
A44
330
A02
100
AcDbEntity
  8
View001
100
AcDbLine
 10
118.227
 20
131.281
 30
0
 11
104.227
 21
131.281
 31
0
  0
LINE
  5
A45
330
A02
100
AcDbEntity
  8
View001
100
AcDbLine
 10
118.227
 20
145.281
 30
0
 11
118.227
 21
131.281
 31
0
  0
LINE
  5
A46
330
A02
100
AcDbEntity
  8
View001
100
AcDbLine
 10
123.227
 20
140.531
 30
0
 11
137.227
 21
140.531
 31
0
  0
LINE
  5
A47
330
A02
100
AcDbEntity
  8
View001
100
AcDbLine
 10
123.227
 20
126.531
 30
0
 11
123.227
 21
140.531
 31
0
  0
LINE
  5
A48
330
A02
100
AcDbEntity
  8
View001
100
AcDbLine
 10
137.227
 20
126.531
 30
0
 11
123.227
 21
126.531
 31
0
  0
LINE
  5
A49
330
A02
100
AcDbEntity
  8
View001
100
AcDbLine
 10
137.227
 20
140.531
 30
0
 11
137.227
 21
126.531
 31
0
  0
LINE
  5
A4A
330
A02
100
AcDbEntity
  8
View001
100
AcDbLine
 10
142.227
 20
140.531
 30
0
 11
156.227
 21
140.531
 31
0
  0
LINE
  5
A4B
330
A02
100
AcDbEntity
  8
View001
100
AcDbLine
 10
142.227
 20
126.531
 30
0
 11
142.227
 21
140.531
 31
0
  0
LINE
  5
A4C
330
A02
100
AcDbEntity
  8
View001
100
AcDbLine
 10
156.227
 20
126.531
 30
0
 11
142.227
 21
126.531
 31
0
  0
LINE
  5
A4D
330
A02
100
AcDbEntity
  8
View001
100
AcDbLine
 10
156.227
 20
140.531
 30
0
 11
156.227
 21
126.531
 31
0
  0
CIRCLE
  5
A4E
330
A02
100
AcDbEntity
  8
View001
100
AcDbCircle
 10
139.727
 20
143.131
 40
1
  0
LINE
  5
A4F
330
A02
100
AcDbEntity
  8
View001
100
AcDbLine
 10
25.3224
 20
182.411
 30
0
 11
44.7268
 21
182.411
 31
0
  0
LINE
  5
A50
330
A02
100
AcDbEntity
  8
View001
100
AcDbLine
 10
44.7268
 20
182.411
 30
0
 11
44.7268
 21
129.973
 31
0
  0
LINE
  5
A51
330
A02
100
AcDbEntity
  8
View001
100
AcDbLine
 10
25.3224
 20
118.973
 30
0
 11
25.3224
 21
182.411
 31
0
  0
LINE
  5
A52
330
A02
100
AcDbEntity
  8
View001
100
AcDbLine
 10
44.7268
 20
129.973
 30
0
 11
25.3224
 21
118.973
 31
0
  0
LINE
  5
A53
330
A02
100
AcDbEntity
  8
View001
100
AcDbLine
 10
47.2268
 20
161.911
 30
0
 11
61.2268
 21
161.911
 31
0
  0
LINE
  5
A54
330
A02
100
AcDbEntity
  8
View001
100
AcDbLine
 10
47.2268
 20
147.911
 30
0
 11
47.2268
 21
161.911
 31
0
  0
LINE
  5
A55
330
A02
100
AcDbEntity
  8
View001
100
AcDbLine
 10
61.2268
 20
147.911
 30
0
 11
47.2268
 21
147.911
 31
0
  0
LINE
  5
A56
330
A02
100
AcDbEntity
  8
View001
100
AcDbLine
 10
61.2268
 20
161.911
 30
0
 11
61.2268
 21
147.911
 31
0
  0
LINE
  5
A57
330
A02
100
AcDbEntity
  8
View001
100
AcDbLine
 10
66.2268
 20
164.281
 30
0
 11
80.2268
 21
164.281
 31
0
  0
LINE
  5
A58
330
A02
100
AcDbEntity
  8
View001
100
AcDbLine
 10
66.2268
 20
150.281
 30
0
 11
66.2268
 21
164.281
 31
0
  0
LINE
  5
A59
330
A02
100
AcDbEntity
  8
View001
100
AcDbLine
 10
80.2268
 20
150.281
 30
0
 11
66.2268
 21
150.281
 31
0
  0
LINE
  5
A5A
330
A02
100
AcDbEntity
  8
View001
100
AcDbLine
 10
80.2268
 20
164.281
 30
0
 11
80.2268
 21
150.281
 31
0
  0
LINE
  5
A5B
330
A02
100
AcDbEntity
  8
View001
100
AcDbLine
 10
47.2268
 20
180.911
 30
0
 11
61.2268
 21
180.911
 31
0
  0
LINE
  5
A5C
330
A02
100
AcDbEntity
  8
View001
100
AcDbLine
 10
47.2268
 20
166.911
 30
0
 11
47.2268
 21
180.911
 31
0
  0
LINE
  5
A5D
330
A02
100
AcDbEntity
  8
View001
100
AcDbLine
 10
61.2268
 20
166.911
 30
0
 11
47.2268
 21
166.911
 31
0
  0
LINE
  5
A5E
330
A02
100
AcDbEntity
  8
View001
100
AcDbLine
 10
61.2268
 20
180.911
 30
0
 11
61.2268
 21
166.911
 31
0
  0
CIRCLE
  5
A5F
330
A02
100
AcDbEntity
  8
View001
100
AcDbCircle
 10
63.7268
 20
165.661
 40
1
  0
LINE
  5
A60
330
A02
100
AcDbEntity
  8
View001
100
AcDbLine
 10
66.2268
 20
183.281
 30
0
 11
80.2268
 21
183.281
 31
0
  0
LINE
  5
A61
330
A02
100
AcDbEntity
  8
View001
100
AcDbLine
 10
66.2268
 20
169.281
 30
0
 11
66.2268
 21
183.281
 31
0
  0
LINE
  5
A62
330
A02
100
AcDbEntity
  8
View001
100
AcDbLine
 10
80.2268
 20
169.281
 30
0
 11
66.2268
 21
169.281
 31
0
  0
LINE
  5
A63
330
A02
100
AcDbEntity
  8
View001
100
AcDbLine
 10
80.2268
 20
183.281
 30
0
 11
80.2268
 21
169.281
 31
0
  0
LINE
  5
A64
330
A02
100
AcDbEntity
  8
View001
100
AcDbLine
 10
85.2268
 20
166.651
 30
0
 11
99.2268
 21
166.651
 31
0
  0
LINE
  5
A65
330
A02
100
AcDbEntity
  8
View001
100
AcDbLine
 10
85.2268
 20
152.651
 30
0
 11
85.2268
 21
166.651
 31
0
  0
LINE
  5
A66
330
A02
100
AcDbEntity
  8
View001
100
AcDbLine
 10
99.2268
 20
152.651
 30
0
 11
85.2268
 21
152.651
 31
0
  0
LINE
  5
A67
330
A02
100
AcDbEntity
  8
View001
100
AcDbLine
 10
99.2268
 20
166.651
 30
0
 11
99.2268
 21
152.651
 31
0
  0
LINE
  5
A68
330
A02
100
AcDbEntity
  8
View001
100
AcDbLine
 10
104.227
 20
164.281
 30
0
 11
118.227
 21
164.281
 31
0
  0
LINE
  5
A69
330
A02
100
AcDbEntity
  8
View001
100
AcDbLine
 10
104.227
 20
150.281
 30
0
 11
104.227
 21
164.281
 31
0
  0
LINE
  5
A6A
330
A02
100
AcDbEntity
  8
View001
100
AcDbLine
 10
118.227
 20
150.281
 30
0
 11
104.227
 21
150.281
 31
0
  0
LINE
  5
A6B
330
A02
100
AcDbEntity
  8
View001
100
AcDbLine
 10
118.227
 20
164.281
 30
0
 11
118.227
 21
150.281
 31
0
  0
LINE
  5
A6C
330
A02
100
AcDbEntity
  8
View001
100
AcDbLine
 10
123.227
 20
159.531
 30
0
 11
137.227
 21
159.531
 31
0
  0
LINE
  5
A6D
330
A02
100
AcDbEntity
  8
View001
100
AcDbLine
 10
123.227
 20
145.531
 30
0
 11
123.227
 21
159.531
 31
0
  0
LINE
  5
A6E
330
A02
100
AcDbEntity
  8
View001
100
AcDbLine
 10
137.227
 20
145.531
 30
0
 11
123.227
 21
145.531
 31
0
  0
LINE
  5
A6F
330
A02
100
AcDbEntity
  8
View001
100
AcDbLine
 10
137.227
 20
159.531
 30
0
 11
137.227
 21
145.531
 31
0
  0
LINE
  5
A70
330
A02
100
AcDbEntity
  8
View001
100
AcDbLine
 10
142.227
 20
159.531
 30
0
 11
156.227
 21
159.531
 31
0
  0
LINE
  5
A71
330
A02
100
AcDbEntity
  8
View001
100
AcDbLine
 10
142.227
 20
145.531
 30
0
 11
142.227
 21
159.531
 31
0
  0
LINE
  5
A72
330
A02
100
AcDbEntity
  8
View001
100
AcDbLine
 10
156.227
 20
145.531
 30
0
 11
142.227
 21
145.531
 31
0
  0
LINE
  5
A73
330
A02
100
AcDbEntity
  8
View001
100
AcDbLine
 10
156.227
 20
159.531
 30
0
 11
156.227
 21
145.531
 31
0
  0
CIRCLE
  5
A74
330
A02
100
AcDbEntity
  8
View001
100
AcDbCircle
 10
139.727
 20
161.931
 40
1
  0
LINE
  5
A75
330
A02
100
AcDbEntity
  8
View001
100
AcDbLine
 10
85.2268
 20
185.651
 30
0
 11
99.2268
 21
185.651
 31
0
  0
LINE
  5
A76
330
A02
100
AcDbEntity
  8
View001
100
AcDbLine
 10
85.2268
 20
171.651
 30
0
 11
85.2268
 21
185.651
 31
0
  0
LINE
  5
A77
330
A02
100
AcDbEntity
  8
View001
100
AcDbLine
 10
99.2268
 20
171.651
 30
0
 11
85.2268
 21
171.651
 31
0
  0
LINE
  5
A78
330
A02
100
AcDbEntity
  8
View001
100
AcDbLine
 10
99.2268
 20
185.651
 30
0
 11
99.2268
 21
171.651
 31
0
  0
LINE
  5
A79
330
A02
100
AcDbEntity
  8
View001
100
AcDbLine
 10
104.227
 20
183.281
 30
0
 11
118.227
 21
183.281
 31
0
  0
LINE
  5
A7A
330
A02
100
AcDbEntity
  8
View001
100
AcDbLine
 10
104.227
 20
169.281
 30
0
 11
104.227
 21
183.281
 31
0
  0
LINE
  5
A7B
330
A02
100
AcDbEntity
  8
View001
100
AcDbLine
 10
118.227
 20
169.281
 30
0
 11
104.227
 21
169.281
 31
0
  0
LINE
  5
A7C
330
A02
100
AcDbEntity
  8
View001
100
AcDbLine
 10
118.227
 20
183.281
 30
0
 11
118.227
 21
169.281
 31
0
  0
LINE
  5
A7D
330
A02
100
AcDbEntity
  8
View001
100
AcDbLine
 10
123.227
 20
178.531
 30
0
 11
137.227
 21
178.531
 31
0
  0
LINE
  5
A7E
330
A02
100
AcDbEntity
  8
View001
100
AcDbLine
 10
123.227
 20
164.531
 30
0
 11
123.227
 21
178.531
 31
0
  0
LINE
  5
A7F
330
A02
100
AcDbEntity
  8
View001
100
AcDbLine
 10
137.227
 20
164.531
 30
0
 11
123.227
 21
164.531
 31
0
  0
LINE
  5
A80
330
A02
100
AcDbEntity
  8
View001
100
AcDbLine
 10
137.227
 20
178.531
 30
0
 11
137.227
 21
164.531
 31
0
  0
LINE
  5
A81
330
A02
100
AcDbEntity
  8
View001
100
AcDbLine
 10
142.227
 20
178.531
 30
0
 11
156.227
 21
178.531
 31
0
  0
LINE
  5
A82
330
A02
100
AcDbEntity
  8
View001
100
AcDbLine
 10
142.227
 20
164.531
 30
0
 11
142.227
 21
178.531
 31
0
  0
LINE
  5
A83
330
A02
100
AcDbEntity
  8
View001
100
AcDbLine
 10
156.227
 20
164.531
 30
0
 11
142.227
 21
164.531
 31
0
  0
LINE
  5
A84
330
A02
100
AcDbEntity
  8
View001
100
AcDbLine
 10
156.227
 20
178.531
 30
0
 11
156.227
 21
164.531
 31
0
  0
ENDSEC
  0
SECTION
  2
OBJECTS
  0
DICTIONARY
  5
F000
330
0
100
AcDbDictionary
  3
ACAD_GROUP
350
F001
  0
DICTIONARY
  5
F001
330
F000
100
AcDbDictionary
  0
ENDSEC
  0
EOF